<svg width="2214.51" height="779.408" viewBox="0 0 2214.51 779.408" xmlns="http://www.w3.org/2000/svg" xmlns:xlink="http://www.w3.org/1999/xlink" overflow="hidden"><defs><linearGradient x1="-1.665" y1="0.421" x2="0.965" y2="0.51" gradientUnits="objectBoundingBox" id="linear-gradient"><stop offset="0" stop-color="#FFFFFF"/><stop offset="0.632" stop-color="#2196F3"/><stop offset="1" stop-color="#0070C0"/></linearGradient></defs><circle cx="268" cy="268" r="268" id="Elipse_55" fill="#4A4A4A" transform="translate(85.144 124)"/><path d="M268 0C416.012 0 536 119.988 536 268 536 416.012 416.012 536 268 536 119.988 536 0 416.012 0 268 0 119.988 119.988 0 268 0Z" id="Trazado_172" fill="#A7A8AC" transform="translate(104.144 124)"/><path d="M270.271 222.825C343.86 222.825 414.957 230.471 463.932 222.825 513.817 215.037 540.543 192.958 540.543 268 540.543 416.012 419.543 536 270.272 536 121.001 536 5.111 414.065 5.111 266.052 5.111 219.428 13.276 258.019 34.575 250.052 80.307 232.948 168.024 222.825 270.271 222.825Z" id="Trazado_173" fill="url(#linear-gradient)" transform="matrix(0.819 -0.574 0.574 0.819 -3.193 329.115)"/><circle cx="164" cy="164" r="164" id="Elipse_56" fill="#FFFFFF" transform="translate(201.144 223)"/><path d="M15.914 1.049 563.078 2.073 564.378 48.461 564.578 60.261 563.828 75.6 561.5 94.985 27.524 86.451 16.168 85.377 13.832 65.24 13.29 47.247 12.722 38.1 13.384 25.977 13.467 13.788Z" id="Trazado_183" fill="#FFFFFF" transform="matrix(0.766044 -0.642788 0.642788 0.766044 112.27 542.594)"/><path d="M28.667 0.511 57.339 300.185 5.812 299.758Z" id="Trazado_174" fill="#4A4A4A" transform="matrix(-0.743145 -0.669131 0.669131 -0.743145 434.19 339.23)"/><circle cx="59.5" cy="59.5" r="59.5" id="Elipse_57" fill="#4A4A4A" transform="translate(584.144 0)"/><path d="M24.224 0.5 48.088 271.755 5.844 271.338Z" id="Trazado_175" fill="#A7A8AC" transform="matrix(-0.731 -0.682 0.682 -0.731 450.928 316.531)"/><circle cx="59.5" cy="59.5" r="59.5" id="Elipse_58" fill="#A7A8AC" transform="translate(593.144 5)"/><path d="M-1.7 23.345 56.865 34.221 65.165 36.185 66 177.7 0 177.7Z" id="Trazado_184" fill="#FFFFFF" transform="matrix(0.731354 -0.681998 0.681998 0.731354 150.669 175.771)"/><path d="M4.206-3.86 12.947-1.812 13 107.784 2.815 104.091Z" id="Trazado_176" fill="#4A4A4A" transform="matrix(0.731354 -0.681998 0.681998 0.731354 215.656 167.373)"/><path d="M34.5 0.511 70.478 306.184 5.811 305.749Z" id="Trazado_177" fill="#4A4A4A" transform="matrix(-0.707107 0.707107 -0.707107 -0.707107 366.906 336.396)"/><circle cx="77.5" cy="77.5" r="77.5" id="Elipse_59" fill="#4A4A4A" transform="matrix(0.052336 -0.99863 0.99863 0.052336 0 178.184)"/><path d="M31.364 0.5 64.5 288.169 5.846 287.727Z" id="Trazado_178" fill="#A7A8AC" transform="matrix(-0.71934 0.694658 -0.694658 -0.71934 347.627 316.384)"/><circle cx="76" cy="76" r="76" id="Elipse_60" fill="#A7A8AC" transform="matrix(0.052336 -0.99863 0.99863 0.052336 0 162.984)"/><path d="M28.667 0.511 57.339 300.185 5.812 299.758Z" id="Trazado_179" fill="#1E436D" transform="matrix(0.707107 0.707107 -0.707107 0.707107 314.697 440.878)"/><circle cx="59.5" cy="59.5" r="59.5" id="Elipse_61" fill="#1E436D" transform="matrix(-0.99863 -0.052336 0.052336 -0.99863 147.194 771.795)"/><path d="M24.224 0.5 48.088 271.755 5.844 271.338Z" id="Trazado_180" fill="#2196F3" transform="matrix(0.719 0.695 -0.695 0.719 295.169 471.277)"/><path d="M59.5 0C92.3609-1.42109e-14 119 26.6391 119 59.5 119 92.3609 92.3609 119 59.5 119 26.6391 119-2.84217e-14 92.3609-7.10543e-14 59.5-7.81597e-14 26.6391 26.6391-1.42109e-14 59.5-1.42109e-14Z" id="Trazado_181" fill="#2196F3" transform="matrix(-0.99863 -0.052336 0.052336 -0.99863 153.448 779.408)"/><circle cx="59.5" cy="59.5" r="59.5" id="Elipse_62" fill="#1E436D" transform="matrix(-0.999848 0.0174524 -0.0174524 -0.999848 662.374 737.957)"/><path d="M59.5 0C92.3609-1.42109e-14 119 26.6391 119 59.5 119 92.3609 92.3609 119 59.5 119 26.6391 119-2.84217e-14 92.3609-7.10543e-14 59.5-7.81597e-14 26.6391 26.6391-1.42109e-14 59.5-1.42109e-14Z" id="Trazado_182" fill="#2196F3" transform="matrix(-0.999848 0.0174524 -0.0174524 -0.999848 670.144 735.115)"/><text id="RSOLI" stroke="#707070" fill="#A7A8AC" font-family="MicrosoftYaHeiUI,Microsoft YaHei UI" font-size="332" letter-spacing="0.4em" transform="translate(734.515 523)"><tspan x="0" y="0">RSOLI</tspan></text></svg>