<svg width="716" height="720" xmlns="http://www.w3.org/2000/svg" xmlns:xlink="http://www.w3.org/1999/xlink" overflow="hidden"><defs><clipPath id="clip0"><rect x="282" y="0" width="716" height="720"/></clipPath><linearGradient x1="112.569" y1="180.195" x2="330.479" y2="424.272" gradientUnits="userSpaceOnUse" spreadMethod="pad" id="fill1"><stop offset="0" stop-color="#0170C0"/><stop offset="1" stop-color="#2196F3"/></linearGradient></defs><g clip-path="url(#clip0)" transform="translate(-282 0)"><path d="M237.243 474.156C229.482 474.156 221.653 473.776 213.975 473.028 206.403 472.289 198.789 471.174 191.347 469.712 176.698 466.835 162.255 462.536 148.421 456.933 134.832 451.431 121.668 444.606 109.293 436.649 97.1422 428.837 85.6248 419.851 75.0533 409.936 96.5326 390.854 120.06 371.157 146.966 349.733 152.974 354.727 159.907 359.196 167.575 363.017 174.309 366.372 181.636 369.245 189.352 371.556 207.08 376.864 220.783 377.461 224.56 377.518 225.722 377.535 226.891 377.544 228.036 377.544 274.038 377.545 301.907 363.274 329.6 341.845 350.335 325.801 369.776 286.763 374.823 251.039 379.51 217.858 368.321 185.458 365.79 178.706 390.304 159.11 437.698 121.209 441.911 117.839 452.245 135.504 460.236 154.447 465.664 174.148 471.299 194.598 474.156 215.826 474.156 237.243 474.156 245.324 473.745 253.474 472.933 261.466 472.133 269.342 470.925 277.257 469.343 284.989 466.23 300.2 461.586 315.162 455.538 329.46 449.601 343.498 442.252 357.038 433.695 369.703 425.22 382.248 415.487 394.045 404.766 404.766 394.045 415.487 382.248 425.22 369.703 433.695 357.038 442.252 343.498 449.601 329.46 455.538 315.162 461.586 300.2 466.23 284.989 469.343 277.257 470.925 269.342 472.133 261.466 472.933 253.474 473.745 245.324 474.156 237.243 474.156Z" fill="#4A4A4A" transform="matrix(1.00085 0 0 1 394.889 128.986)"/><path d="M441.819 118.334C436.066 122.935 390.266 159.562 366.182 178.814 368.87 186.046 379.797 218.179 375.148 251.085 370.091 286.884 350.596 326.015 329.801 342.105 302.056 363.575 274.132 377.873 228.036 377.873 226.889 377.873 225.718 377.864 224.555 377.847 220.767 377.79 207.027 377.191 189.257 371.871 181.523 369.555 174.179 366.675 167.429 363.312 159.825 359.523 152.942 355.099 146.962 350.157 120.26 371.424 96.8883 390.988 75.5417 409.942 86.0264 419.746 97.4378 428.635 109.471 436.373 121.829 444.318 134.975 451.133 148.545 456.628 162.36 462.223 176.782 466.516 191.41 469.389 198.842 470.849 206.445 471.963 214.007 472.7 221.675 473.448 229.492 473.827 237.243 473.827 245.313 473.827 253.452 473.416 261.433 472.606 269.298 471.807 277.201 470.601 284.923 469.02 300.113 465.912 315.054 461.274 329.332 455.235 343.35 449.306 356.871 441.967 369.519 433.423 382.046 424.959 393.827 415.239 404.533 404.533 415.239 393.827 424.959 382.046 433.423 369.519 441.967 356.871 449.306 343.35 455.235 329.332 461.274 315.054 465.912 300.113 469.021 284.923 470.601 277.202 471.807 269.298 472.606 261.433 473.416 253.452 473.827 245.313 473.827 237.243 473.827 215.856 470.974 194.657 465.347 174.235 459.96 154.684 452.045 135.88 441.819 118.334M442.003 117.345C462.636 152.485 474.485 193.48 474.485 237.243 474.485 368.268 368.268 474.485 237.243 474.485 174.35 474.485 117.174 450.013 74.5656 409.929 98.0203 389.081 122.286 368.96 146.971 349.308 172.742 370.859 208.602 376.95 224.565 377.189 225.732 377.206 226.892 377.215 228.036 377.215 273.408 377.215 301.015 363.548 329.399 341.585 348.872 326.517 369.179 288.64 374.497 250.993 378.568 222.176 370.732 192.709 365.398 178.598 391.172 157.995 442.003 117.345 442.003 117.345Z" fill="#707070" transform="matrix(1.00085 0 0 1 394.889 128.986)"/><path d="M448.792 129.741C465.743 163.037 474.549 199.881 474.486 237.243 474.486 313.368 438.631 381.12 382.905 424.517 378.922 418.299 337.957 364.218 324.067 345.616 325.735 344.388 327.566 343.004 329.398 341.586 348.871 326.515 369.178 288.64 374.496 250.994 377.634 228.776 373.695 206.172 369.239 190.363 379.662 181.915 419.632 151.78 448.792 129.741Z" fill="#4A4A4A" transform="matrix(-1.00024 0.0348995 -0.0349291 -0.99939 880.146 596.2)"/><path d="M448.996 129.8C495.562 221.579 477.728 332.906 404.822 405.546 395.737 395.629 346.849 334.147 341.871 329.334 356.903 310.76 370.465 280.861 374.669 251.107 377.808 228.879 373.868 206.265 369.409 190.449 379.834 181.998 419.822 151.849 448.996 129.8Z" fill="#4A4A4A" transform="matrix(-0.0700275 -0.997545 0.998391 -0.0699681 409.998 624.655)"/><path d="M68.1126 0C105.743 0.0126455 136.238 30.5283 136.225 68.1586 136.222 77.896 134.132 87.5197 130.095 96.381 140.411 111.698 261.221 255.634 277.813 283.836 250.295 260.888 145.584 172.56 107.242 142.434 107.242 142.434 94.4943 131.261 93.2432 131.782 85.3251 135.087 77.4043 136.225 68.1126 136.225 30.4951 136.225-9.35207e-15 105.73 0 68.1126 0 30.4951 30.4951-2.80562e-14 68.1126-3.74083e-14Z" fill="#4A4A4A" transform="matrix(1.00085 0 0 1 315.787 32.9047)"/><path d="M68.1128 0C105.743 0.0126456 136.238 30.5283 136.226 68.1587 136.222 77.8962 134.132 87.5199 130.095 96.3813 140.411 111.698 261.221 255.635 277.813 283.836 250.296 260.888 145.584 172.56 107.242 142.435 107.242 142.435 94.4945 131.261 93.2435 131.783 85.3253 135.088 77.4044 136.226 68.1128 136.226 30.4951 136.226-9.35209e-15 105.73 0 68.1128 0 30.4951 30.4951-2.80563e-14 68.1128-3.74084e-14Z" fill="#4A4A4A" transform="matrix(-0.0523802 -0.998627 0.999475 -0.0523358 330.34 720)"/><path d="M68.1128 0C105.743 0.0126456 136.238 30.5283 136.226 68.1587 136.222 77.8962 134.132 87.5199 130.095 96.3813 140.411 111.698 261.221 255.635 277.813 283.836 250.296 260.888 145.584 172.56 107.242 142.435 107.242 142.435 94.4945 131.261 93.2435 131.783 85.3253 135.088 77.4044 136.226 68.1128 136.226 30.4951 136.226-9.35209e-15 105.73 0 68.1128 0 30.4951 30.4951-2.80563e-14 68.1128-3.74084e-14Z" fill="#4A4A4A" transform="matrix(0.0523802 0.998627 -0.999475 0.0523358 942.479 6.68096)"/><path d="M107.927 53.9636C107.927 83.7669 83.7669 107.927 53.9636 107.927 24.1603 107.927 0 83.7669 0 53.9636 0 24.1603 24.1603-9.35207e-15 53.9636-1.87041e-14 83.7669-2.80562e-14 107.927 24.1603 107.927 53.9636Z" fill="#4A4A4A" transform="matrix(1.00085 0 0 1 788.104 562.67)"/><path d="M237.243 474.156C229.482 474.156 221.653 473.776 213.975 473.028 206.403 472.289 198.789 471.174 191.347 469.712 176.698 466.835 162.255 462.536 148.421 456.933 134.832 451.431 121.668 444.606 109.293 436.649 97.1422 428.837 85.6248 419.851 75.0533 409.936 96.5326 390.854 120.06 371.157 146.966 349.733 152.974 354.727 159.907 359.196 167.575 363.017 174.309 366.372 181.636 369.245 189.352 371.556 207.08 376.864 220.783 377.461 224.56 377.518 225.722 377.535 226.891 377.544 228.036 377.544 274.038 377.545 301.907 363.274 329.6 341.845 350.335 325.801 369.776 286.763 374.823 251.039 379.51 217.858 368.321 185.458 365.79 178.706 390.304 159.11 437.698 121.209 441.911 117.839 452.245 135.504 460.236 154.447 465.664 174.148 471.299 194.598 474.156 215.826 474.156 237.243 474.156 245.324 473.745 253.474 472.933 261.466 472.133 269.342 470.925 277.257 469.343 284.989 466.23 300.2 461.586 315.162 455.538 329.46 449.601 343.498 442.252 357.038 433.695 369.703 425.22 382.248 415.487 394.045 404.766 404.766 394.045 415.487 382.248 425.22 369.703 433.695 357.038 442.252 343.498 449.601 329.46 455.538 315.162 461.586 300.2 466.23 284.989 469.343 277.257 470.925 269.342 472.133 261.466 472.933 253.474 473.745 245.324 474.156 237.243 474.156Z" fill="url(#fill1)" transform="matrix(1.00085 0 0 1 402.071 122.305)"/><path d="M441.819 118.334C436.066 122.935 390.266 159.562 366.182 178.814 368.87 186.046 379.797 218.179 375.148 251.085 370.091 286.884 350.596 326.015 329.801 342.105 302.056 363.575 274.132 377.873 228.036 377.873 226.889 377.873 225.718 377.864 224.555 377.847 220.767 377.79 207.027 377.191 189.257 371.871 181.523 369.555 174.179 366.675 167.429 363.312 159.825 359.523 152.942 355.099 146.962 350.157 120.26 371.424 96.8883 390.988 75.5417 409.942 86.0264 419.746 97.4378 428.635 109.471 436.373 121.829 444.318 134.975 451.133 148.545 456.628 162.36 462.223 176.782 466.516 191.41 469.389 198.842 470.849 206.445 471.963 214.007 472.7 221.675 473.448 229.492 473.827 237.243 473.827 245.313 473.827 253.452 473.416 261.433 472.606 269.298 471.807 277.201 470.601 284.923 469.02 300.113 465.912 315.054 461.274 329.332 455.235 343.35 449.306 356.871 441.967 369.519 433.423 382.046 424.959 393.827 415.239 404.533 404.533 415.239 393.827 424.959 382.046 433.423 369.519 441.967 356.871 449.306 343.35 455.235 329.332 461.274 315.054 465.912 300.113 469.021 284.923 470.601 277.202 471.807 269.298 472.606 261.433 473.416 253.452 473.827 245.313 473.827 237.243 473.827 215.856 470.974 194.657 465.347 174.235 459.96 154.684 452.045 135.88 441.819 118.334M442.003 117.345C462.636 152.485 474.485 193.48 474.485 237.243 474.485 368.268 368.268 474.485 237.243 474.485 174.35 474.485 117.174 450.013 74.5656 409.929 98.0203 389.081 122.286 368.96 146.971 349.308 172.742 370.859 208.602 376.95 224.565 377.189 225.732 377.206 226.892 377.215 228.036 377.215 273.408 377.215 301.015 363.548 329.399 341.585 348.872 326.517 369.179 288.64 374.497 250.993 378.568 222.176 370.732 192.709 365.398 178.598 391.172 157.995 442.003 117.345 442.003 117.345Z" fill="#707070" transform="matrix(1.00085 0 0 1 402.071 122.305)"/><path d="M448.792 129.741C465.743 163.037 474.549 199.881 474.486 237.243 474.486 313.368 438.631 381.12 382.905 424.517 378.922 418.299 337.957 364.218 324.067 345.616 325.735 344.388 327.566 343.004 329.398 341.586 348.871 326.515 369.178 288.64 374.496 250.994 377.634 228.776 373.695 206.172 369.239 190.363 379.662 181.915 419.632 151.78 448.792 129.741Z" fill="#A7A8AC" transform="matrix(-1.00024 0.0348995 -0.0349291 -0.99939 887.328 589.519)"/><path d="M448.996 129.8C495.562 221.579 477.728 332.906 404.822 405.546 395.737 395.629 346.849 334.147 341.871 329.334 356.903 310.76 370.465 280.861 374.669 251.107 377.808 228.879 373.868 206.265 369.409 190.449 379.834 181.998 419.822 151.849 448.996 129.8Z" fill="#A7A8AC" transform="matrix(-0.0700275 -0.997545 0.998391 -0.0699681 417.18 617.974)"/><path d="M67.5792 0C104.902 0 135.158 30.6974 135.158 68.5646 135.169 78.3737 133.096 88.0731 129.076 97.0207 139.311 112.439 259.174 257.33 275.635 285.717 248.334 262.617 144.442 173.704 106.4 143.378 106.4 143.378 93.7526 132.129 92.5113 132.655 84.6547 135.983 76.7961 137.129 67.5792 137.129 30.256 137.129 0 106.432 0 68.5646 0 30.6974 30.256 0 67.5792 0Z" fill="#A7A8AC" transform="matrix(1.00023 0.0350135 -0.0350432 0.999386 328.011 21.4624)"/><path d="M68.1128 0C105.743 0.0126456 136.238 30.5283 136.226 68.1587 136.222 77.8962 134.132 87.5199 130.095 96.3813 140.411 111.698 261.221 255.635 277.813 283.836 250.296 260.888 145.584 172.56 107.242 142.435 107.242 142.435 94.4945 131.261 93.2435 131.783 85.3253 135.088 77.4044 136.226 68.1128 136.226 30.4951 136.226-9.35209e-15 105.73 0 68.1128 0 30.4951 30.4951-2.80563e-14 68.1128-3.74084e-14Z" fill="#2196F3" transform="matrix(-0.0523802 -0.998627 0.999475 -0.0523358 337.522 713.319)"/><path d="M68.1128 0C105.743 0.0126456 136.238 30.5283 136.226 68.1587 136.222 77.8962 134.132 87.5199 130.095 96.3813 140.411 111.698 261.221 255.635 277.813 283.836 250.296 260.888 145.584 172.56 107.242 142.435 107.242 142.435 94.4945 131.261 93.2435 131.783 85.3253 135.088 77.4044 136.226 68.1128 136.226 30.4951 136.226-9.35209e-15 105.73 0 68.1128 0 30.4951 30.4951-2.80563e-14 68.1128-3.74084e-14Z" fill="#A7A8AC" transform="matrix(0.0523802 0.998627 -0.999475 0.0523358 949.661 0)"/><path d="M107.927 53.9636C107.927 83.7669 83.7669 107.927 53.9636 107.927 24.1603 107.927 0 83.7669 0 53.9636 0 24.1603 24.1603-9.35207e-15 53.9636-1.87041e-14 83.7669-2.80562e-14 107.927 24.1603 107.927 53.9636Z" fill="#2196F3" transform="matrix(1.00085 0 0 1 795.286 555.989)"/></g></svg>