<svg width="648" height="720" xmlns="http://www.w3.org/2000/svg" xmlns:xlink="http://www.w3.org/1999/xlink" overflow="hidden"><defs><clipPath id="clip0"><rect x="431" y="14" width="648" height="720"/></clipPath></defs><g clip-path="url(#clip0)" transform="translate(-431 -14)"><path d="M237.143 473.957C229.385 473.957 221.56 473.577 213.885 472.829 206.316 472.091 198.706 470.976 191.266 469.515 176.623 466.639 162.187 462.341 148.359 456.741 134.776 451.241 121.617 444.419 109.247 436.466 97.1014 428.656 85.5888 419.674 75.0218 409.763 96.492 390.69 120.01 371.001 146.904 349.586 152.91 354.578 159.84 359.045 167.505 362.864 174.236 366.218 181.559 369.09 189.272 371.399 206.993 376.706 220.69 377.303 224.466 377.359 225.627 377.377 226.796 377.385 227.94 377.385 273.922 377.386 301.78 363.121 329.462 341.702 350.187 325.664 369.621 286.642 374.665 250.934 379.35 217.766 368.166 185.38 365.636 178.63 390.14 159.043 437.514 121.158 441.725 117.79 452.054 135.447 460.042 154.382 465.468 174.075 471.101 194.516 473.957 215.736 473.957 237.143 473.957 245.221 473.545 253.367 472.734 261.356 471.934 269.229 470.727 277.14 469.145 284.869 466.034 300.074 461.392 315.03 455.347 329.321 449.412 343.354 442.066 356.888 433.513 369.548 425.041 382.087 415.312 393.879 404.596 404.596 393.879 415.312 382.087 425.041 369.547 433.513 356.887 442.066 343.353 449.412 329.321 455.347 315.03 461.392 300.074 466.034 284.869 469.146 277.14 470.727 269.229 471.935 261.356 472.734 253.367 473.545 245.221 473.957 237.143 473.957Z" fill="#FFFFFF" transform="matrix(1.00061 0 0 1 510.051 143.083)"/><path d="M441.633 118.284C435.883 122.883 390.102 159.495 366.028 178.739 368.715 185.967 379.637 218.087 374.991 250.98 369.936 286.764 350.449 325.878 329.663 341.962 301.929 363.422 274.017 377.714 227.94 377.714 226.794 377.714 225.623 377.705 224.461 377.688 220.675 377.631 206.94 377.033 189.178 371.714 181.447 369.4 174.106 366.521 167.358 363.159 159.758 359.372 152.878 354.949 146.9 350.01 120.21 371.268 96.8476 390.824 75.5099 409.77 85.9902 419.569 97.3968 428.455 109.425 436.189 121.777 444.132 134.918 450.944 148.482 456.436 162.291 462.028 176.707 466.32 191.33 469.192 198.759 470.651 206.358 471.764 213.917 472.502 221.581 473.249 229.396 473.628 237.143 473.628 245.21 473.628 253.345 473.217 261.323 472.407 269.185 471.608 277.085 470.403 284.803 468.823 299.987 465.716 314.922 461.08 329.193 455.044 343.206 449.117 356.721 441.781 369.363 433.24 381.886 424.78 393.661 415.065 404.363 404.363 415.065 393.661 424.78 381.886 433.24 369.363 441.781 356.721 449.117 343.206 455.044 329.193 461.08 314.922 465.716 299.987 468.823 284.803 470.403 277.085 471.608 269.185 472.407 261.323 473.217 253.345 473.628 245.21 473.628 237.143 473.628 215.765 470.776 194.575 465.151 174.162 459.766 154.619 451.855 135.823 441.633 118.284M441.817 117.295C462.441 152.421 474.286 193.399 474.286 237.143 474.286 368.113 368.113 474.286 237.143 474.286 174.277 474.286 117.125 449.823 74.5342 409.756 97.9791 388.918 122.234 368.805 146.909 349.162 172.669 370.703 208.514 376.791 224.471 377.03 225.637 377.048 226.797 377.056 227.94 377.056 273.293 377.056 300.889 363.395 329.26 341.441 348.725 326.379 369.024 288.518 374.339 250.888 378.408 222.083 370.577 192.628 365.244 178.523 391.007 157.929 441.817 117.295 441.817 117.295Z" fill="#707070" transform="matrix(1.00061 0 0 1 510.051 143.083)"/><path d="M448.603 129.687C465.547 162.968 474.349 199.796 474.286 237.143 474.286 313.237 438.446 380.96 382.744 424.339 378.762 418.123 337.815 364.065 323.931 345.47 325.598 344.243 327.428 342.86 329.259 341.442 348.725 326.378 369.023 288.518 374.338 250.888 377.475 228.68 373.538 206.085 369.083 190.283 379.502 181.838 419.455 151.716 448.603 129.687Z" fill="#FFFFFF" transform="matrix(-0.999999 0.0348995 -0.0349208 -0.99939 994.987 610.101)"/><path d="M448.807 129.746C495.353 221.486 477.527 332.766 404.652 405.375 395.57 395.462 346.703 334.006 341.727 329.195 356.753 310.629 370.309 280.743 374.511 251.001 377.649 228.783 373.71 206.178 369.254 190.368 379.674 181.921 419.645 151.785 448.807 129.746Z" fill="#FFFFFF" transform="matrix(-0.0700108 -0.997546 0.998154 -0.0699682 525.148 638.544)"/><path d="M68.084 0C105.698 0.0126402 136.181 30.5154 136.168 68.1299 136.165 77.8633 134.075 87.4829 130.04 96.3405 140.352 111.651 261.111 255.527 277.696 283.716 250.19 260.778 145.523 172.487 107.196 142.374 107.196 142.374 94.4545 131.205 93.204 131.727 85.2892 135.031 77.3717 136.168 68.084 136.168 30.4822 136.168-9.34813e-15 105.686 0 68.084 0 30.4822 30.4822-2.80444e-14 68.084-3.73925e-14Z" fill="#FFFFFF" transform="matrix(1.00061 0 0 1 431 47.0422)"/><path d="M68.0841 0C105.699 0.0126403 136.181 30.5155 136.168 68.13 136.165 77.8634 134.076 87.483 130.041 96.3407 140.352 111.651 261.111 255.527 277.696 283.717 250.19 260.779 145.523 172.488 107.197 142.375 107.197 142.375 94.4547 131.206 93.2042 131.727 85.2893 135.031 77.3718 136.168 68.0841 136.168 30.4823 136.168-9.34815e-15 105.686 0 68.0841 0 30.4823 30.4823-2.80444e-14 68.0841-3.73926e-14Z" fill="#FFFFFF" transform="matrix(-0.0523678 -0.998628 0.999237 -0.0523359 445.543 733.849)"/><path d="M68.0841 0C105.699 0.0126403 136.181 30.5155 136.168 68.13 136.165 77.8634 134.076 87.483 130.041 96.3407 140.352 111.651 261.111 255.527 277.696 283.717 250.19 260.779 145.523 172.488 107.197 142.375 107.197 142.375 94.4547 131.206 93.2042 131.727 85.2893 135.031 77.3718 136.168 68.0841 136.168 30.4823 136.168-9.34815e-15 105.686 0 68.0841 0 30.4823 30.4823-2.80444e-14 68.0841-3.73926e-14Z" fill="#FFFFFF" transform="matrix(0.0523678 0.998628 -0.999237 0.0523359 1057.28 20.8296)"/><path d="M107.882 53.9409C107.882 83.7317 83.7317 107.882 53.9409 107.882 24.1502 107.882 0 83.7317 0 53.9409 0 24.1502 24.1502-9.34813e-15 53.9409-1.86963e-14 83.7317-2.80444e-14 107.882 24.1502 107.882 53.9409Z" fill="#FFFFFF" transform="matrix(1.00061 0 0 1 903.006 576.584)"/><path d="M237.143 473.957C229.385 473.957 221.56 473.577 213.885 472.829 206.316 472.091 198.706 470.976 191.266 469.515 176.623 466.639 162.187 462.341 148.359 456.741 134.776 451.241 121.617 444.419 109.247 436.466 97.1014 428.656 85.5888 419.674 75.0218 409.763 96.492 390.69 120.01 371.001 146.904 349.586 152.91 354.578 159.84 359.045 167.505 362.864 174.236 366.218 181.559 369.09 189.272 371.399 206.993 376.706 220.69 377.303 224.466 377.359 225.627 377.377 226.796 377.385 227.94 377.385 273.922 377.386 301.78 363.121 329.462 341.702 350.187 325.664 369.621 286.642 374.665 250.934 379.35 217.766 368.166 185.38 365.636 178.63 390.14 159.043 437.514 121.158 441.725 117.79 452.054 135.447 460.042 154.382 465.468 174.075 471.101 194.516 473.957 215.736 473.957 237.143 473.957 245.221 473.545 253.367 472.734 261.356 471.934 269.229 470.727 277.14 469.145 284.869 466.034 300.074 461.392 315.03 455.347 329.321 449.412 343.354 442.066 356.888 433.513 369.548 425.041 382.087 415.312 393.879 404.596 404.596 393.879 415.312 382.087 425.041 369.547 433.513 356.887 442.066 343.353 449.412 329.321 455.347 315.03 461.392 300.074 466.034 284.869 469.146 277.14 470.727 269.229 471.935 261.356 472.734 253.367 473.545 245.221 473.957 237.143 473.957Z" fill="#FFFFFF" transform="matrix(1.00061 0 0 1 517.227 136.405)"/><path d="M441.633 118.284C435.883 122.883 390.102 159.495 366.028 178.739 368.715 185.967 379.637 218.087 374.991 250.98 369.936 286.764 350.449 325.878 329.663 341.962 301.929 363.422 274.017 377.714 227.94 377.714 226.794 377.714 225.623 377.705 224.461 377.688 220.675 377.631 206.94 377.033 189.178 371.714 181.447 369.4 174.106 366.521 167.358 363.159 159.758 359.372 152.878 354.949 146.9 350.01 120.21 371.268 96.8476 390.824 75.5099 409.77 85.9902 419.569 97.3968 428.455 109.425 436.189 121.777 444.132 134.918 450.944 148.482 456.436 162.291 462.028 176.707 466.32 191.33 469.192 198.759 470.651 206.358 471.764 213.917 472.502 221.581 473.249 229.396 473.628 237.143 473.628 245.21 473.628 253.345 473.217 261.323 472.407 269.185 471.608 277.085 470.403 284.803 468.823 299.987 465.716 314.922 461.08 329.193 455.044 343.206 449.117 356.721 441.781 369.363 433.24 381.886 424.78 393.661 415.065 404.363 404.363 415.065 393.661 424.78 381.886 433.24 369.363 441.781 356.721 449.117 343.206 455.044 329.193 461.08 314.922 465.716 299.987 468.823 284.803 470.403 277.085 471.608 269.185 472.407 261.323 473.217 253.345 473.628 245.21 473.628 237.143 473.628 215.765 470.776 194.575 465.151 174.162 459.766 154.619 451.855 135.823 441.633 118.284M441.817 117.295C462.441 152.421 474.286 193.399 474.286 237.143 474.286 368.113 368.113 474.286 237.143 474.286 174.277 474.286 117.125 449.823 74.5342 409.756 97.9791 388.918 122.234 368.805 146.909 349.162 172.669 370.703 208.514 376.791 224.471 377.03 225.637 377.048 226.797 377.056 227.94 377.056 273.293 377.056 300.889 363.395 329.26 341.441 348.725 326.379 369.024 288.518 374.339 250.888 378.408 222.083 370.577 192.628 365.244 178.523 391.007 157.929 441.817 117.295 441.817 117.295Z" fill="#707070" transform="matrix(1.00061 0 0 1 517.227 136.405)"/><path d="M448.603 129.687C465.547 162.968 474.349 199.796 474.286 237.143 474.286 313.237 438.446 380.96 382.744 424.339 378.762 418.123 337.815 364.065 323.931 345.47 325.598 344.243 327.428 342.86 329.259 341.442 348.725 326.378 369.023 288.518 374.338 250.888 377.475 228.68 373.538 206.085 369.083 190.283 379.502 181.838 419.455 151.716 448.603 129.687Z" fill="#FFFFFF" transform="matrix(-0.999999 0.0348995 -0.0349208 -0.99939 1002.17 603.423)"/><path d="M448.807 129.746C495.353 221.486 477.527 332.766 404.652 405.375 395.57 395.462 346.703 334.006 341.727 329.195 356.753 310.629 370.309 280.743 374.511 251.001 377.649 228.783 373.71 206.178 369.254 190.368 379.674 181.921 419.645 151.785 448.807 129.746Z" fill="#FFFFFF" transform="matrix(-0.0700108 -0.997546 0.998154 -0.0699682 532.327 631.865)"/><path d="M67.5507 0C104.858 0 135.101 30.6845 135.101 68.5357 135.112 78.3407 133.04 88.0361 129.022 96.9799 139.253 112.392 259.065 257.222 275.519 285.597 248.23 262.507 144.381 173.631 106.355 143.318 106.355 143.318 93.7132 132.073 92.4723 132.599 84.6191 135.925 76.7638 137.071 67.5507 137.071 30.2433 137.071 0 106.387 0 68.5357 0 30.6845 30.2433 0 67.5507 0Z" fill="#FFFFFF" transform="matrix(0.999995 0.0350135 -0.0350349 0.999386 443.216 35.6048)"/><path d="M68.0841 0C105.699 0.0126403 136.181 30.5155 136.168 68.13 136.165 77.8634 134.076 87.483 130.041 96.3407 140.352 111.651 261.111 255.527 277.696 283.717 250.19 260.779 145.523 172.488 107.197 142.375 107.197 142.375 94.4547 131.206 93.2042 131.727 85.2893 135.031 77.3718 136.168 68.0841 136.168 30.4823 136.168-9.34815e-15 105.686 0 68.0841 0 30.4823 30.4823-2.80444e-14 68.0841-3.73926e-14Z" fill="#FFFFFF" transform="matrix(-0.0523678 -0.998628 0.999237 -0.0523359 452.721 727.17)"/><path d="M68.0841 0C105.699 0.0126403 136.181 30.5155 136.168 68.13 136.165 77.8634 134.076 87.483 130.041 96.3407 140.352 111.651 261.111 255.527 277.696 283.717 250.19 260.779 145.523 172.488 107.197 142.375 107.197 142.375 94.4547 131.206 93.2042 131.727 85.2893 135.031 77.3718 136.168 68.0841 136.168 30.4823 136.168-9.34815e-15 105.686 0 68.0841 0 30.4823 30.4823-2.80444e-14 68.0841-3.73926e-14Z" fill="#FFFFFF" transform="matrix(0.0523678 0.998628 -0.999237 0.0523359 1064.46 14.1514)"/><path d="M107.882 53.9409C107.882 83.7317 83.7317 107.882 53.9409 107.882 24.1502 107.882 0 83.7317 0 53.9409 0 24.1502 24.1502-9.34813e-15 53.9409-1.86963e-14 83.7317-2.80444e-14 107.882 24.1502 107.882 53.9409Z" fill="#FFFFFF" transform="matrix(1.00061 0 0 1 910.182 569.906)"/></g></svg>