<svg width="531" height="674" xmlns="http://www.w3.org/2000/svg" xmlns:xlink="http://www.w3.org/1999/xlink" overflow="hidden"><defs><clipPath id="clip0"><rect x="395" y="-1" width="531" height="674"/></clipPath><clipPath id="clip1"><rect x="396" y="0" width="529" height="672"/></clipPath><clipPath id="clip2"><rect x="396" y="0" width="529" height="673"/></clipPath><clipPath id="clip3"><rect x="354" y="0" width="571" height="720"/></clipPath></defs><g clip-path="url(#clip0)" transform="translate(-395 1)"><g clip-path="url(#clip1)"><g clip-path="url(#clip2)"><g clip-path="url(#clip3)"><path d="M378.328 659.096 5.77754 328.186 124.902 23.4013 378.328 659.096Z" fill="#0973E5" transform="matrix(1 0 0 1.00127 534.501 -10.136)"/><path d="M124.947 36.6792 11.555 326.797 366.177 641.782 124.947 36.6792M124.857 10.1233 390.479 676.409 3.96759e-05 329.575 124.857 10.1233Z" fill="#086AD4" transform="matrix(1 0 0 1.00127 534.501 -10.136)"/><path d="M136.548 339.331-6.98265 309.334 90.4322 20.8803 136.548 339.331Z" fill="#0973E5" transform="matrix(-0.865751 -0.500474 0.499842 -0.866847 478.083 713.307)"/><path d="M88.5281 41.7606-0.602837 305.685 130.722 333.132 88.5281 41.7606M92.3362 0 142.374 345.531-13.3625 312.983 92.3362 0Z" fill="#086AD4" transform="matrix(-0.865751 -0.500474 0.499842 -0.866847 478.083 713.307)"/></g></g></g></g></svg>