<svg id="Componente_226_3" data-name="Componente 226 – 3" xmlns="http://www.w3.org/2000/svg" width="157.559" height="157.559" viewBox="0 0 157.559 157.559">
  <g id="Grupo_608" data-name="Grupo 608" transform="translate(-1067 -45.271)">
    <path id="Trazado_2569" data-name="Trazado 2569" d="M0,0H157.559V157.559H0Z" transform="translate(1067 45.271)" fill="#70c2ff" opacity="0"/>
  </g>
  <g id="Elipse_461" data-name="Elipse 461" transform="translate(58.779 42.671)" fill="none" stroke="#3b3b3b" stroke-width="7">
    <circle cx="20" cy="20" r="20" stroke="none"/>
    <circle cx="20" cy="20" r="16.5" fill="none"/>
  </g>
  <g id="Trazado_2621" data-name="Trazado 2621" transform="translate(32.543 20.432)" fill="none">
    <path d="M46.414,0C72.048,0,92.829,16.774,92.829,37.466c0,6.044-1.092,16.917-5.293,23.358C83.824,68.253,51.874,114.9,46.414,114.9c-6.21,0-35.493-40.25-44.081-63.061C.95,48.164,0,39.643,0,37.466,0,16.774,20.78,0,46.414,0Z" stroke="none"/>
    <path d="M 46.4144287109375 10 C 26.33545684814453 10 10 22.32099914550781 9.999931335449219 37.44752502441406 C 10.02587890625 39.365478515625 10.94455718994141 46.32797241210938 11.69187927246094 48.31222534179688 C 18.06770324707031 65.24605560302734 36.85790634155273 92.21194458007812 46.05385589599609 102.1899871826172 C 55.63145446777344 91.1912841796875 75.65679931640625 62.22568130493164 78.59049987792969 56.35382461547852 L 78.84683227539062 55.84080123901367 L 79.16012573242188 55.36042404174805 C 81.56867980957031 51.66744995117188 82.828857421875 43.56282806396484 82.828857421875 37.46555328369141 C 82.828857421875 22.32099914550781 66.493408203125 10 46.4144287109375 10 M 46.4144287109375 0 C 72.04840087890625 0 92.828857421875 16.77390289306641 92.828857421875 37.46555328369141 C 92.828857421875 43.51002502441406 91.73657989501953 54.3828239440918 87.53612518310547 60.82324981689453 C 83.82430267333984 68.25254821777344 51.87445449829102 114.8964996337891 46.4144287109375 114.8964996337891 C 40.20455551147461 114.8964996337891 10.92177581787109 74.64649963378906 2.333251953125 51.83587646484375 C 0.95025634765625 48.16390228271484 0 39.64337158203125 0 37.46555328369141 C 0 16.77390289306641 20.78045654296875 0 46.4144287109375 0 Z" stroke="none" fill="#3b3b3b"/>
  </g>
  <g id="Trazado_2627" data-name="Trazado 2627" transform="translate(84.622 139.328) rotate(180)" fill="#3b3b3b">
    <path d="M -0.2417757362127304 10.57055473327637 L 6.002504825592041 2.313700199127197 L 11.72167682647705 9.339605331420898 L -0.2417757362127304 10.57055473327637 Z" stroke="none"/>
    <path d="M 6.016977310180664 3.123498916625977 L 0.8502082824707031 9.95555305480957 L 10.7492504119873 8.937015533447266 L 6.016977310180664 3.123498916625977 M 5.988035678863525 1.50390625 L 12.69409561157227 9.742186546325684 L -1.333744049072266 11.185546875 L 5.988035678863525 1.50390625 Z" stroke="none" fill="#3b3b3b"/>
  </g>
</svg>
