<svg xmlns="http://www.w3.org/2000/svg" width="31.211" height="31.211" viewBox="0 0 31.211 31.211">
  <g id="Grupo_610" data-name="Grupo 610" transform="translate(-793.271 -160.073)">
    <path id="Trazado_2557" data-name="Trazado 2557" d="M0,0H31.211V31.211H0Z" transform="translate(793.271 160.073)" fill="#70c2ff" opacity="0"/>
    <g id="Trazado_2623" data-name="Trazado 2623" transform="translate(808.903 165) rotate(49)" fill="none">
      <path d="M.367.319,12.006-1.92l-.6,11.838L-.265,12.2Z" stroke="none"/>
      <path d="M 9.66774845123291 0.7703828811645508 L 2.472545623779297 2.15439510345459 L 2.082093238830566 9.496677398681641 L 9.298580169677734 8.088178634643555 L 9.66774845123291 0.7703828811645508 M 12.00626277923584 -1.919769287109375 L 11.40908336639404 9.917770385742188 L -0.2645769119262695 12.19621086120605 L 0.3670330047607422 0.3190603256225586 L 12.00626277923584 -1.919769287109375 Z" stroke="none" fill="#3b3b3b"/>
    </g>
    <path id="Trazado_2624" data-name="Trazado 2624" d="M.194.752l8.07,6.185L16.56.45" transform="translate(800.5 177.5)" fill="none" stroke="#3b3b3b" stroke-width="2.2"/>
    <g id="Trazado_2626" data-name="Trazado 2626" transform="matrix(-0.819, 0.574, -0.574, -0.819, 818.862, 177.959)" fill="#fff">
      <path d="M 0.5591418147087097 1.745903372764587 L 1.377320408821106 0.7485241889953613 L 2.044095277786255 1.59472668170929 L 0.5591418147087097 1.745903372764587 Z" stroke="none"/>
      <path d="M 1.385163545608521 -0.04939484596252441 L 3.000003576278687 1.999995112419128 L -0.5963563919067383 2.366125106811523 L 1.385163545608521 -0.04939484596252441 Z" stroke="none" fill="#3b3b3b"/>
    </g>
    <g id="Trazado_2625" data-name="Trazado 2625" transform="matrix(-0.819, -0.574, 0.574, -0.819, 801.349, 179.68)" fill="#fff">
      <path d="M 2.138610124588013 1.435986876487732 L 0.9136949181556702 1.392393231391907 L 1.409247398376465 0.5617871880531311 L 2.138610124588013 1.435986876487732 Z" stroke="none"/>
      <path d="M 1.341271281242371 -0.3001664876937866 L 3.239901304244995 1.975493550300598 L 0.05128121376037598 1.862013578414917 L 1.341271281242371 -0.3001664876937866 Z" stroke="none" fill="#3b3b3b"/>
    </g>
  </g>
</svg>
