<svg xmlns="http://www.w3.org/2000/svg" width="23" height="23" viewBox="0 0 23 23">
  <g id="Grupo_569" data-name="Grupo 569" transform="translate(-890 -64)">
    <path id="Trazado_2602" data-name="Trazado 2602" d="M0,0H23V23H0Z" transform="translate(890 64)" fill="#2196f3" opacity="0"/>
    <path id="Trazado_2512" data-name="Trazado 2512" d="M3.428,0,12.89.082c.566,0,1.991.565,1.991,1.461s-1.161,1.592-1.728,1.592l-9.724.111a6.8,6.8,0,0,1-1.72-.27c-.2-.065-.273-.188-.445-.275A2.043,2.043,0,0,1,0,1.125C0,.229,2.862,0,3.428,0Z" transform="translate(896.863 79.3) rotate(-52)" fill="#fff"/>
    <path id="Trazado_2513" data-name="Trazado 2513" d="M.57.633,3.174,0l.632.144c.147,0,.177.667.177.814L3.8,2.136c0,.147-.494.142-.641.142l-2.579,0a1.145,1.145,0,0,1-.314-.018A.431.431,0,0,1,0,1.939L.246.928A.348.348,0,0,1,.57.633Z" transform="matrix(0.927, 0.375, -0.375, 0.927, 895.179, 76.796)" fill="#fff"/>
    <path id="Trazado_2514" data-name="Trazado 2514" d="M.57,1.751l2.761.568.475-.079c.147,0,.177-.667.177-.814L4.172.1C4.172.028,4,0,3.818,0S3.453.036,3.38.036L.576.109A1.145,1.145,0,0,0,.262.127.431.431,0,0,0,0,.445l.246,1.01A.348.348,0,0,0,.57,1.751Z" transform="matrix(-0.559, -0.829, 0.829, -0.559, 899.942, 83.425)" fill="#fff"/>
    <path id="Trazado_2515" data-name="Trazado 2515" d="M.644,1.876,3.665,2.8,8.768,4.4A7.332,7.332,0,0,0,8.5,1.845a2.384,2.384,0,0,0-.465-.89C7.885.746,7.444.418,7.9.248,7.9.161.614,0,.614,0A1.115,1.115,0,0,0,.279.024.5.5,0,0,0,0,.4L.3,1.517A.4.4,0,0,0,.644,1.876Z" transform="matrix(-0.559, -0.829, 0.829, -0.559, 907.166, 82.185)" fill="#fff"/>
    <path id="Trazado_2516" data-name="Trazado 2516" d="M.563,2.519l2.642-.932L7.81.092c.019,0,.537-.161.542-.058.018.385-.721,1.548-.919,2.515-.071.346.17.863-.032,1.188-.131.21-.443.559-.047.73C7.354,4.555.537,4.4.537,4.4a.851.851,0,0,1-.293-.021A.5.5,0,0,1,0,4.007L.264,2.88A.379.379,0,0,1,.563,2.519Z" transform="translate(895.733 68.277) rotate(20)" fill="#fff"/>
  </g>
</svg>
