<svg width="878" height="878" viewBox="0 0 878 878" xmlns="http://www.w3.org/2000/svg" xmlns:xlink="http://www.w3.org/1999/xlink" overflow="hidden"><g id="Trazado_185" fill="#2196F3"><path d="M439 853C210.72 853 25 667.28 25 439 25 210.72 210.72 25 439 25 667.28 25 853 210.72 853 439 853 667.28 667.28 853 439 853Z"/><path d="M439 50C224.505 50 50 224.505 50 439 50 653.495 224.505 828 439 828 653.495 828 828 653.495 828 439 828 224.505 653.495 50 439 50M439 0C681.453 0 878 196.547 878 439 878 681.453 681.453 878 439 878 196.547 878 0 681.453 0 439 0 196.547 196.547 0 439 0Z" fill="#0D8FF6"/></g></svg>