<svg xmlns="http://www.w3.org/2000/svg" xmlns:xlink="http://www.w3.org/1999/xlink" width="526.108" height="461.123" viewBox="0 0 526.108 461.123"><defs><radialGradient id="a" cx="0.5" cy="0.5" r="0.39" gradientTransform="translate(3.819 8.1) scale(1.28)" gradientUnits="objectBoundingBox"><stop offset="0" stop-color="#972a74"/><stop offset="0.041" stop-color="#8a266a"/><stop offset="0.194" stop-color="#601a49"/><stop offset="0.35" stop-color="#3d112f"/><stop offset="0.507" stop-color="#22091a"/><stop offset="0.667" stop-color="#0f040b"/><stop offset="0.829" stop-color="#030102"/><stop offset="1"/></radialGradient><linearGradient id="b" x1="-0.203" y1="0.032" x2="0.701" y2="0.616" gradientUnits="objectBoundingBox"><stop offset="0" stop-color="#001341"/><stop offset="0.056" stop-color="#000d41"/><stop offset="0.258" stop-color="#010843"/><stop offset="0.357" stop-color="#081a4a"/><stop offset="0.434" stop-color="#132357"/><stop offset="0.47" stop-color="#311b61"/><stop offset="0.482" stop-color="#351f65"/><stop offset="0.495" stop-color="#2c3a72"/><stop offset="0.509" stop-color="#574188"/><stop offset="0.523" stop-color="#755fa6"/><stop offset="0.53" stop-color="#7077b8"/><stop offset="0.537" stop-color="#7d66ae"/><stop offset="0.562" stop-color="#45518c"/><stop offset="0.586" stop-color="#442e74"/><stop offset="0.608" stop-color="#351f66"/><stop offset="0.626" stop-color="#1b2061"/><stop offset="0.672" stop-color="#101554"/><stop offset="0.749" stop-color="#041846"/><stop offset="0.813" stop-color="#000941"/><stop offset="1" stop-color="#000041"/></linearGradient><radialGradient id="c" cx="1.249" cy="0.28" r="0.675" gradientTransform="translate(-1.006) scale(3.012 1)" gradientUnits="objectBoundingBox"><stop offset="0" stop-color="#1f4d71"/><stop offset="0.161" stop-color="#1d3c6b"/><stop offset="0.363" stop-color="#193b5c"/><stop offset="0.585" stop-color="#122842"/><stop offset="0.821" stop-color="#080d1f"/><stop offset="1"/></radialGradient><radialGradient id="d" cx="0.971" cy="0.218" r="0.377" gradientTransform="translate(-0.861) scale(2.722 1)" gradientUnits="objectBoundingBox"><stop offset="0" stop-color="#8ab4fc"/><stop offset="1" stop-color="#05224d"/></radialGradient><linearGradient id="e" x1="1.066" y1="0.565" x2="-1.768" y2="0.239" gradientUnits="objectBoundingBox"><stop offset="0" stop-color="#06275f"/><stop offset="0.187" stop-color="#06305f"/><stop offset="0.934" stop-color="#062a5f"/><stop offset="1" stop-color="#062a5f"/></linearGradient><linearGradient id="f" x1="1.128" y1="0.977" x2="-0.371" y2="-0.162" gradientUnits="objectBoundingBox"><stop offset="0" stop-color="#1b2e61"/><stop offset="0.203" stop-color="#0e2052"/><stop offset="0.495" stop-color="#001141"/><stop offset="1" stop-color="#00091f"/></linearGradient><linearGradient id="g" y1="0.5" x2="1" y2="0.5" gradientUnits="objectBoundingBox"><stop offset="0" stop-color="#1b1b61"/><stop offset="0.203" stop-color="#0e2052"/><stop offset="0.495" stop-color="#000941"/><stop offset="1" stop-color="#000b1f"/></linearGradient><linearGradient id="h" x1="1.3" y1="0.827" x2="-1.578" y2="-0.348" gradientUnits="objectBoundingBox"><stop offset="0" stop-color="#1492e6"/><stop offset="0.03" stop-color="#1492e6"/><stop offset="0.214" stop-color="#0069c4"/><stop offset="0.618" stop-color="#4c9be8"/><stop offset="1" stop-color="#2af6ff"/></linearGradient><linearGradient id="i" x1="-127.712" y1="491.022" x2="-124.064" y2="491.022" gradientUnits="objectBoundingBox"><stop offset="0" stop-color="#311b61"/><stop offset="0.203" stop-color="#290e52"/><stop offset="0.495" stop-color="#200041"/><stop offset="1" stop-color="#0f001f"/></linearGradient><linearGradient id="j" x1="1.698" y1="0.51" x2="-1.512" y2="0.484" gradientUnits="objectBoundingBox"><stop offset="0" stop-color="#06275f"/><stop offset="1" stop-color="#2759bd"/></linearGradient><radialGradient id="k" cx="0.091" cy="0.249" r="0.359" gradientTransform="translate(-2.352) scale(5.704 1)" gradientUnits="objectBoundingBox"><stop offset="0" stop-color="#1f3871"/><stop offset="0.161" stop-color="#1d3a6b"/><stop offset="0.363" stop-color="#192d5c"/><stop offset="0.585" stop-color="#122242"/><stop offset="0.821" stop-color="#080d1f"/><stop offset="1"/></radialGradient><linearGradient id="l" x1="-2.003" y1="0.678" x2="3.063" y2="0.294" gradientUnits="objectBoundingBox"><stop offset="0.035" stop-color="#138bbd"/><stop offset="0.226" stop-color="#169ac6"/><stop offset="0.595" stop-color="#1ec2df"/><stop offset="1" stop-color="#2af6ff"/></linearGradient><radialGradient id="m" cx="0.51" cy="0.525" r="0.426" gradientTransform="translate(-7.103 -0.487) scale(1.62 0.99)" gradientUnits="objectBoundingBox"><stop offset="0" stop-color="#c7c8c9"/><stop offset="1" stop-color="#fff"/></radialGradient><linearGradient id="n" x1="0.032" y1="0.101" x2="0.816" y2="0.977" gradientUnits="objectBoundingBox"><stop offset="0" stop-color="#194eab"/><stop offset="0.035" stop-color="#1967ab"/><stop offset="0.164" stop-color="#2473b0"/><stop offset="0.412" stop-color="#4396d6"/><stop offset="0.631" stop-color="#63a1ff"/><stop offset="0.874" stop-color="#489cdc"/><stop offset="1" stop-color="#1492e6"/></linearGradient><linearGradient id="o" x1="0.834" y1="0.889" x2="0.113" y2="0.011" gradientUnits="objectBoundingBox"><stop offset="0" stop-color="#1984ab"/><stop offset="0.035" stop-color="#1980ab"/><stop offset="0.164" stop-color="#2478b0"/><stop offset="0.412" stop-color="#43a4d6"/><stop offset="0.588" stop-color="#5dbff7"/><stop offset="0.631" stop-color="#63c6ff"/><stop offset="0.647" stop-color="#5ec3fd"/><stop offset="0.874" stop-color="#1492e6"/><stop offset="1" stop-color="#1492e6"/></linearGradient><linearGradient id="p" x1="-0.295" y1="0.788" x2="1.105" y2="0.153" gradientUnits="objectBoundingBox"><stop offset="0" stop-color="#196cab"/><stop offset="0.035" stop-color="#1979ab"/><stop offset="0.244" stop-color="#246fb0"/><stop offset="0.645" stop-color="#438dd6"/><stop offset="1" stop-color="#1492e6"/></linearGradient><radialGradient id="q" cx="0.673" cy="0.352" r="0.392" gradientTransform="translate(-0.538) scale(2.075 1)" gradientUnits="objectBoundingBox"><stop offset="0" stop-color="#fff"/><stop offset="1"/></radialGradient><radialGradient id="r" cx="0.479" cy="0.66" r="0.427" gradientTransform="translate(-0.237) scale(1.474 1)" xlink:href="#q"/><radialGradient id="s" cx="0.5" cy="0.5" r="0.359" gradientTransform="matrix(-32.056, -0.86, -54.025, 0.51, 86240.367, 2243.101)" xlink:href="#q"/><linearGradient id="t" y1="0.5" x2="1" y2="0.5" gradientUnits="objectBoundingBox"><stop offset="0" stop-color="#25054d"/><stop offset="1" stop-color="#1b2b69"/></linearGradient><linearGradient id="v" x1="470.247" y1="0.873" x2="469.498" y2="0.046" gradientUnits="objectBoundingBox"><stop offset="0" stop-color="#010002"/><stop offset="0.025" stop-color="#030005"/><stop offset="0.192" stop-color="#0f0318"/><stop offset="0.362" stop-color="#160524"/><stop offset="0.54" stop-color="#190628"/><stop offset="0.703" stop-color="#0b0212"/><stop offset="0.86" stop-color="#020004"/><stop offset="1"/></linearGradient><linearGradient id="w" x1="549.627" y1="0.5" x2="550.627" y2="0.5" gradientUnits="objectBoundingBox"><stop offset="0" stop-color="#100221"/><stop offset="1" stop-color="#10054d"/></linearGradient><radialGradient id="x" cx="0.5" cy="0.5" r="0.424" gradientTransform="matrix(-1.514, 0, 0, 1, 1651.722, 0)" xlink:href="#q"/><linearGradient id="y" x1="713.747" y1="0.5" x2="714.747" y2="0.5" gradientUnits="objectBoundingBox"><stop offset="0" stop-color="#bcbec0"/><stop offset="1" stop-color="#e6e7e8"/></linearGradient><linearGradient id="z" x1="713.683" x2="714.683" xlink:href="#y"/><linearGradient id="aa" x1="477.389" y1="0.873" x2="476.641" y2="0.046" xlink:href="#v"/><linearGradient id="ab" x1="557.987" x2="558.987" xlink:href="#w"/><radialGradient id="ac" cx="0.5" cy="0.5" r="0.424" gradientTransform="matrix(-1.514, 0, 0, 1, 1676.916, 0)" xlink:href="#q"/><linearGradient id="ad" x1="724.587" x2="725.587" xlink:href="#y"/><linearGradient id="ae" x1="724.525" x2="725.525" xlink:href="#y"/><radialGradient id="af" cx="0.758" cy="-0.007" r="1.476" gradientTransform="translate(0.198) scale(0.603 1)" gradientUnits="objectBoundingBox"><stop offset="0" stop-color="#5585e3"/><stop offset="0.5" stop-color="#1492e6"/><stop offset="0.902" stop-color="#0082d9"/><stop offset="0.951" stop-color="#125480"/><stop offset="1" stop-color="#1492e6"/></radialGradient><linearGradient id="ag" x1="0.356" y1="1.076" x2="0.585" y2="-0.001" gradientUnits="objectBoundingBox"><stop offset="0" stop-color="#1492e6"/><stop offset="0.621" stop-color="#2b98e1"/><stop offset="1" stop-color="#4c9de9"/></linearGradient><linearGradient id="ah" x1="0.347" y1="0.846" x2="0.745" y2="-0.021" gradientUnits="objectBoundingBox"><stop offset="0" stop-color="#0067ac"/><stop offset="0.621" stop-color="#2b9de9"/><stop offset="1" stop-color="#4c9de9"/></linearGradient><linearGradient id="ai" x1="0" y1="0.5" x2="1" y2="0.5" xlink:href="#v"/><linearGradient id="aj" y1="0.5" x2="1.585" y2="0.5" gradientUnits="objectBoundingBox"><stop offset="0" stop-color="#25054d"/><stop offset="0.692" stop-color="#1b2b69"/><stop offset="1" stop-color="#3746a3"/></linearGradient><linearGradient id="al" x1="1.565" y1="1.584" x2="0.255" y2="0.126" xlink:href="#aj"/><linearGradient id="am" y1="0.5" x2="1" y2="0.5" gradientUnits="objectBoundingBox"><stop offset="0" stop-color="#703ed1"/><stop offset="0.621" stop-color="#5a77df"/><stop offset="1" stop-color="#4c9de9"/></linearGradient><radialGradient id="an" cx="0.858" cy="-0.59" r="1.309" gradientTransform="translate(0.162) scale(0.676 1)" gradientUnits="objectBoundingBox"><stop offset="0" stop-color="#5585e3"/><stop offset="0.5" stop-color="#3e65d1"/><stop offset="0.902" stop-color="#182d97"/><stop offset="0.933" stop-color="#10188a"/><stop offset="1" stop-color="#10288a"/></radialGradient><radialGradient id="ap" cx="0.666" cy="0.643" r="0.57" gradientTransform="translate(0.316) scale(0.367 1)" gradientUnits="objectBoundingBox"><stop offset="0" stop-color="#6382ff"/><stop offset="1" stop-color="#1979ab"/></radialGradient><radialGradient id="aq" cx="0.666" cy="0.643" r="0.644" gradientTransform="translate(0.315) scale(0.371 1)" gradientUnits="objectBoundingBox"><stop offset="0" stop-color="#63b1ff"/><stop offset="1" stop-color="#1962ab"/></radialGradient><radialGradient id="ar" cx="0.666" cy="0.643" r="0.719" gradientTransform="translate(0.313) scale(0.374 1)" gradientUnits="objectBoundingBox"><stop offset="0" stop-color="#63a7ff"/><stop offset="1" stop-color="#195dab"/></radialGradient><radialGradient id="as" cx="0.666" cy="0.643" r="0.802" gradientTransform="translate(0.314) scale(0.372 1)" gradientUnits="objectBoundingBox"><stop offset="0" stop-color="#63a1ff"/><stop offset="1" stop-color="#197eab"/></radialGradient><radialGradient id="at" cx="0.666" cy="0.643" r="0.895" gradientTransform="translate(0.317) scale(0.366 1)" gradientUnits="objectBoundingBox"><stop offset="0" stop-color="#63b6ff"/><stop offset="1" stop-color="#1953ab"/></radialGradient><radialGradient id="au" cx="0.666" cy="0.643" r="0.992" gradientTransform="translate(0.321) scale(0.359 1)" gradientUnits="objectBoundingBox"><stop offset="0" stop-color="#63a7ff"/><stop offset="1" stop-color="#197eab"/></radialGradient><radialGradient id="av" cx="0.666" cy="0.643" r="1.093" gradientTransform="translate(0.324) scale(0.352 1)" gradientUnits="objectBoundingBox"><stop offset="0" stop-color="#639cff"/><stop offset="1" stop-color="#194fab"/></radialGradient><radialGradient id="aw" cx="0.666" cy="0.643" r="1.202" gradientTransform="translate(0.328) scale(0.343 1)" gradientUnits="objectBoundingBox"><stop offset="0" stop-color="#63acff"/><stop offset="1" stop-color="#1979ab"/></radialGradient><radialGradient id="ax" cx="0.666" cy="0.643" r="1.319" gradientTransform="translate(0.333) scale(0.334 1)" gradientUnits="objectBoundingBox"><stop offset="0" stop-color="#63b6ff"/><stop offset="1" stop-color="#1962ab"/></radialGradient><radialGradient id="ay" cx="0.666" cy="0.643" r="1.441" gradientTransform="translate(0.338) scale(0.325 1)" gradientUnits="objectBoundingBox"><stop offset="0" stop-color="#63acff"/><stop offset="1" stop-color="#194fab"/></radialGradient><radialGradient id="az" cx="0.666" cy="0.643" r="1.564" gradientTransform="translate(0.341) scale(0.317 1)" gradientUnits="objectBoundingBox"><stop offset="0" stop-color="#6397ff"/><stop offset="1" stop-color="#1953ab"/></radialGradient><radialGradient id="ba" cx="0.666" cy="0.643" r="1.693" gradientTransform="translate(0.345) scale(0.309 1)" gradientUnits="objectBoundingBox"><stop offset="0" stop-color="#63bbff"/><stop offset="1" stop-color="#195dab"/></radialGradient><radialGradient id="bc" cx="-0.123" cy="0.288" r="0.545" gradientTransform="translate(-0.132) scale(1.265 1)" gradientUnits="objectBoundingBox"><stop offset="0" stop-color="#6397ff"/><stop offset="1" stop-color="#1945ab"/></radialGradient><radialGradient id="bd" cx="-0.112" cy="0.284" r="0.565" gradientTransform="translate(-0.123) scale(1.246 1)" gradientUnits="objectBoundingBox"><stop offset="0" stop-color="#6397ff"/><stop offset="1" stop-color="#194fab"/></radialGradient><radialGradient id="be" cx="-0.102" cy="0.28" r="0.586" gradientTransform="translate(-0.113) scale(1.227 1)" gradientUnits="objectBoundingBox"><stop offset="0" stop-color="#6397ff"/><stop offset="1" stop-color="#194aab"/></radialGradient><radialGradient id="bf" cx="-0.091" cy="0.275" r="0.607" gradientTransform="translate(-0.103) scale(1.206 1)" gradientUnits="objectBoundingBox"><stop offset="0" stop-color="#6363ff"/><stop offset="1" stop-color="#1953ab"/></radialGradient><radialGradient id="bg" cx="-0.081" cy="0.271" r="0.629" gradientTransform="translate(-0.092) scale(1.184 1)" gradientUnits="objectBoundingBox"><stop offset="0" stop-color="#6387ff"/><stop offset="1" stop-color="#194fab"/></radialGradient><radialGradient id="bh" cx="-0.071" cy="0.267" r="0.653" gradientTransform="translate(-0.08) scale(1.161 1)" gradientUnits="objectBoundingBox"><stop offset="0" stop-color="#63a7ff"/><stop offset="1" stop-color="#194fab"/></radialGradient><radialGradient id="bi" cx="-0.06" cy="0.263" r="0.677" gradientTransform="translate(-0.067) scale(1.135 1)" xlink:href="#ay"/><radialGradient id="bj" cx="-0.05" cy="0.258" r="0.703" gradientTransform="translate(-0.054) scale(1.107 1)" gradientUnits="objectBoundingBox"><stop offset="0" stop-color="#63a1ff"/><stop offset="1" stop-color="#194fab"/></radialGradient><radialGradient id="bk" cx="-0.039" cy="0.254" r="0.73" gradientTransform="translate(-0.039) scale(1.078 1)" xlink:href="#az"/><radialGradient id="bl" cx="-0.029" cy="0.25" r="0.76" gradientTransform="translate(-0.022) scale(1.045 1)" gradientUnits="objectBoundingBox"><stop offset="0" stop-color="#639cff"/><stop offset="1" stop-color="#1958ab"/></radialGradient><radialGradient id="bm" cx="-0.018" cy="0.246" r="0.792" gradientTransform="translate(-0.005) scale(1.01 1)" gradientUnits="objectBoundingBox"><stop offset="0" stop-color="#63acff"/><stop offset="1" stop-color="#1953ab"/></radialGradient><radialGradient id="bn" cx="-0.008" cy="0.241" r="0.828" gradientTransform="translate(0.015) scale(0.971 1)" gradientUnits="objectBoundingBox"><stop offset="0" stop-color="#63b1ff"/><stop offset="1" stop-color="#195dab"/></radialGradient><radialGradient id="bo" cx="0.515" cy="-0.448" r="1.554" gradientTransform="translate(0.334) scale(0.333 1)" gradientUnits="objectBoundingBox"><stop offset="0" stop-color="#5585e3"/><stop offset="0.5" stop-color="#1492e6"/><stop offset="0.902" stop-color="#1492e6"/><stop offset="0.954" stop-color="#0c79c2"/><stop offset="1" stop-color="#005690"/></radialGradient><linearGradient id="bp" x1="0.231" y1="1.231" x2="0.589" y2="0.258" gradientUnits="objectBoundingBox"><stop offset="0" stop-color="#fff"/><stop offset="1" stop-color="#8b949e"/></linearGradient><linearGradient id="br" y1="0.5" x2="1" y2="0.5" gradientUnits="objectBoundingBox"><stop offset="0" stop-color="#3e79d1"/><stop offset="0.621" stop-color="#5a82df"/><stop offset="1" stop-color="#4c9de9"/></linearGradient><linearGradient id="bs" x1="0" x2="1" xlink:href="#w"/><linearGradient id="bw" x1="0.243" y1="-0.426" x2="0.503" y2="0.51" xlink:href="#am"/><linearGradient id="bx" x1="0.608" y1="1.572" x2="0.46" y2="-0.246" xlink:href="#aj"/><linearGradient id="by" x1="0.596" y1="1.395" x2="0.374" y2="-0.258" xlink:href="#aj"/><linearGradient id="ca" x1="1.436" y1="0.775" x2="0.412" y2="0.473" xlink:href="#bp"/><linearGradient id="cb" x1="-0.203" y1="0.364" x2="3.547" y2="1.119" xlink:href="#bp"/><linearGradient id="cc" x1="-0.172" y1="0.346" x2="3.484" y2="0.943" xlink:href="#bp"/><linearGradient id="cd" x1="0.301" y1="1.004" x2="1.378" y2="-0.824" gradientUnits="objectBoundingBox"><stop offset="0" stop-color="#00499d"/><stop offset="0.697" stop-color="#004db2"/><stop offset="1" stop-color="#006eff"/></linearGradient><linearGradient id="ce" x1="0.137" y1="1.093" x2="1.191" y2="-0.713" gradientUnits="objectBoundingBox"><stop offset="0" stop-color="#006eff"/><stop offset="0.697" stop-color="#1b3269"/><stop offset="1" stop-color="#377ca3"/></linearGradient><linearGradient id="cf" x1="0.526" y1="0.615" x2="0.055" y2="0.119" gradientUnits="objectBoundingBox"><stop offset="0"/><stop offset="0.697" stop-color="#1b2b69"/><stop offset="1" stop-color="#3746a3"/></linearGradient><linearGradient id="cg" x1="0.518" y1="0.696" x2="0.217" y2="0.02" xlink:href="#cf"/><linearGradient id="ch" x1="-0.424" y1="-0.179" x2="1.042" y2="0.848" gradientUnits="objectBoundingBox"><stop offset="0" stop-color="#696969"/><stop offset="0.242" stop-color="#9c9c9c"/><stop offset="0.48" stop-color="#c6c6c6"/><stop offset="0.692" stop-color="#e5e5e5"/><stop offset="0.873" stop-color="#f8f8f8"/><stop offset="1" stop-color="#fff"/></linearGradient><radialGradient id="ci" cx="0.04" cy="0.313" r="1.144" gradientTransform="translate(-0.085) scale(1.171 1)" gradientUnits="objectBoundingBox"><stop offset="0" stop-color="#5585e3"/><stop offset="0.5" stop-color="#1492e6"/><stop offset="0.902" stop-color="#005b98"/><stop offset="0.937" stop-color="#1492e6"/><stop offset="1" stop-color="#1492e6"/></radialGradient><linearGradient id="cj" x1="1.049" y1="0.716" x2="-0.147" y2="0.246" xlink:href="#cf"/><linearGradient id="ck" x1="0.079" y1="-6.358" x2="0.722" y2="3.385" gradientUnits="objectBoundingBox"><stop offset="0"/><stop offset="0.697" stop-color="#1b3d69"/><stop offset="1" stop-color="#004cff"/></linearGradient><linearGradient id="cm" x1="0.032" y1="0.101" x2="0.816" y2="0.977" gradientUnits="objectBoundingBox"><stop offset="0" stop-color="#195dab"/><stop offset="0.035" stop-color="#196cab"/><stop offset="0.164" stop-color="#246fb0"/><stop offset="0.412" stop-color="#4388d6"/><stop offset="0.631" stop-color="#63b1ff"/><stop offset="0.874" stop-color="#489cdc"/><stop offset="1" stop-color="#489cdc"/></linearGradient><linearGradient id="cn" x1="0.834" y1="0.889" x2="0.113" y2="0.011" gradientUnits="objectBoundingBox"><stop offset="0" stop-color="#1976ab"/><stop offset="0.035" stop-color="#1967ab"/><stop offset="0.164" stop-color="#2487b0"/><stop offset="0.412" stop-color="#43a5d6"/><stop offset="0.631" stop-color="#63b1ff"/><stop offset="0.874" stop-color="#48a1dc"/><stop offset="1" stop-color="#4897dc"/></linearGradient><linearGradient id="co" x1="-0.295" y1="0.788" x2="1.105" y2="0.153" gradientUnits="objectBoundingBox"><stop offset="0" stop-color="#196cab"/><stop offset="0.035" stop-color="#1976ab"/><stop offset="0.244" stop-color="#2473b0"/><stop offset="0.645" stop-color="#4391d6"/><stop offset="1" stop-color="#63bcff"/></linearGradient><radialGradient id="cr" cx="0.5" cy="0.5" r="0.41" gradientTransform="translate(7.026) scale(1.701 1)" xlink:href="#q"/><radialGradient id="cs" cx="0.5" cy="0.5" r="0.411" gradientTransform="translate(9.862) scale(1.688 1)" xlink:href="#q"/><radialGradient id="ct" cx="0.5" cy="0.5" r="0.41" gradientTransform="translate(5.447) scale(1.706 1)" xlink:href="#q"/><linearGradient id="cu" x1="0.007" y1="-0.586" x2="0.621" y2="0.777" gradientUnits="objectBoundingBox"><stop offset="0.01" stop-color="#9f19ab"/><stop offset="0.429" stop-color="#5f27bd"/><stop offset="0.904" stop-color="#3d065f"/></linearGradient><linearGradient id="cv" x1="0.007" y1="-0.587" x2="0.622" y2="0.778" gradientUnits="objectBoundingBox"><stop offset="0" stop-color="#193bab"/><stop offset="0.01" stop-color="#193bab"/><stop offset="0.429" stop-color="#274abd"/><stop offset="0.904" stop-color="#061b5f"/><stop offset="1" stop-color="#061b5f"/></linearGradient><linearGradient id="cw" x1="0.008" y1="-0.588" x2="0.622" y2="0.778" gradientUnits="objectBoundingBox"><stop offset="0" stop-color="#194aab"/><stop offset="0.01" stop-color="#1936ab"/><stop offset="0.429" stop-color="#274abd"/><stop offset="0.904" stop-color="#061e5f"/><stop offset="1" stop-color="#06185f"/></linearGradient><linearGradient id="cx" x1="0.009" y1="-0.59" x2="0.622" y2="0.779" gradientUnits="objectBoundingBox"><stop offset="0" stop-color="#194aab"/><stop offset="0.01" stop-color="#1945ab"/><stop offset="0.429" stop-color="#274abd"/><stop offset="0.904" stop-color="#06215f"/><stop offset="1" stop-color="#06245f"/></linearGradient><linearGradient id="cy" x1="0.01" y1="-0.591" x2="0.622" y2="0.779" gradientUnits="objectBoundingBox"><stop offset="0" stop-color="#194aab"/><stop offset="0.01" stop-color="#1945ab"/><stop offset="0.429" stop-color="#2763bd"/><stop offset="0.904" stop-color="#061b5f"/><stop offset="1" stop-color="#061e5f"/></linearGradient><linearGradient id="cz" x1="0.011" y1="-0.592" x2="0.622" y2="0.78" gradientUnits="objectBoundingBox"><stop offset="0" stop-color="#1945ab"/><stop offset="0.01" stop-color="#194aab"/><stop offset="0.429" stop-color="#274fbd"/><stop offset="0.904" stop-color="#06305f"/><stop offset="1" stop-color="#061e5f"/></linearGradient><linearGradient id="da" x1="0.011" y1="-0.594" x2="0.623" y2="0.781" gradientUnits="objectBoundingBox"><stop offset="0" stop-color="#1945ab"/><stop offset="0.01" stop-color="#194fab"/><stop offset="0.429" stop-color="#276dbd"/><stop offset="0.904" stop-color="#06275f"/><stop offset="1" stop-color="#06215f"/></linearGradient><linearGradient id="db" x1="0.012" y1="-0.595" x2="0.623" y2="0.781" gradientUnits="objectBoundingBox"><stop offset="0" stop-color="#193bab"/><stop offset="0.01" stop-color="#1940ab"/><stop offset="0.429" stop-color="#2759bd"/><stop offset="0.904" stop-color="#06245f"/><stop offset="1" stop-color="#064d5f"/></linearGradient><linearGradient id="dc" x1="0.013" y1="-0.597" x2="0.623" y2="0.782" xlink:href="#cu"/><linearGradient id="dd" x1="0.014" y1="-0.599" x2="0.624" y2="0.782" xlink:href="#cu"/><linearGradient id="de" x1="0.015" y1="-0.6" x2="0.624" y2="0.783" xlink:href="#cu"/><linearGradient id="df" x1="0.017" y1="-0.602" x2="0.624" y2="0.784" xlink:href="#cu"/><linearGradient id="dg" x1="-0.322" y1="0.529" x2="1.072" y2="0.48" gradientUnits="objectBoundingBox"><stop offset="0" stop-color="#2095f2"/><stop offset="0.03" stop-color="#2095f2"/><stop offset="0.214" stop-color="#2095f2"/><stop offset="0.618" stop-color="#4c9be8"/><stop offset="1" stop-color="#2af6ff"/></linearGradient><radialGradient id="dh" cx="0.669" cy="0.659" r="0.897" gradientTransform="translate(0.17) scale(0.66 1)" gradientUnits="objectBoundingBox"><stop offset="0" stop-color="#4575fa"/><stop offset="0.205" stop-color="#3864cb"/><stop offset="0.668" stop-color="#182957"/><stop offset="1"/></radialGradient><linearGradient id="di" x1="-0.312" y1="-0.378" x2="0.7" y2="0.724" xlink:href="#cu"/><linearGradient id="dj" x1="-0.313" y1="-0.378" x2="0.701" y2="0.724" gradientUnits="objectBoundingBox"><stop offset="0" stop-color="#1945ab"/><stop offset="0.01" stop-color="#1931ab"/><stop offset="0.429" stop-color="#2754bd"/><stop offset="0.904" stop-color="#061b5f"/><stop offset="1" stop-color="#061b5f"/></linearGradient><linearGradient id="dk" x1="-0.314" y1="-0.378" x2="0.702" y2="0.725" gradientUnits="objectBoundingBox"><stop offset="0" stop-color="#1945ab"/><stop offset="0.01" stop-color="#1945ab"/><stop offset="0.429" stop-color="#274fbd"/><stop offset="0.904" stop-color="#061e5f"/><stop offset="1" stop-color="#06215f"/></linearGradient><linearGradient id="dl" x1="-0.315" y1="-0.378" x2="0.703" y2="0.725" gradientUnits="objectBoundingBox"><stop offset="0" stop-color="#193bab"/><stop offset="0.01" stop-color="#194aab"/><stop offset="0.429" stop-color="#275ebd"/><stop offset="0.904" stop-color="#061b5f"/><stop offset="1" stop-color="#06245f"/></linearGradient><linearGradient id="dm" x1="-0.316" y1="-0.378" x2="0.704" y2="0.725" gradientUnits="objectBoundingBox"><stop offset="0" stop-color="#193bab"/><stop offset="0.01" stop-color="#194aab"/><stop offset="0.429" stop-color="#274fbd"/><stop offset="0.904" stop-color="#06215f"/><stop offset="1" stop-color="#062a5f"/></linearGradient><linearGradient id="dn" x1="-0.317" y1="-0.378" x2="0.705" y2="0.725" gradientUnits="objectBoundingBox"><stop offset="0" stop-color="#193bab"/><stop offset="0.01" stop-color="#1945ab"/><stop offset="0.429" stop-color="#275ebd"/><stop offset="0.904" stop-color="#061b5f"/><stop offset="1" stop-color="#06215f"/></linearGradient><linearGradient id="do" x1="-0.318" y1="-0.378" x2="0.706" y2="0.725" gradientUnits="objectBoundingBox"><stop offset="0" stop-color="#193bab"/><stop offset="0.01" stop-color="#1945ab"/><stop offset="0.429" stop-color="#274abd"/><stop offset="0.904" stop-color="#06185f"/><stop offset="1" stop-color="#061e5f"/></linearGradient><linearGradient id="dp" x1="-0.319" y1="-0.378" x2="0.707" y2="0.725" gradientUnits="objectBoundingBox"><stop offset="0" stop-color="#1940ab"/><stop offset="0.01" stop-color="#1945ab"/><stop offset="0.429" stop-color="#2763bd"/><stop offset="0.904" stop-color="#06245f"/><stop offset="1" stop-color="#06275f"/></linearGradient><linearGradient id="dq" x1="-0.32" y1="-0.378" x2="0.708" y2="0.726" xlink:href="#cu"/><linearGradient id="dr" x1="-0.32" y1="-0.378" x2="0.709" y2="0.726" xlink:href="#cu"/><linearGradient id="ds" x1="-0.321" y1="-0.378" x2="0.71" y2="0.726" xlink:href="#cu"/><linearGradient id="dt" x1="-0.322" y1="-0.378" x2="0.712" y2="0.726" xlink:href="#cu"/><linearGradient id="du" x1="-0.604" y1="0.766" x2="1.234" y2="0.323" xlink:href="#dg"/><radialGradient id="dv" cx="0.5" cy="0.5" r="1.314" gradientTransform="translate(0.137) scale(0.725 1)" gradientUnits="objectBoundingBox"><stop offset="0" stop-color="#1f4071"/><stop offset="0.161" stop-color="#1d376b"/><stop offset="0.363" stop-color="#19365c"/><stop offset="0.585" stop-color="#122542"/><stop offset="0.821" stop-color="#080d1f"/><stop offset="1"/></radialGradient><linearGradient id="dw" x1="-0.086" y1="-0.498" x2="0.645" y2="0.755" gradientUnits="objectBoundingBox"><stop offset="0" stop-color="#193bab"/><stop offset="0.01" stop-color="#1940ab"/><stop offset="0.429" stop-color="#274abd"/><stop offset="0.904" stop-color="#06185f"/><stop offset="1" stop-color="#06215f"/></linearGradient><linearGradient id="dx" x1="-0.086" y1="-0.498" x2="0.646" y2="0.755" gradientUnits="objectBoundingBox"><stop offset="0" stop-color="#1940ab"/><stop offset="0.01" stop-color="#1945ab"/><stop offset="0.429" stop-color="#2759bd"/><stop offset="0.904" stop-color="#06215f"/><stop offset="1" stop-color="#061b5f"/></linearGradient><linearGradient id="dy" x1="-0.086" y1="-0.499" x2="0.646" y2="0.756" gradientUnits="objectBoundingBox"><stop offset="0" stop-color="#1936ab"/><stop offset="0.01" stop-color="#1940ab"/><stop offset="0.429" stop-color="#274fbd"/><stop offset="0.904" stop-color="#061e5f"/><stop offset="1" stop-color="#06215f"/></linearGradient><linearGradient id="dz" x1="-0.085" y1="-0.5" x2="0.646" y2="0.756" gradientUnits="objectBoundingBox"><stop offset="0" stop-color="#194aab"/><stop offset="0.01" stop-color="#1940ab"/><stop offset="0.429" stop-color="#2763bd"/><stop offset="0.904" stop-color="#062a5f"/><stop offset="1" stop-color="#06215f"/></linearGradient><linearGradient id="ea" x1="-0.085" y1="-0.5" x2="0.646" y2="0.756" gradientUnits="objectBoundingBox"><stop offset="0" stop-color="#193bab"/><stop offset="0.01" stop-color="#194aab"/><stop offset="0.429" stop-color="#275ebd"/><stop offset="0.904" stop-color="#06125f"/><stop offset="1" stop-color="#061e5f"/></linearGradient><linearGradient id="eb" x1="-0.084" y1="-0.501" x2="0.647" y2="0.757" gradientUnits="objectBoundingBox"><stop offset="0" stop-color="#9c9fa7"/><stop offset="0.059" stop-color="#6c6f77"/><stop offset="0.109" stop-color="#766d78"/><stop offset="0.429" stop-color="#5082e6"/><stop offset="0.904" stop-color="#2547a5"/><stop offset="1" stop-color="#6e6e6e"/></linearGradient><linearGradient id="ec" x1="-0.084" y1="-0.501" x2="0.647" y2="0.757" gradientUnits="objectBoundingBox"><stop offset="0" stop-color="#193bab"/><stop offset="0.01" stop-color="#1940ab"/><stop offset="0.429" stop-color="#2759bd"/><stop offset="0.904" stop-color="#06185f"/><stop offset="1" stop-color="#06185f"/></linearGradient><linearGradient id="ed" x1="-0.083" y1="-0.502" x2="0.648" y2="0.757" gradientUnits="objectBoundingBox"><stop offset="0" stop-color="#1940ab"/><stop offset="0.01" stop-color="#194aab"/><stop offset="0.429" stop-color="#2772bd"/><stop offset="0.904" stop-color="#061b5f"/><stop offset="1" stop-color="#06275f"/></linearGradient><linearGradient id="ee" x1="-0.083" y1="-0.503" x2="0.648" y2="0.758" gradientUnits="objectBoundingBox"><stop offset="0" stop-color="#1940ab"/><stop offset="0.01" stop-color="#1940ab"/><stop offset="0.429" stop-color="#274abd"/><stop offset="0.904" stop-color="#06275f"/><stop offset="1" stop-color="#061b5f"/></linearGradient><linearGradient id="ef" x1="-0.082" y1="-0.504" x2="0.648" y2="0.758" gradientUnits="objectBoundingBox"><stop offset="0" stop-color="#193bab"/><stop offset="0.01" stop-color="#1940ab"/><stop offset="0.429" stop-color="#274fbd"/><stop offset="0.904" stop-color="#06215f"/><stop offset="1" stop-color="#06245f"/></linearGradient><linearGradient id="eg" x1="-0.081" y1="-0.504" x2="0.649" y2="0.758" gradientUnits="objectBoundingBox"><stop offset="0" stop-color="#193bab"/><stop offset="0.01" stop-color="#1945ab"/><stop offset="0.429" stop-color="#2768bd"/><stop offset="0.904" stop-color="#061b5f"/><stop offset="1" stop-color="#06245f"/></linearGradient><linearGradient id="eh" x1="-0.081" y1="-0.505" x2="0.649" y2="0.759" gradientUnits="objectBoundingBox"><stop offset="0" stop-color="#1945ab"/><stop offset="0.01" stop-color="#1940ab"/><stop offset="0.429" stop-color="#2763bd"/><stop offset="0.904" stop-color="#06245f"/><stop offset="1" stop-color="#061b5f"/></linearGradient><linearGradient id="ei" x1="1.197" y1="1.019" x2="-0.155" y2="0.013" gradientUnits="objectBoundingBox"><stop offset="0" stop-color="#2095f2"/><stop offset="0.03" stop-color="#2095f2"/><stop offset="0.214" stop-color="#2095f2"/><stop offset="0.618" stop-color="#2095f2"/><stop offset="1" stop-color="#2af6ff"/></linearGradient><radialGradient id="ej" cx="0.5" cy="0.5" r="1.381" gradientTransform="translate(0.163) scale(0.674 1)" gradientUnits="objectBoundingBox"><stop offset="0" stop-color="#1f3d71"/><stop offset="0.161" stop-color="#1d3a6b"/><stop offset="0.363" stop-color="#192b5c"/><stop offset="0.585" stop-color="#121a42"/><stop offset="0.821" stop-color="#08121f"/><stop offset="1"/></radialGradient><radialGradient id="ek" cx="0.7" cy="0.429" r="1.368" gradientTransform="translate(-0.029) scale(1.058 1)" xlink:href="#q"/></defs><g transform="translate(-1166.038 -70.281)"><g transform="translate(217.205 -376.782)"><path d="M220.919-25.442,87.926,60.042,9.771,3.336,340.945-197.773l165.318,97.5L311.892,26.26l-172.16-97.6" transform="translate(953.5 838.459)" fill="none" stroke="#1492e6" stroke-width="16" opacity="0.41"/><g transform="translate(1031.027 522.521)"><g transform="translate(0 0)"><g transform="translate(208.297 247.505)" opacity="0.2"><path d="M521.006,397.239a17.051,17.051,0,0,1-8.519-2.052l-51.681-29.412-51.681-29.41a9.007,9.007,0,0,1-4.881-7.778,10.474,10.474,0,0,1,5.887-8.835l33.821-19.03a20.952,20.952,0,0,1,10.336-2.627,17.036,17.036,0,0,1,8.519,2.051l51.681,29.412,51.681,29.41a9,9,0,0,1,4.881,7.778,10.472,10.472,0,0,1-5.881,8.83l-33.821,19.03A20.951,20.951,0,0,1,521.006,397.239Z" transform="translate(-404.243 -298.092)" opacity="0"/><path d="M411.019,320.43l9.173-5.116c.373-.216,17.584-9.606,17.906-9.417l5.915-2.9a21.2,21.2,0,0,1,9.979-2.052,17.5,17.5,0,0,1,8.215,2.141l41.38,23.557,8.825,5.026,50.205,28.6a10.71,10.71,0,0,1,3.9,3.8,7.969,7.969,0,0,1,1.027,3.62,9.869,9.869,0,0,1-5.616,8.586l-9.173,5.116c-.373.216-17.584,9.606-17.906,9.417l-5.917,2.9a21.212,21.212,0,0,1-9.979,2.052,17.5,17.5,0,0,1-8.215-2.141l-41.38-23.571-8.825-5.026-50.205-28.6a10.713,10.713,0,0,1-3.9-3.8A7.964,7.964,0,0,1,405.4,329,9.866,9.866,0,0,1,411.019,320.43Z" transform="translate(-404.216 -298.036)" opacity="0.091"/><path d="M411.893,321.124l8.924-4.932c.748-.433,16.859-8.906,17.5-8.533l5.74-2.367a21.753,21.753,0,0,1,9.622-1.476,18.109,18.109,0,0,1,7.921,2.231l40.164,22.9,8.568,4.884,48.745,27.777a11.631,11.631,0,0,1,3.847,3.613,7.843,7.843,0,0,1,1.121,3.454,9.288,9.288,0,0,1-5.351,8.342l-8.924,4.932c-.748.431-16.859,8.906-17.5,8.533l-5.738,2.369a21.771,21.771,0,0,1-9.624,1.476,18.112,18.112,0,0,1-7.92-2.231l-40.164-22.9-8.565-4.884-48.729-27.784a11.631,11.631,0,0,1-3.847-3.615,7.84,7.84,0,0,1-1.121-3.454,9.288,9.288,0,0,1,5.333-8.335Z" transform="translate(-404.17 -297.995)" opacity="0.182"/><path d="M412.789,321.76l8.678-4.748c1.121-.647,16.131-8.208,17.1-7.649l5.563-1.842c2.134-1.232,6.553-.9,9.267-.9a18.942,18.942,0,0,1,7.624,2.321l38.949,22.23,8.307,4.741,47.244,26.976a12.824,12.824,0,0,1,3.8,3.428,7.742,7.742,0,0,1,1.218,3.272,8.715,8.715,0,0,1-5.089,8.1l-8.678,4.748c-1.119.647-16.131,8.208-17.1,7.649l-5.563,1.842c-2.134,1.232-6.555.9-9.267.9a18.963,18.963,0,0,1-7.626-2.321l-38.949-22.23-8.307-4.741-47.244-26.973a12.855,12.855,0,0,1-3.8-3.428,7.753,7.753,0,0,1-1.218-3.274,8.713,8.713,0,0,1,5.091-8.1Z" transform="translate(-404.152 -297.91)" opacity="0.273"/><path d="M413.678,322.429l8.432-4.564c1.494-.863,15.406-7.513,16.7-6.765l5.385-1.308c1.867-1.078,6.537-.325,8.911-.325a20.131,20.131,0,0,1,7.331,2.411l37.733,21.56,8.047,4.6L552,364.2a14.462,14.462,0,0,1,3.744,3.244,7.7,7.7,0,0,1,1.313,3.1,8.153,8.153,0,0,1-4.835,7.851l-8.432,4.563c-1.494.863-15.406,7.513-16.7,6.765l-5.388,1.308c-1.867,1.078-6.537.325-8.911.325a20.136,20.136,0,0,1-7.331-2.411l-37.733-21.56-8.047-4.6L413.9,336.624a14.431,14.431,0,0,1-3.744-3.244,7.7,7.7,0,0,1-1.312-3.1A8.151,8.151,0,0,1,413.678,322.429Z" transform="translate(-404.125 -297.853)" opacity="0.364"/><path d="M414.588,323.1l8.183-4.375c1.867-1.078,14.681-6.815,16.3-5.88l5.21-.778c1.612-.921,6.521.251,8.554.251a21.827,21.827,0,0,1,7.036,2.5l36.517,20.89,7.787,4.455,44.3,25.346a16.713,16.713,0,0,1,3.684,3.06,7.743,7.743,0,0,1,1.409,2.924c.483,2.784-1.151,5.632-4.559,7.6l-8.183,4.375c-1.867,1.078-14.68,6.815-16.3,5.881l-5.213.78c-1.6.921-6.521-.253-8.554-.253a21.823,21.823,0,0,1-7.036-2.5l-36.517-20.89-7.787-4.455-44.3-25.346a16.7,16.7,0,0,1-3.684-3.06,7.727,7.727,0,0,1-1.407-2.924C409.543,327.925,411.171,325.074,414.588,323.1Z" transform="translate(-404.118 -297.799)" opacity="0.455"/><path d="M415.479,323.783l7.937-4.195c2.242-1.294,13.955-6.118,15.887-5l5.035-.251c1.335-.769,6.5.829,8.2.829a24.28,24.28,0,0,1,6.74,2.59l35.3,20.223,7.527,4.31,42.826,24.533a19.985,19.985,0,0,1,3.64,2.876,7.867,7.867,0,0,1,1.5,2.751c.583,2.648-.942,5.425-4.294,7.368l-7.937,4.2c-2.242,1.294-13.955,6.118-15.887,5l-5.033.249c-1.335.771-6.5-.827-8.2-.827a24.274,24.274,0,0,1-6.739-2.59l-35.3-20.223-7.527-4.312-42.826-24.533a19.975,19.975,0,0,1-3.64-2.876,7.866,7.866,0,0,1-1.5-2.751C410.6,328.494,412.125,325.717,415.479,323.783Z" transform="translate(-404.094 -297.751)" opacity="0.545"/><path d="M416.378,324.47l7.688-4.013c2.616-1.51,13.23-5.42,15.493-4.112l4.858.281c1.068-.615,6.486,1.4,7.842,1.4a28.16,28.16,0,0,1,6.447,2.68l34.077,19.55,7.267,4.167L541.4,368.16a25,25,0,0,1,3.587,2.689,8.116,8.116,0,0,1,1.6,2.576c.691,2.514-.741,5.217-4.032,7.117l-7.69,4.013c-2.616,1.51-13.228,5.42-15.493,4.112l-4.858-.281c-1.066.617-6.486-1.4-7.842-1.4a28.165,28.165,0,0,1-6.447-2.68l-34.077-19.553-7.267-4.167-41.352-23.738a24.943,24.943,0,0,1-3.589-2.692,8.131,8.131,0,0,1-1.6-2.577C411.658,329.073,413.081,326.37,416.378,324.47Z" transform="translate(-404.071 -297.711)" opacity="0.636"/><path d="M417.264,325.163l7.442-3.829c2.993-1.724,12.5-4.722,15.09-3.223l4.683.81c.8-.461,6.468,1.98,7.488,1.98a34.781,34.781,0,0,1,6.15,2.763l32.87,18.88,7.006,4.025,39.879,22.907a22.907,22.907,0,0,1,3.537,2.507,5.337,5.337,0,0,1,1.692,2.4c.785,2.381-.541,5.008-3.767,6.871l-7.442,3.827c-2.993,1.727-12.5,4.722-15.09,3.223l-4.683-.81c-.8.461-6.47-1.978-7.488-1.978a34.785,34.785,0,0,1-6.15-2.763l-32.87-18.88-7.006-4.025-39.879-22.907a22.824,22.824,0,0,1-3.537-2.505,5.335,5.335,0,0,1-1.692-2.4C412.714,329.653,414.04,327.025,417.264,325.163Z" transform="translate(-404.048 -297.675)" opacity="0.727"/><path d="M418.154,325.859l7.2-3.645c3.362-1.941,11.777-4.025,14.69-2.344l4.506,1.34c.534-.306,6.447,2.553,7.138,2.553a48.305,48.305,0,0,1,5.855,2.86l31.654,18.212,6.749,3.882,38.4,22.1a32.593,32.593,0,0,1,3.484,2.321,5.215,5.215,0,0,1,1.787,2.229c.886,2.245-.343,4.8-3.5,6.627l-7.2,3.645c-3.364,1.941-11.777,4.025-14.69,2.344l-4.508-1.34c-.532.309-6.447-2.553-7.138-2.553a48.422,48.422,0,0,1-5.855-2.86l-31.654-18.213-6.749-3.882-38.4-22.1a32.208,32.208,0,0,1-3.484-2.321,5.2,5.2,0,0,1-1.775-2.231C413.766,330.241,415,327.685,418.154,325.859Z" transform="translate(-404.024 -297.645)" opacity="0.818"/><path d="M419.051,326.553,426,323.1c3.735-2.155,11.052-3.327,14.287-1.46l4.331,1.867c.267-.154,6.447,3.129,6.774,3.129.295,0,5.349,2.828,5.56,2.95l30.439,17.542,6.486,3.739L530.8,372.149c.163.094,3.357,1.994,3.433,2.137a5.122,5.122,0,0,1,1.884,2.054c.99,2.109-.143,4.593-3.24,6.38l-6.947,3.454c-3.737,2.158-11.052,3.327-14.289,1.46l-4.329-1.87c-.267.154-6.447-3.129-6.774-3.129-.295,0-5.349-2.827-5.56-2.949l-30.439-17.542-6.486-3.739-36.929-21.282c-.161-.092-3.357-1.994-3.433-2.137a5.13,5.13,0,0,1-1.884-2.056C414.821,330.822,415.954,328.342,419.051,326.553Z" transform="translate(-404.004 -297.61)" opacity="0.909"/><path d="M509.071,387.3l-45.062-26.018-45.061-26.018c-3.56-2.056-3.113-5.643,1-8.017l6.7-3.274a15.427,15.427,0,0,1,13.884-.576l45.062,26.018,45.062,26.018c3.56,2.056,3.113,5.643-1,8.017l-6.7,3.276a15.426,15.426,0,0,1-13.884.573Z" transform="translate(-403.981 -297.581)"/></g><ellipse cx="22.078" cy="28.27" rx="22.078" ry="28.27" transform="translate(276.561 82.869) rotate(-22.34)" fill="url(#a)"/><g transform="translate(211.024 30.995)"><path d="M509.235,385.987l-78.8-45.5c-8.89-5.132-16.1-18.9-16.1-30.754V99.879c0-6.028-4.955-7.368-1.952-9.525.115-.083,7.036-3.223,7.165-3.276a11.623,11.623,0,0,1,10.884.633l78.8,45.5c8.89,5.132,16.094,18.9,16.094,30.754V373.83c0,6.3-2.035,10.787-5.275,12.841-.191.122-8.519,4.087-8.749,4.158C508.448,391.787,513.131,388.241,509.235,385.987Z" transform="translate(-406.819 -86.019)" fill="url(#b)"/><path d="M508.139,133.411l-78.8-45.5c-4.2-2.422,74.448,46.95,74.448,46.95,8.89,5.132,16.1,18.9,16.1,30.752,0,0,4.356,214.712,4.356,208.415V164.165C524.235,152.314,517.031,138.543,508.139,133.411Z" transform="translate(-406.443 -85.981)" fill="url(#c)"/><path d="M503.183,388.742l-78.8-45.5c-8.89-5.132-16.094-18.9-16.094-30.754V102.625c0-11.853,7.207-17.3,16.094-12.169l78.8,45.5c8.89,5.132,16.094,18.9,16.094,30.752v209.87C519.277,388.426,512.07,393.874,503.183,388.742Z" transform="translate(-406.879 -85.965)" opacity="0.6" fill="url(#d)"/><path d="M501.81,389.486,423.006,344c-8.89-5.132-16.1-18.9-16.1-30.754V103.367c0-11.853,7.207-17.3,16.1-12.169l78.8,45.5c8.89,5.132,16.1,18.9,16.1,30.752V377.318C517.9,389.171,510.7,394.618,501.81,389.486Z" transform="translate(-406.909 -85.95)" fill="url(#e)"/><path d="M409.059,314.572V104.446c0-10.391,6.318-15.166,14.109-10.667l78.388,45.257c7.792,4.5,14.11,16.578,14.11,26.96V376.122c0,10.389-6.318,15.164-14.11,10.667l-78.388-45.257C415.37,337.03,409.059,324.961,409.059,314.572Z" transform="translate(-406.865 -85.891)" fill="url(#f)"/><path d="M412.13,315.762V106.7c0-8.7,5.3-12.694,11.809-8.929l76.716,44.283c6.523,3.767,11.809,13.868,11.809,22.564V373.68c0,8.7-5.3,12.694-11.809,8.929l-76.716-44.29C417.419,334.561,412.13,324.458,412.13,315.762Z" transform="translate(-406.8 -85.803)" fill="url(#g)"/><path d="M424.8,100.036c-6.148-3.548-11.132-.707-11.132,6.346V317.795a24.524,24.524,0,0,0,11.132,19.2l74.939,43.266c6.148,3.55,11.13.707,11.13-6.346V162.5a24.528,24.528,0,0,0-11.13-19.2Z" transform="translate(-406.769 -85.757)" fill="url(#h)"/><path d="M517.7,213.8V199.636a5.89,5.89,0,0,1,2.461-4.7h0c1.359-.785,2.459.048,2.459,1.858v14.167a5.894,5.894,0,0,1-2.459,4.7h0C518.8,216.446,517.7,215.615,517.7,213.8Z" transform="translate(-404.591 -83.744)" fill="url(#i)"/><path d="M519.173,215.418c-.691,0-.951-.875-.951-1.623V199.628a5.4,5.4,0,0,1,2.194-4.239,1.472,1.472,0,0,1,.709-.23c.7,0,.951.875.951,1.623v14.167a5.4,5.4,0,0,1-2.194,4.239A1.484,1.484,0,0,1,519.173,215.418Z" transform="translate(-404.579 -83.736)" fill="url(#j)"/><path d="M518.95,214.154V199.987a5.4,5.4,0,0,1,2.194-4.239,1.54,1.54,0,0,1,.631-.209.755.755,0,0,0-.647-.378,1.477,1.477,0,0,0-.711.23,5.4,5.4,0,0,0-2.194,4.239V213.8c0,.748.251,1.612.953,1.612a.17.17,0,0,0,.081-.014A2.352,2.352,0,0,1,518.95,214.154Z" transform="translate(-404.579 -83.734)" fill="url(#k)"/><path d="M499.735,143.3,424.8,100.036c-6.148-3.548-11.13-.707-11.13,6.346V317.795a24.528,24.528,0,0,0,11.13,19.2l74.938,43.266c6.148,3.548,11.13.707,11.13-6.346V162.5A24.53,24.53,0,0,0,499.735,143.3ZM509.9,373.915a8.263,8.263,0,0,1-1.49,5.2,4.545,4.545,0,0,1-3.684,1.7h0a9.29,9.29,0,0,1-4.511-1.4l-74.939-43.266a23.485,23.485,0,0,1-10.647-18.36V106.384c0-4.26,1.98-6.907,5.167-6.907a9.3,9.3,0,0,1,4.513,1.4l74.939,43.266a23.486,23.486,0,0,1,10.647,18.36Z" transform="translate(-406.768 -85.757)" fill="#bcbec0"/></g><g transform="translate(217.922 62.264)" opacity="0.8"><path d="M452.011,116.646l17.015,9.189-20.759,36.414V215l-16,20.759-5.443,25.38-12.592,17.356V253.45l8.167-27.224,12.252-14.966,5.445-21.441-2.722-28.247Z" transform="translate(-413.655 -116.646)" fill="url(#l)"/><path d="M498.42,185l12.447,7.186v-2.7L498.42,182.3V142.12l-2.339-1.352v40.178l-7.734-4.464L481.1,157.667l-67.43-38.933v2.7l14.736,8.519v41.168L413.668,162.6v2.7l14.736,8.519V197.9l-14.736-8.533v2.7l17.08,9.889V175.165l50.489,29.149V246.8l-6.279-3.624-21.731,6.557-39.561-22.841v2.7l26.63,15.376V285.21l-26.63,11.855v2.565l27.542-12.258,24.372,41.62-23.025,17.835,2.187,1.262,39-30.213,12.339,7.064v51.4h2.339V326.279l12.254,7.018.191-.334v-2.25l-12.447-7.138V289.1l12.447,7.181v-2.7L498.415,286.4V259.427l12.447,7.186v-2.7l-12.447-7.186V214.238l12.447,7.186v-2.7l-12.447-7.186Zm-55.782,61.329,9.859,5.692.437.253,21.731-6.557,6.571,3.794v26.978l-9.288-5.36-29.31,13.048Zm53.445,75.917-12.53-7.175-16.1,12.475-24.086-41.134,28.452-12.664,9.426,5.438v.071h.127l14.72,8.491Zm0-37.2-12.507-7.216V250.854l12.507,7.221Zm0-29.672-12.507-7.221V205.666l12.507,7.221Zm0-45.191-65.337-37.719V131.3l48.467,27.982,7.248,18.816,9.62,5.554Z" transform="translate(-413.666 -116.602)" fill="#6ebaf4"/></g><path d="M498.049,233.822l.048-5.367-.152-.085,1.11-75.717h-4.284l-.756,73.551-37.922-20.927v42.672l12.558,23.462v89.336l4.679,2.993v-93.5l-12.558-23.462V213.157Z" transform="translate(-194.855 -53.093)" fill="#fefe05"/><path d="M476.278,331.826c0,3.778-2.669,5.3-5.961,3.4a13.124,13.124,0,0,1-5.959-10.278c0-3.778,2.669-5.3,5.959-3.4A13.124,13.124,0,0,1,476.278,331.826Z" transform="translate(-194.681 -50.108)" fill="#fff"/><g transform="translate(265.59 265.51)"><path d="M474.681,341.253a9.158,9.158,0,0,1-4.536-1.381,21.607,21.607,0,0,1-9.79-16.889c0-4.409,2.263-7.257,5.756-7.257a9.149,9.149,0,0,1,4.536,1.381A21.6,21.6,0,0,1,480.437,334C480.446,338.408,478.188,341.253,474.681,341.253Zm-8.56-24.5c-2.926,0-4.745,2.39-4.745,6.237a20.492,20.492,0,0,0,9.281,16,8.273,8.273,0,0,0,4.025,1.239c2.927,0,4.745-2.388,4.745-6.235a20.475,20.475,0,0,0-9.281-16A8.274,8.274,0,0,0,466.12,316.751Z" transform="translate(-460.355 -315.726)" fill="#fff"/></g><g transform="translate(270.279 -10.657)"><path d="M529.676,167.883c0,21.1-28.174,43.292-28.174,43.292s-33.436-61.383-33.436-82.487S483.031,99.12,501.5,109.781,529.676,146.779,529.676,167.883Z" transform="translate(-464.277 -105.173)" fill="url(#m)"/><path d="M500.536,160.56a31.514,31.514,0,0,1-14.3-24.671,11.123,11.123,0,0,1,2.719-8.031c-.274.025-2.841,1.163-3.1,1.213-3.813.746-6.325,4.283-6.325,9.954a31.516,31.516,0,0,0,14.3,24.671c4.322,2.5,8.188,2.519,10.81.55.272-.2,2.827-1.529,3.072-1.775a12.321,12.321,0,0,1-7.172-1.911Z" transform="translate(-464.038 -104.699)" fill="url(#n)"/><path d="M502.218,109.453c-8.791-5.065-16.668-5.227-22.12-1.425l-6.318,2.947.776,4.055a28.551,28.551,0,0,0-2.128,11.406c0,12.931,6.907,33.328,14.08,51l7.469,39.006,8.238-4.119S532,187.675,532,160.833C532,141.955,518.669,118.951,502.218,109.453Zm-8.238,54.711a31.514,31.514,0,0,1-14.3-24.671c0-9.065,6.4-12.717,14.3-8.155a31.518,31.518,0,0,1,14.31,24.673C508.289,165.076,501.879,168.733,493.979,164.164Z" transform="translate(-464.192 -105.165)" fill="url(#o)"/><path d="M494.143,113.49c-16.451-9.5-29.787-1.895-29.787,16.983,0,26.842,29.787,85.882,29.787,85.882s29.787-24.655,29.787-51.5C523.932,145.992,510.594,122.986,494.143,113.49Zm0,50.592a31.514,31.514,0,0,1-14.3-24.671c0-9.065,6.4-12.717,14.3-8.155a31.519,31.519,0,0,1,14.3,24.671c0,9.067-6.4,12.719-14.3,8.158Z" transform="translate(-464.356 -105.083)" fill="url(#p)"/><path d="M495.828,112.482c-8.593-4.962-16.313-5.22-21.749-1.678,5.273-2.383,12.219-1.7,19.861,2.71,16.451,9.5,29.787,32.5,29.787,51.38,0,23-21.855,44.38-28.115,50.03l.216.435s29.787-24.653,29.787-51.5C525.615,144.993,512.279,121.968,495.828,112.482Z" transform="translate(-464.153 -105.104)" fill="url(#q)"/><path d="M494.683,163.408a31.516,31.516,0,0,1-14.3-24.678c0-4.437,1.543-7.559,4.041-9.069-3.092,1.223-5.065,4.564-5.065,9.581a31.516,31.516,0,0,0,14.3,24.671c4.032,2.328,7.665,2.5,10.262.921A10.67,10.67,0,0,1,494.683,163.408Z" transform="translate(-464.044 -104.662)" fill="url(#r)"/></g><rect width="1.02" height="64.085" transform="matrix(0.488, -0.873, 0.873, 0.488, 235.253, 128.736)" opacity="0.13" fill="url(#s)"/><g transform="translate(-28.025 271.592)"><path d="M274.95,380.383l-12.334-5.945,13.039-4.432Z" transform="translate(-213.201 -318.811)" fill="url(#t)"/><path d="M332.038,348.07,319.7,342.125l13.039-4.432Z" transform="translate(-212.004 -319.49)" fill="url(#t)"/><path d="M334.579,355.8l-66.813,38.127a36.943,36.943,0,0,1-36.773-.09l-15.6-9a2.374,2.374,0,0,1,0-4.11l83.566-48.417a2.374,2.374,0,0,1,2.385,0L334.6,351.681a2.374,2.374,0,0,1-.023,4.117Z" transform="translate(-214.211 -319.61)" fill="#03092e" opacity="0.2"/><g transform="translate(100.89 21.542)"><path d="M313.072,353.826a4.858,4.858,0,0,0,1.941,4.393l3.834,2.22c1.25.691.46-.889,2.349-1.985a15.247,15.247,0,0,0,6.919-11.934c0-2.169,2-2.185.776-2.91l-4.068-2.254a4.932,4.932,0,0,0-4.835.534,15.247,15.247,0,0,0-6.914,11.936Z" transform="translate(-313.047 -340.955)" fill="url(#v)"/><path d="M316.983,356.061c0,4.375,3.1,6.152,6.907,3.944a15.247,15.247,0,0,0,6.919-11.934c0-4.375-3.1-6.152-6.919-3.944a15.245,15.245,0,0,0-6.907,11.934Z" transform="translate(-312.952 -340.915)" fill="url(#w)"/><path d="M323.575,343.953a5,5,0,0,1,4.734-.58,5.446,5.446,0,0,0-4.145.813,15.245,15.245,0,0,0-6.907,11.934,4.7,4.7,0,0,0,2.185,4.527c-1.688-.472-2.784-2.153-2.784-4.759A15.248,15.248,0,0,1,323.575,343.953Z" transform="translate(-312.956 -340.907)" fill="url(#x)"/><path d="M318.316,355.214c0,3.375,2.385,4.736,5.328,3.037a11.743,11.743,0,0,0,5.328-9.192c0-3.378-2.385-4.736-5.328-3.039a11.743,11.743,0,0,0-5.328,9.194Zm3.518-2.13v.2a.946.946,0,0,1-.23.587l-1.653,2.049c-.249.306-.569.348-.642.074a4.737,4.737,0,0,1-.157-1.264,7.045,7.045,0,0,1,.157-1.444c.074-.362.4-.691.642-.67l1.653.14c.147.011.237.136.23.329Zm-1.382-2.733a10.131,10.131,0,0,1,2.035-2.533c.279-.246.553-.164.553.168v2.185a.979.979,0,0,1-.23.594c-.051.06-.1.12-.147.182a.585.585,0,0,1-.461.269l-1.651-.14c-.244-.007-.295-.378-.092-.725Zm4.336-3.854a2.609,2.609,0,0,1,2.035.177c.2.118.152.537-.1.843l-1.653,2.049a.558.558,0,0,1-.46.258.98.98,0,0,0-.147-.014c-.147,0-.23-.131-.23-.322v-2.183a.921.921,0,0,1,.559-.81Zm3.18,1.787a4.781,4.781,0,0,1,.156,1.264,7.121,7.121,0,0,1-.156,1.444c-.076.362-.4.691-.642.67l-1.653-.141c-.143-.011-.23-.136-.23-.329v-.2a.945.945,0,0,1,.23-.587l1.653-2.049c.255-.309.573-.348.649-.074Zm-1.151,5.641a10.131,10.131,0,0,1-2.035,2.533c-.281.246-.553.164-.553-.168V354.1a.969.969,0,0,1,.23-.594c.051-.06.1-.12.147-.182a.58.58,0,0,1,.461-.27l1.653.141c.262.014.308.375.11.725Zm-4.336,3.857a2.608,2.608,0,0,1-2.035-.177c-.2-.117-.152-.536.1-.845l1.651-2.049a.562.562,0,0,1,.46-.258.977.977,0,0,0,.147.014c.147,0,.23.131.23.322v2.185a.921.921,0,0,1-.539.806Z" transform="translate(-312.924 -340.872)" fill="url(#y)"/><path d="M318.641,355.344c0,3.375,2.385,4.736,5.328,3.037a11.743,11.743,0,0,0,5.328-9.192c0-3.378-2.385-4.736-5.328-3.039A11.743,11.743,0,0,0,318.641,355.344Zm3.518-2.13v.2a.948.948,0,0,1-.23.587l-1.653,2.049c-.249.306-.569.348-.642.074a4.785,4.785,0,0,1-.156-1.264,7.123,7.123,0,0,1,.156-1.446c.076-.362.4-.691.642-.668l1.653.14c.147.011.237.136.23.318Zm-1.382-2.733a10.13,10.13,0,0,1,2.035-2.533c.279-.246.553-.164.553.168V350.3a.973.973,0,0,1-.23.594c-.051.06-.1.12-.147.182a.582.582,0,0,1-.461.269l-1.651-.14c-.244-.014-.295-.378-.092-.725Zm4.336-3.854a2.609,2.609,0,0,1,2.036.177c.2.117.152.536-.1.845L325.4,349.7a.558.558,0,0,1-.461.258,1.115,1.115,0,0,0-.147-.014c-.147,0-.23-.131-.23-.32v-2.185a.921.921,0,0,1,.557-.81Zm3.18,1.787a4.732,4.732,0,0,1,.156,1.264,7.06,7.06,0,0,1-.156,1.446c-.076.359-.4.691-.642.668L326,351.651c-.143-.012-.23-.136-.23-.329v-.2a.944.944,0,0,1,.23-.587l1.653-2.049c.253-.309.566-.35.649-.074Zm-1.151,5.641a10.129,10.129,0,0,1-2.035,2.533c-.281.246-.553.164-.553-.168v-2.185a.977.977,0,0,1,.23-.594c.051-.06.1-.12.147-.182a.58.58,0,0,1,.461-.27l1.651.141c.253.014.313.375.113.725Zm-4.336,3.854a2.609,2.609,0,0,1-2.035-.177c-.2-.117-.152-.536.1-.845l1.653-2.049a.555.555,0,0,1,.461-.256,1.133,1.133,0,0,0,.147.011c.147,0,.23.131.23.322V357.1a.921.921,0,0,1-.541.808Z" transform="translate(-312.915 -340.871)" fill="url(#z)"/></g><g transform="translate(42.759 54.201)"><path d="M256.133,385.813a4.858,4.858,0,0,0,1.941,4.393l3.834,2.22c1.25.691.461-.886,2.349-1.985a15.247,15.247,0,0,0,6.919-11.934c0-2.167,2.005-2.185.776-2.91l-4.069-2.254a4.936,4.936,0,0,0-4.835.534,15.247,15.247,0,0,0-6.914,11.936Z" transform="translate(-256.108 -372.943)" fill="url(#aa)"/><path d="M260.044,388.048c0,4.375,3.1,6.152,6.919,3.944a15.247,15.247,0,0,0,6.919-11.934c0-4.375-3.1-6.152-6.919-3.944A15.249,15.249,0,0,0,260.044,388.048Z" transform="translate(-256.013 -372.903)" fill="url(#ab)"/><path d="M266.643,375.94a5,5,0,0,1,4.734-.58,5.445,5.445,0,0,0-4.144.813,15.247,15.247,0,0,0-6.919,11.934,4.7,4.7,0,0,0,2.185,4.527c-1.69-.472-2.784-2.153-2.784-4.759A15.248,15.248,0,0,1,266.643,375.94Z" transform="translate(-256.025 -372.897)" fill="url(#ac)"/><path d="M261.377,387.2c0,3.375,2.385,4.736,5.328,3.037a11.742,11.742,0,0,0,5.33-9.191c0-3.376-2.385-4.736-5.33-3.039a11.743,11.743,0,0,0-5.328,9.194Zm3.518-2.13v.2a.956.956,0,0,1-.23.587l-1.653,2.049c-.249.306-.569.345-.642.071a4.77,4.77,0,0,1-.157-1.262,7.147,7.147,0,0,1,.157-1.446c.076-.362.4-.691.642-.668l1.653.14c.147.009.237.133.219.327Zm-1.381-2.733a10.154,10.154,0,0,1,2.035-2.533c.279-.246.553-.163.553.168v2.185a.973.973,0,0,1-.23.594c-.051.06-.1.12-.147.182a.578.578,0,0,1-.461.269l-1.653-.141c-.242-.014-.292-.375-.09-.725Zm4.338-3.854a2.61,2.61,0,0,1,2.035.177c.2.117.152.536-.1.845l-1.653,2.047a.558.558,0,0,1-.461.258.993.993,0,0,0-.147-.011c-.147,0-.23-.131-.23-.322v-2.185a.921.921,0,0,1,.557-.811Zm3.18,1.787a4.778,4.778,0,0,1,.157,1.262,7.12,7.12,0,0,1-.157,1.446c-.076.359-.4.691-.642.668l-1.653-.141c-.143,0-.23-.136-.23-.327v-.2a.956.956,0,0,1,.23-.587l1.653-2.049c.251-.306.573-.345.649-.071Zm-1.151,5.641a10.169,10.169,0,0,1-2.035,2.533c-.281.246-.555.164-.555-.168v-2.2a.969.969,0,0,1,.23-.594c.051-.06.1-.12.147-.182a.578.578,0,0,1,.461-.272l1.653.141c.262.028.311.389.11.739Zm-4.336,3.854a2.61,2.61,0,0,1-2.035-.177c-.2-.117-.152-.537.1-.845l1.653-2.047a.555.555,0,0,1,.461-.258.991.991,0,0,0,.147.012c.147,0,.23.131.23.322v2.185a.921.921,0,0,1-.541.806Z" transform="translate(-255.985 -372.862)" fill="url(#ad)"/><path d="M261.7,387.33c0,3.375,2.385,4.736,5.33,3.039a11.743,11.743,0,0,0,5.328-9.192c0-3.375-2.385-4.736-5.328-3.039A11.742,11.742,0,0,0,261.7,387.33Zm3.518-2.13v.2a.94.94,0,0,1-.23.587l-1.653,2.049c-.246.306-.569.345-.642.071a4.738,4.738,0,0,1-.159-1.262,7.056,7.056,0,0,1,.159-1.446c.074-.362.4-.691.642-.668l1.653.141c.154.011.244.136.235.329Zm-1.382-2.733a10.146,10.146,0,0,1,2.035-2.533c.279-.246.553-.163.553.168v2.185a.975.975,0,0,1-.23.594c-.051.06-.1.12-.147.182a.581.581,0,0,1-.461.269l-1.651-.14c-.239-.014-.29-.375-.087-.737Zm4.338-3.854a2.609,2.609,0,0,1,2.035.177c.2.118.152.537-.1.845l-1.653,2.049a.557.557,0,0,1-.461.256,1.132,1.132,0,0,0-.147-.012c-.147,0-.23-.131-.23-.322v-2.185a.921.921,0,0,1,.562-.811Zm3.18,1.787a4.779,4.779,0,0,1,.157,1.262,7.143,7.143,0,0,1-.157,1.446c-.076.361-.4.691-.642.668l-1.653-.14c-.143,0-.23-.136-.23-.327v-.2a.956.956,0,0,1,.23-.587l1.653-2.049c.258-.306.578-.345.658-.071ZM270.2,386.04a10.168,10.168,0,0,1-2.035,2.533c-.279.246-.555.163-.555-.168V386.22a.969.969,0,0,1,.23-.594c.051-.06.1-.12.147-.182a.578.578,0,0,1,.461-.272l1.653.141c.267.016.318.378.115.728Zm-4.336,3.854a2.611,2.611,0,0,1-2.035-.177c-.2-.117-.152-.536.1-.845l1.651-2.047a.557.557,0,0,1,.46-.258.973.973,0,0,0,.147.012c.147,0,.23.131.23.322v2.185a.921.921,0,0,1-.534.808Z" transform="translate(-255.979 -372.857)" fill="url(#ae)"/></g><path d="M267.27,376.259a7.419,7.419,0,0,1,3.684-1.108c2.763,0,4.621,1.976,4.934,6.284l42.1-22.334c-.065-1.612-.1-2.072-.1-2.551a16.324,16.324,0,0,1,7.506-12.951,7.423,7.423,0,0,1,3.684-1.107c3.012,0,4.962,2.356,4.985,6.007a15.359,15.359,0,0,0,3.808-8c0-5.738-5.579-14.16-18.3-17.787-11.713-3.341-16.649-3.468-24.6-1.773s-8.607,2.869-12.387,3.26-5.475-3.652-23.992,6.907-26.478,20.471-30.641,23.6-6.781,4.375-8.215,6.583-2.933,13.3-.847,16.559,23.469,13.815,28.947,14.342c5.029.479,10.987-2.832,11.929-3.378a16.382,16.382,0,0,1,7.506-12.551Z" transform="translate(-214.146 -319.865)" fill="url(#af)"/><path d="M330.059,328.907a31.123,31.123,0,0,0-11.973-6.205,54.046,54.046,0,0,0-16.808-2.823,68.15,68.15,0,0,0-11.888,4.038C284.21,326.3,312.137,337.1,312.137,337.1,316.937,337.447,327.642,332.066,330.059,328.907Z" transform="translate(-212.654 -319.85)" opacity="0.5" fill="url(#ag)"/><path d="M262.864,355.143a63.835,63.835,0,0,1,16.428-14.213c11.107-6.267,16.9-6.732,16.9-6.732l-8.68-7.094-11.156-3.173a45.617,45.617,0,0,0-13.584,5.04,286.412,286.412,0,0,0-24.27,16.707Z" transform="translate(-213.707 -319.778)" opacity="0.5" fill="url(#ah)"/><path d="M240.648,344.06c-3.191.511-11.068,8.038-11.33,11.464s14.1,12.254,22.794,10.672,11.858-10.541,11.33-12.385S247.24,343.008,240.648,344.06Z" transform="translate(-213.896 -319.358)" fill="url(#ai)"/><path d="M249.953,365.7a31.774,31.774,0,0,1-18.993-8.31c-1.066-1.151-1.082-1.7-1.075-1.8.23-3.085,7.948-10.414,10.8-10.87a6.7,6.7,0,0,1,1.055-.076c6.887,0,20.347,7.828,21.183,9.419a9.741,9.741,0,0,1-1.805,5.107,13.621,13.621,0,0,1-9.058,6.353,11.769,11.769,0,0,1-2.093.177Z" transform="translate(-213.878 -319.345)" fill="url(#aj)"/><path d="M274.366,323.774s10.87-.3,17.522.348,13.829,3.27,17.455,6.815c3.044,2.975,5.834,6.479,3.1,6.09s-16.039-2.609-17.08-2.869-4.331-3.074-9.82-6.217a43.963,43.963,0,0,0-11.174-4.167Z" transform="translate(-212.952 -319.782)" fill="url(#ai)"/><path d="M311.379,336.141a2.129,2.129,0,0,1-.3-.025c-2.733-.391-15.06-2.466-16.076-2.721a16.328,16.328,0,0,1-2.645-1.658c-1.7-1.172-4.029-2.777-7.032-4.492a39.686,39.686,0,0,0-7.488-3.191h1.946c3.336,0,7.1-.065,10.607.279,6.854.672,13.732,3.348,17.119,6.656,2.993,2.926,4.05,4.665,4.048,5.141A.773.773,0,0,1,311.379,336.141Z" transform="translate(-212.882 -319.766)" fill="url(#al)"/><path d="M293.035,369.268l-.721-.048a40.733,40.733,0,0,0-2.291-14.206,55.9,55.9,0,0,0-7.63-12.274l.564-.461a55.419,55.419,0,0,1,7.741,12.484A41.427,41.427,0,0,1,293.035,369.268Z" transform="translate(-212.785 -319.389)" opacity="0.5" fill="url(#am)"/><path d="M237.763,381.518a4.878,4.878,0,0,1-2.316-.587l-11.142-5.986a4.9,4.9,0,0,1-2.514-3.59l-.58-3.983.716-.106.583,3.983a4.176,4.176,0,0,0,2.141,3.058l11.139,5.986a4.144,4.144,0,0,0,5.261-1.128l.672-.875.576.442-.672.875a4.863,4.863,0,0,1-3.864,1.911Z" transform="translate(-214.067 -318.864)" fill="url(#an)"/><path d="M237.768,376.593l.292,1.027a49.087,49.087,0,0,0,9.254,3.359,7.418,7.418,0,0,0,7.209-3.684c0-.486-1.98.288-5.892-.244C246.319,376.733,240.144,377.5,237.768,376.593Z" transform="translate(-213.719 -318.675)" opacity="0.5" fill="url(#am)"/><g transform="translate(23.973 55.307)"><path d="M238.982,374.815l-1.287,1.828s1.462.67,3.412,1.437a41.059,41.059,0,0,0,6.346,2.024,7.247,7.247,0,0,0,5.015-.921c1.285-.737,2.072-1.642,2.072-1.936,0-.486-1.865-.55-5.775-1.085a50.389,50.389,0,0,1-7.718-2.028,1.814,1.814,0,0,0-2.065.681Z" transform="translate(-237.695 -374.039)" fill="url(#ap)"/><path d="M239.076,374.828a1.842,1.842,0,0,1,2.024-.562c1.2.408,2.62.84,3.979,1.2a32.752,32.752,0,0,0,3.527.774c.815.115,1.543.207,2.176.288,2.259.279,3.382.4,3.454.755.048.272-.635,1.1-1.764,1.778a7.422,7.422,0,0,1-3.93,1.061h0a6.482,6.482,0,0,1-1.073-.122,39.532,39.532,0,0,1-6.03-1.911c-1.821-.712-3.2-1.338-3.244-1.354-.136-.051.6-1.331.516-1.368Z" transform="translate(-237.679 -374.034)" fill="url(#aq)"/><path d="M239.178,374.85a1.877,1.877,0,0,1,1.976-.46c1.172.4,2.549.813,3.866,1.165a32.942,32.942,0,0,0,3.426.758c.79.115,1.5.21,2.111.285,2.13.265,3.223.382,3.357.711.094.249-.472,1-1.448,1.612a7.345,7.345,0,0,1-3.914,1.087h0a6.415,6.415,0,0,1-1.073-.122,38.126,38.126,0,0,1-5.715-1.8c-1.69-.659-2.993-1.239-3.076-1.273-.272-.1.253-1.308.081-1.382Z" transform="translate(-237.673 -374.035)" fill="url(#ar)"/><path d="M239.291,374.862a1.945,1.945,0,0,1,1.925-.345c1.151.384,2.475.787,3.753,1.128a33.4,33.4,0,0,0,3.325.744c.764.115,1.448.209,2.047.283,2,.251,3.078.364,3.27.668.14.23-.313.907-1.133,1.457a7.256,7.256,0,0,1-3.914,1.114h0a6.19,6.19,0,0,1-1.073-.12,36.07,36.07,0,0,1-5.4-1.685c-1.563-.6-2.763-1.151-2.908-1.19-.408-.147-.1-1.287-.357-1.4Z" transform="translate(-237.672 -374.035)" fill="url(#as)"/><path d="M239.4,374.879a2.072,2.072,0,0,1,1.876-.23c1.117.373,2.4.762,3.64,1.094,1.19.318,2.332.585,3.223.728.739.117,1.4.21,1.98.283a8.572,8.572,0,0,1,3.182.626c.184.2-.152.808-.817,1.3a7.183,7.183,0,0,1-3.9,1.151h0a6.144,6.144,0,0,1-1.073-.117,34.657,34.657,0,0,1-5.082-1.57c-1.434-.546-2.553-1.043-2.74-1.11-.543-.2-.447-1.266-.794-1.414Z" transform="translate(-237.671 -374.025)" fill="url(#at)"/><path d="M239.509,374.9a2.262,2.262,0,0,1,1.828-.131c1.087.362,2.328.737,3.525,1.057,1.151.306,2.247.564,3.122.711.714.117,1.356.21,1.916.281a9.924,9.924,0,0,1,3.092.585c.23.182,0,.709-.5,1.137a7.1,7.1,0,0,1-3.891,1.165h0a6.034,6.034,0,0,1-1.073-.115,33.153,33.153,0,0,1-4.764-1.457c-1.3-.491-2.337-.944-2.572-1.027-.691-.246-.8-1.246-1.229-1.43Z" transform="translate(-237.667 -374.025)" fill="url(#au)"/><path d="M239.625,374.916a2.566,2.566,0,0,1,1.78-.023c1.057.35,2.256.711,3.412,1.022,1.1.3,2.164.546,3.023.691.691.117,1.308.21,1.842.281a11.788,11.788,0,0,1,2.993.541c.272.161.17.61-.184.976a7.016,7.016,0,0,1-3.882,1.193h0a5.914,5.914,0,0,1-1.073-.115,31.526,31.526,0,0,1-4.448-1.345c-1.172-.437-2.121-.845-2.4-.946-.815-.295-1.151-1.225-1.665-1.446Z" transform="translate(-237.677 -374.022)" fill="url(#av)"/><path d="M239.727,374.932a3.083,3.083,0,0,1,1.729.085c1.029.338,2.185.691,3.3.985,1.057.286,2.072.527,2.922.691.663.117,1.264.21,1.784.279a14.8,14.8,0,0,1,2.917.5c.315.14.331.513.131.817a6.938,6.938,0,0,1-3.873,1.218h0a5.8,5.8,0,0,1-1.073-.113,30.043,30.043,0,0,1-4.133-1.232c-1.043-.382-1.906-.746-2.236-.866-.951-.343-1.5-1.2-2.1-1.46Z" transform="translate(-237.666 -374.018)" fill="url(#aw)"/><path d="M239.836,374.95a4.032,4.032,0,0,1,1.681.191c1,.327,2.111.659,3.187.951,1.013.272,2,.509,2.823.663.635.117,1.216.212,1.718.279a19.866,19.866,0,0,1,2.83.461.587.587,0,0,1,.447.656,6.857,6.857,0,0,1-3.863,1.246h0a5.674,5.674,0,0,1-1.073-.111,28.628,28.628,0,0,1-3.815-1.119c-.921-.329-1.692-.647-2.072-.783a24.651,24.651,0,0,1-2.533-1.476Z" transform="translate(-237.665 -374.015)" fill="url(#ax)"/><path d="M239.943,374.97a6.174,6.174,0,0,1,1.632.3c.974.315,2.038.633,3.074.921.969.263,1.911.49,2.722.649.61.117,1.167.212,1.651.276,1.236.164,2.146.267,2.742.414a1.225,1.225,0,0,1,.764.5,6.78,6.78,0,0,1-3.854,1.273h0a5.589,5.589,0,0,1-1.073-.111,27.313,27.313,0,0,1-3.5-1c-.783-.274-1.478-.548-1.9-.691A32.91,32.91,0,0,1,239.232,376Z" transform="translate(-237.662 -374.017)" fill="url(#ay)"/><path d="M240.055,374.989a14.006,14.006,0,0,1,1.584.408c.944.3,1.966.608,2.961.877.921.251,1.826.461,2.62.633.585.117,1.121.212,1.586.274,1.11.15,1.992.253,2.652.371a4.639,4.639,0,0,1,1.08.336,6.69,6.69,0,0,1-3.845,1.3h0a5.581,5.581,0,0,1-1.073-.108,26.513,26.513,0,0,1-3.184-.893c-.654-.23-1.264-.461-1.729-.62-1.361-.493-2.544-1.137-3.41-1.508Z" transform="translate(-237.662 -374.015)" fill="url(#az)"/><path d="M248.712,379.088a5.546,5.546,0,0,1-1.073-.106,32.68,32.68,0,0,1-4.43-1.317c-1.5-.541-2.9-1.117-3.845-1.522l.8-1.135c1.292.461,2.864.946,4.375,1.358a34.835,34.835,0,0,0,4.041.891c.983.136,1.842.23,2.565.329.495.06.976.12,1.4.177a6.62,6.62,0,0,1-3.836,1.326Z" transform="translate(-237.662 -374.016)" fill="url(#ba)"/></g><path d="M218.33,366.383l4.63,2.365.771-.461-4.5-5.846a24.645,24.645,0,0,0-.9,3.942Z" transform="translate(-214.126 -318.973)" opacity="0.5" fill="url(#am)"/><g transform="translate(4.204 42.561)"><path d="M218.33,365.488l5.395,2.885-.306-3.062a1.87,1.87,0,0,0-.781-1.342l-3.41-2.418A24.663,24.663,0,0,0,218.33,365.488Z" transform="translate(-218.33 -361.551)" fill="url(#bc)"/><path d="M219.221,361.676l3.306,2.337a1.909,1.909,0,0,1,.787,1.273l.29,2.906-5.229-2.8a23.843,23.843,0,0,1,.845-3.716Z" transform="translate(-218.33 -361.549)" fill="url(#bd)"/><path d="M219.218,361.8l3.2,2.259a1.962,1.962,0,0,1,.794,1.2l.274,2.745-5.065-2.715a23.114,23.114,0,0,1,.8-3.493Z" transform="translate(-218.331 -361.547)" fill="url(#be)"/><path d="M219.207,361.925l3.095,2.18a2.044,2.044,0,0,1,.8,1.135l.258,2.586-4.893-2.632a22.4,22.4,0,0,1,.737-3.27Z" transform="translate(-218.327 -361.543)" fill="url(#bf)"/><path d="M219.2,362.049l2.993,2.1a2.153,2.153,0,0,1,.808,1.068l.244,2.427-4.725-2.544a21.733,21.733,0,0,1,.679-3.051Z" transform="translate(-218.325 -361.54)" fill="url(#bg)"/><path d="M219.193,362.174l2.883,2.022c.23.17.785.7.815,1l.23,2.268L218.564,365A21.115,21.115,0,0,1,219.193,362.174Z" transform="translate(-218.325 -361.539)" fill="url(#bh)"/><path d="M219.187,362.3l2.779,1.941c.2.143.8.691.822.921l.21,2.109-4.389-2.374a20.642,20.642,0,0,1,.578-2.6Z" transform="translate(-218.323 -361.533)" fill="url(#bi)"/><path d="M219.18,362.423l2.671,1.86c.161.115.811.668.829.863l.2,1.95-4.22-2.291A20.586,20.586,0,0,1,219.18,362.423Z" transform="translate(-218.323 -361.532)" fill="url(#bj)"/><path d="M219.171,362.548l2.567,1.782c.12.085.822.647.838.794l.18,1.791-4.052-2.2A20.306,20.306,0,0,1,219.171,362.548Z" transform="translate(-218.322 -361.53)" fill="url(#bk)"/><path d="M219.166,362.672l2.461,1.7a5.388,5.388,0,0,1,.845.725l.163,1.633-3.887-2.121A19.079,19.079,0,0,1,219.166,362.672Z" transform="translate(-218.321 -361.528)" fill="url(#bl)"/><path d="M219.157,362.8l2.355,1.612a10.291,10.291,0,0,1,.852.656l.147,1.474-3.716-2.035C218.9,363.884,219.035,363.3,219.157,362.8Z" transform="translate(-218.319 -361.522)" fill="url(#bm)"/><path d="M218.842,364.418c.1-.532.2-1.036.309-1.5l3.108,2.132.131,1.315Z" transform="translate(-218.319 -361.523)" fill="url(#bn)"/></g><path d="M232.349,369.926a45.224,45.224,0,0,0,19.175,5.869c5.671.2,56.328-29.336,56.328-29.336s-38.334,19.949-46.94,23.469a30.554,30.554,0,0,1-25.815-2.15,69.763,69.763,0,0,1-13.1-9.4,9.706,9.706,0,0,0-2.289,2.356l-.046.081a117.388,117.388,0,0,0,12.687,9.109Z" transform="translate(-214.095 -319.304)" fill="url(#bo)"/><path d="M227.96,369.358v5.086l6.447,3.617V373.27Z" transform="translate(-213.924 -318.826)" fill="url(#bp)"/><path d="M227.8,369.083v5.086l6.447,3.62V373Z" transform="translate(-213.932 -318.832)" fill="url(#bp)"/><path d="M224.2,366.683l1.262,1.036a41.545,41.545,0,0,0,11.973,6.857h0Z" transform="translate(-214 -318.882)" fill="url(#br)"/><path d="M219.864,377.84c4.1,3.454,17.92,10.361,24.982,12.592l-1.151-2.3a5.066,5.066,0,0,0-2.475-2.365l-1.98-.88a125.305,125.305,0,0,1-13.7-7.138L222.8,376.1a1.593,1.593,0,0,0-2.171.518Z" transform="translate(-214.094 -318.694)" fill="url(#bs)"/><path d="M278.435,377.9l-.124-.442a73.028,73.028,0,0,0-4.688-11.927,26.782,26.782,0,0,0-7.209-7.407l.41-.6a26.979,26.979,0,0,1,7.442,7.67,73.219,73.219,0,0,1,4.6,11.623l32.882-18.406a34.67,34.67,0,0,0,2.031-7.621,32.3,32.3,0,0,0-.969-8.142l.691-.175a32.206,32.206,0,0,1,.99,8.379,35.694,35.694,0,0,1-2.123,7.943l-.046.12-.113.062Z" transform="translate(-213.119 -319.391)" opacity="0.5" fill="url(#am)"/><path d="M270.083,359a4.625,4.625,0,0,1-3.854-1.282,2.924,2.924,0,0,1-.461-2.586c.921-4.025,17.372-17.959,31.512-17.959q.394,0,.785.014c10.531.4,15.477,5.413,15.477,5.413s-19.949,11.708-32.085,14.531a55.91,55.91,0,0,1-11.381,1.876Z" transform="translate(-213.148 -319.494)" fill="url(#t)"/><path d="M312.988,342.326s-4.7-3.649-14.994-4.041c-13.691-.523-30.381,13.642-31.162,17.082s4.2,3.009,14.342.652C293.3,353.2,312.988,342.326,312.988,342.326Z" transform="translate(-213.112 -319.476)" fill="url(#ai)"/><path d="M278.644,376.91l32.663-18.383s-23.665,10.953-26.989,12.908a20.262,20.262,0,0,0-5.673,5.475Z" transform="translate(-212.863 -319.054)" opacity="0.5" fill="url(#bw)"/><g transform="translate(57.428 19.633)"><path d="M290.256,350.262c.293.516.555.995.8,1.462,8.289-3.343,16.808-7.776,19.953-9.461a30.7,30.7,0,0,0-13.354-3.157c-.23,0-.474-.014-.711-.014a30.517,30.517,0,0,0-12.433,3.138,43.5,43.5,0,0,1,5.742,8.031Z" transform="translate(-270.176 -339.093)" fill="url(#bx)"/><path d="M286.835,349.062a64.653,64.653,0,0,0-3.562-6.168,55.277,55.277,0,0,0-12.809,8.966,20.543,20.543,0,0,0,1.725,4.927,83.12,83.12,0,0,0,8.788-1.685,62.1,62.1,0,0,0,7.138-2.206,15.321,15.321,0,0,0-1.28-3.834Z" transform="translate(-270.464 -339.014)" fill="url(#by)"/></g><path d="M312.556,342.738s14.045-5.413,16.382-6.677,2.662-1.308,2.613-5.321c0,0,.281,2.24-4.013,4.713S312.556,342.738,312.556,342.738Z" transform="translate(-212.155 -319.638)" opacity="0.5" fill="url(#am)"/><path d="M328.373,335.926s6.677,2.57,6.143-.168a11.284,11.284,0,0,0-3.32-5.2S331.781,335.04,328.373,335.926Z" transform="translate(-211.822 -319.639)" fill="url(#ca)"/><path d="M329.653,335.813s4.619,1.517,4.177-.794a5.846,5.846,0,0,0-2.169-3.5S332.955,335.481,329.653,335.813Z" transform="translate(-211.797 -319.618)" fill="url(#cb)"/><path d="M328.236,335.833s2.183.585,3.972.939a7.947,7.947,0,0,0,.461-2.362,12.381,12.381,0,0,0-1.471-3.85S332.148,335.441,328.236,335.833Z" transform="translate(-211.826 -319.637)" fill="url(#cc)"/><g transform="translate(20.809 25.292)"><path d="M240.577,344.713A12.531,12.531,0,0,0,235.9,347.6a70.279,70.279,0,0,0-1.308,12.786,35.246,35.246,0,0,0,11.7,4.932,204.46,204.46,0,0,1-3.2-20.579,11.622,11.622,0,0,0-1.462-.1,6.7,6.7,0,0,0-1.055.076Z" transform="translate(-234.593 -344.637)" fill="url(#cd)"/><path d="M255.026,364.46a194.846,194.846,0,0,1-8.289-18.843,23.145,23.145,0,0,0-3.672-.859,113.043,113.043,0,0,0,6.249,20.925h.355a11.766,11.766,0,0,0,2.093-.177A12.768,12.768,0,0,0,255.026,364.46Z" transform="translate(-234.422 -344.636)" fill="url(#ce)"/></g><g transform="translate(44.553 21.562)"><path d="M327.054,340.983a8.465,8.465,0,0,0-4.225,1.25,17.48,17.48,0,0,0-8.04,13.872,9.352,9.352,0,0,0,.442,2.938l.728-.385c-.065-1.612-.1-2.072-.1-2.551a16.324,16.324,0,0,1,7.506-12.951,7.423,7.423,0,0,1,3.684-1.108c3.012,0,4.962,2.356,4.985,6.007.306-.385.64-.822.976-1.3a6.012,6.012,0,0,0-5.954-5.775Z" transform="translate(-256.66 -340.983)" fill="url(#cf)"/><path d="M270.114,372.97a8.465,8.465,0,0,0-4.225,1.25,17.485,17.485,0,0,0-8.038,13.875v.193c.518-.267.893-.479,1.075-.585a16.382,16.382,0,0,1,7.49-12.56,7.419,7.419,0,0,1,3.684-1.107c2.763,0,4.621,1.976,4.934,6.283l1.105-.587C276,375.072,273.047,372.97,270.114,372.97Z" transform="translate(-257.851 -340.314)" fill="url(#cg)"/></g><path d="M312.627,342.492a10.55,10.55,0,0,0-1.259,4.621c.14,2.031-.981,2.381-1.821,2.1S309.2,341.581,312.627,342.492Z" transform="translate(-212.224 -319.39)" fill="url(#ch)"/><path d="M312.8,342.489a12.292,12.292,0,0,0-4.186-1.651c-1.434,0-1.172,5.869.391,6s1.043-2.606,1.826-3.26a7.829,7.829,0,0,1,1.969-1.087Z" transform="translate(-212.252 -319.423)" fill="url(#ci)"/><path d="M309.611,343.063c0,1.131-.4,2.047-.893,2.047s-.893-.921-.893-2.047.4-2.047.893-2.047S309.611,341.932,309.611,343.063Z" transform="translate(-212.253 -319.419)" fill="url(#cj)"/><path d="M279.784,324.047h-1.946a39.7,39.7,0,0,1,7.488,3.191c1.048.6,2.01,1.181,2.9,1.741a45.888,45.888,0,0,1,1.812-4.69C286.631,323.989,283.007,324.047,279.784,324.047Z" transform="translate(-212.881 -319.776)" fill="url(#ck)"/></g><path d="M530.692,222.677l43.685-25.861v-9.608l-4.51-1.888v9.065L530.692,217,414.449,150.077,391.32,165.758v5.879l23.129-15.4Z" transform="translate(-295.912 121.976)" fill="#fefe05"/><g transform="translate(25.038 154.229)"><path d="M529.86,165.893c0,21.1-28.359,47.639-28.359,47.639s-33.436-63.739-33.436-84.844S483.031,99.12,501.5,109.781,529.86,144.789,529.86,165.893Z" transform="translate(-464.277 -105.173)" fill="url(#m)"/><path d="M500.536,160.56a31.514,31.514,0,0,1-14.3-24.671,11.123,11.123,0,0,1,2.719-8.031c-.274.025-2.841,1.163-3.1,1.213-3.813.746-6.325,4.283-6.325,9.954a31.516,31.516,0,0,0,14.3,24.671c4.322,2.5,8.188,2.519,10.81.55.272-.2,2.827-1.529,3.072-1.775a12.321,12.321,0,0,1-7.172-1.911Z" transform="translate(-464.038 -104.699)" fill="url(#cm)"/><path d="M502.218,109.453c-8.791-5.065-16.668-5.227-22.12-1.425l-6.318,2.947.776,4.055a28.551,28.551,0,0,0-2.128,11.406c0,12.931,6.907,33.328,14.08,51l7.469,39.006,8.238-4.119S532,187.675,532,160.833C532,141.955,518.669,118.951,502.218,109.453Zm-8.238,54.711a31.514,31.514,0,0,1-14.3-24.671c0-9.065,6.4-12.717,14.3-8.155a31.518,31.518,0,0,1,14.31,24.673C508.289,165.076,501.879,168.733,493.979,164.164Z" transform="translate(-464.192 -105.165)" fill="url(#cn)"/><path d="M494.143,113.49c-16.451-9.5-29.787-1.895-29.787,16.983,0,26.842,29.787,85.882,29.787,85.882s29.787-24.655,29.787-51.5C523.932,145.992,510.594,122.986,494.143,113.49Zm0,50.592a31.514,31.514,0,0,1-14.3-24.671c0-9.065,6.4-12.717,14.3-8.155a31.519,31.519,0,0,1,14.3,24.671c0,9.067-6.4,12.719-14.3,8.158Z" transform="translate(-464.356 -105.083)" fill="url(#co)"/><path d="M495.828,112.482c-8.593-4.962-16.313-5.22-21.749-1.678,5.273-2.383,12.219-1.7,19.861,2.71,16.451,9.5,29.787,32.5,29.787,51.38,0,23-21.855,44.38-28.115,50.03l.216.435s29.787-24.653,29.787-51.5C525.615,144.993,512.279,121.968,495.828,112.482Z" transform="translate(-464.153 -105.104)" fill="url(#q)"/><path d="M494.683,163.408a31.516,31.516,0,0,1-14.3-24.678c0-4.437,1.543-7.559,4.041-9.069-3.092,1.223-5.065,4.564-5.065,9.581a31.516,31.516,0,0,0,14.3,24.671c4.032,2.328,7.665,2.5,10.262.921A10.67,10.67,0,0,1,494.683,163.408Z" transform="translate(-464.044 -104.662)" fill="url(#r)"/></g></g></g><path d="M1005.649,160.61c-.518-.292-1.022-.5-1.535-.778v2.459c32.8,18.65,59.528,63.069,60.555,100.141l1.872,1.057c0-.12.018-.23.018-.343C1066.572,225.533,1039.219,179.534,1005.649,160.61Z" transform="translate(354.376 307.682)" fill="url(#cr)"/><path d="M1005.649,195.144c-.525-.3-1.018-.419-1.535-.691v2.372c22.458,12.834,40.8,43.1,41.817,68.593l1.858,1.048c0-.12.03-.212.03-.336C1047.807,240.088,1028.9,208.247,1005.649,195.144Z" transform="translate(354.518 294.637)" fill="url(#cs)"/><path d="M1005.649,126.132c-.518-.292-1.022-.5-1.535-.778v2.459c43.128,24.48,78.27,83.046,79.306,131.687l1.879,1.057c0-.12.018-.23.018-.343C1085.314,211.034,1049.557,150.879,1005.649,126.132Z" transform="translate(354.518 321.709)" fill="url(#ct)"/></g><g transform="translate(317.283 -302.007)"><g transform="translate(1032.207 523.798)"><g transform="translate(-105 -85)"><g transform="translate(152.951 200.833)"><g transform="translate(1.44 0)" opacity="0.3"><path d="M361.02,250.693c-6.682-3.695-12.1-.738-12.1,6.605v13.36a25.341,25.341,0,0,0,12.1,19.984l78.548,43.8c6.682,3.695,14.777.33,14.777-7.013v-13.36c0-7.343-8.094-15.884-14.777-19.577Z" transform="translate(-348.922 -249.101)" opacity="0" fill="url(#cu)"/><path d="M361.093,251.249c-6.612-3.655-11.972-.728-11.972,6.533v12.969a25.067,25.067,0,0,0,11.972,19.766l78.054,43.471c6.612,3.653,14.407.358,14.407-6.9V314.123c0-7.258-7.8-15.744-14.407-19.4Z" transform="translate(-348.915 -249.079)" opacity="0.091" fill="url(#cv)"/><path d="M361.165,251.806c-6.542-3.615-11.843-.721-11.843,6.462v12.576A24.791,24.791,0,0,0,361.165,290.4l77.56,43.145c6.542,3.613,14.049.389,14.049-6.79V314.175c0-7.184-7.493-15.6-14.049-19.218Z" transform="translate(-348.908 -249.056)" opacity="0.182" fill="url(#cw)"/><path d="M361.233,252.361c-6.469-3.575-11.707-.7-11.707,6.39v12.175a24.519,24.519,0,0,0,11.707,19.335L438.3,333.079c6.469,3.575,13.669.417,13.669-6.687V314.217c0-7.1-7.2-15.465-13.669-19.04Z" transform="translate(-348.894 -249.032)" opacity="0.273" fill="url(#cx)"/><path d="M361.31,252.919c-6.4-3.533-11.588-.7-11.588,6.322v11.787a24.241,24.241,0,0,0,11.588,19.12l76.564,42.494c6.4,3.533,13.3.447,13.3-6.579V314.271c0-7.024-6.9-15.325-13.3-18.86Z" transform="translate(-348.891 -249.011)" opacity="0.364" fill="url(#cy)"/><path d="M361.383,253.476c-6.322-3.5-11.461-.7-11.461,6.247v11.393a23.965,23.965,0,0,0,11.461,18.9l76.08,42.169c6.322,3.493,12.929.468,12.929-6.472V314.323c0-6.945-6.6-15.186-12.929-18.68Z" transform="translate(-348.885 -248.991)" opacity="0.455" fill="url(#cz)"/><path d="M361.455,254.032c-6.259-3.456-11.332-.691-11.332,6.177v11A23.693,23.693,0,0,0,361.455,289.9l75.591,41.844c6.259,3.456,12.559.5,12.559-6.362v-11c0-6.865-6.3-15.046-12.559-18.5Z" transform="translate(-348.876 -248.968)" opacity="0.545" fill="url(#da)"/><path d="M361.528,254.587c-6.188-3.414-11.206-.681-11.206,6.106v10.6a23.414,23.414,0,0,0,11.206,18.471l75.1,41.514c6.188,3.414,12.175.531,12.175-6.254v-10.6c0-6.79-6-14.908-12.175-18.324Z" transform="translate(-348.868 -248.948)" opacity="0.636" fill="url(#db)"/><path d="M361.6,255.145c-6.118-3.376-11.075-.674-11.075,6.034v10.209A23.142,23.142,0,0,0,361.6,289.651l74.609,41.2c6.118,3.374,11.815.56,11.815-6.146V314.5c0-6.708-5.7-14.77-11.815-18.144Z" transform="translate(-348.861 -248.925)" opacity="0.727" fill="url(#dc)"/><path d="M361.673,255.7c-6.048-3.334-10.949-.665-10.949,5.964v9.811A22.867,22.867,0,0,0,361.673,289.5l74.12,40.872c6.048,3.334,11.443.592,11.443-6.036v-9.811c0-6.629-5.385-14.629-11.443-17.963Z" transform="translate(-348.851 -248.903)" opacity="0.818" fill="url(#dd)"/><path d="M361.745,256.257c-5.978-3.294-10.822-.658-10.822,5.891v9.415a22.593,22.593,0,0,0,10.822,17.823l73.628,40.549c5.978,3.294,11.068.621,11.068-5.928v-9.413A22.8,22.8,0,0,0,435.374,296.8Z" transform="translate(-348.846 -248.882)" opacity="0.909" fill="url(#de)"/><path d="M361.816,256.813c-5.9-3.255-10.693-.649-10.693,5.821v9.017a22.318,22.318,0,0,0,10.693,17.607l73.144,40.228c5.905,3.255,10.693.649,10.693-5.821v-9.017a22.318,22.318,0,0,0-10.693-17.608Z" transform="translate(-348.838 -248.86)" fill="url(#df)"/></g><path d="M439.4,294.683,356.28,252.33c-3.176-1.71-6.064-1.019-7.758,1.579a9.031,9.031,0,0,0-.988,4.749v13.568a19.3,19.3,0,0,0,8.807,15.676l3.222,1.6,6.739,22.27,6.739-15.015,65.33,34.809c4.863,2.616,8.807-.16,8.807-6.2V311.795c-.145-6.316-2.4-13.593-7.774-17.112Z" transform="translate(-347.534 -248.075)" opacity="0.75" fill="url(#dg)"/><path d="M438.372,294.21l-82.032-41.8c-4.863-2.505-8.806.155-8.806,5.938v.909c0-5.786,3.943-8.446,8.806-5.938l82.032,41.8a18.338,18.338,0,0,1,8.806,15.011v-.909A18.338,18.338,0,0,0,438.372,294.21Z" transform="translate(-347.534 -249.01)" opacity="0.5" fill="url(#dh)"/></g><g transform="translate(170.967 63.295)"><g transform="translate(0.328 0.424)" opacity="0.3"><path d="M379.936,114.693c-6.088-3.512-11.026-.7-11.026,6.287v57.311a24.292,24.292,0,0,0,11.026,19.015l36.76,21.752c6.088,3.512,13.466.316,13.466-6.671V155.075c0-6.987-7.375-15.114-13.466-18.631Z" transform="translate(-365.14 -113.18)" opacity="0" fill="url(#di)"/><path d="M379.543,114.725c-6.055-3.5-10.963-.7-10.963,6.252v56.986a24.156,24.156,0,0,0,10.963,18.909l36.695,21.67c6.055,3.5,13.182.347,13.182-6.6V154.953c0-6.947-7.127-15.062-13.182-18.558Z" transform="translate(-365.152 -113.177)" opacity="0.091" fill="url(#dj)"/><path d="M379.152,114.759c-6.02-3.477-10.9-.7-10.9,6.214v56.662a24.024,24.024,0,0,0,10.9,18.8l36.622,21.576c6.02,3.477,12.9.377,12.9-6.53V154.823c0-6.91-6.879-15.011-12.9-18.5Z" transform="translate(-365.164 -113.173)" opacity="0.182" fill="url(#dk)"/><path d="M378.762,114.785c-5.987-3.456-10.841-.688-10.841,6.181V177.3A23.882,23.882,0,0,0,378.762,196l36.55,21.506c5.987,3.456,12.616.41,12.616-6.462V154.711c0-6.87-6.629-14.962-12.616-18.418Z" transform="translate(-365.177 -113.176)" opacity="0.273" fill="url(#dl)"/><path d="M378.365,114.815c-5.952-3.437-10.771-.686-10.771,6.146v56.012a23.751,23.751,0,0,0,10.771,18.593l36.477,21.424c5.952,3.437,12.332.44,12.332-6.392V154.587c0-6.832-6.378-14.908-12.332-18.345Z" transform="translate(-365.187 -113.174)" opacity="0.364" fill="url(#dm)"/><path d="M377.978,114.844c-5.919-3.418-10.717-.681-10.717,6.109v55.7a23.613,23.613,0,0,0,10.717,18.486l36.4,21.344c5.919,3.416,12.049.468,12.049-6.322v-55.7c0-6.79-6.128-14.859-12.049-18.275Z" transform="translate(-365.203 -113.176)" opacity="0.455" fill="url(#dn)"/><path d="M377.588,114.876c-5.884-3.4-10.656-.677-10.656,6.076v55.361a23.478,23.478,0,0,0,10.656,18.38l36.332,21.26c5.884,3.4,11.763.5,11.763-6.252V154.341c0-6.753-5.879-14.8-11.763-18.2Z" transform="translate(-365.216 -113.169)" opacity="0.545" fill="url(#do)"/><path d="M377.2,114.907c-5.854-3.379-10.595-.674-10.595,6.041v55.037A23.344,23.344,0,0,0,377.2,194.248l36.262,21.181c5.854,3.376,11.473.534,11.473-6.181V154.219c0-6.713-5.631-14.751-11.473-18.132Z" transform="translate(-365.228 -113.169)" opacity="0.636" fill="url(#dp)"/><path d="M376.806,114.936c-5.816-3.358-10.536-.67-10.536,6.006v54.712a23.211,23.211,0,0,0,10.536,18.167L413,214.92c5.816,3.358,11.2.564,11.2-6.111V154.1c0-6.675-5.385-14.7-11.2-18.062Z" transform="translate(-365.242 -113.168)" opacity="0.727" fill="url(#dq)"/><path d="M376.413,114.967c-5.783-3.339-10.471-.665-10.471,5.971v54.387a23.075,23.075,0,0,0,10.471,18.062L412.527,214.4c5.783,3.339,10.916.595,10.916-6.041V153.968a23.429,23.429,0,0,0-10.916-17.991Z" transform="translate(-365.254 -113.166)" opacity="0.818" fill="url(#dr)"/><path d="M376.023,115c-5.748-3.32-10.41-.663-10.41,5.935v54.054a22.946,22.946,0,0,0,10.41,17.954l36.042,20.935c5.751,3.32,10.632.628,10.632-5.971V153.852a23.11,23.11,0,0,0-10.632-17.921Z" transform="translate(-365.267 -113.165)" opacity="0.909" fill="url(#ds)"/><path d="M375.628,115.029c-5.715-3.3-10.347-.658-10.347,5.9v53.736a22.8,22.8,0,0,0,10.347,17.849l35.969,20.85c5.715,3.3,10.349.658,10.349-5.9V153.728A22.8,22.8,0,0,0,411.6,135.879Z" transform="translate(-365.281 -113.162)" fill="url(#dt)"/></g><path d="M375.349,114.2c-5.734-3.311-10.384-.66-10.384,5.919v59.62a22.881,22.881,0,0,0,10.384,17.912l36.21,20.991c5.734,3.311,10.384.66,10.384-5.921V153.1a22.88,22.88,0,0,0-10.384-17.912Z" transform="translate(-364.965 -112.77)" opacity="0.8" fill="url(#du)"/><path d="M411.562,135.185,375.349,114.2c-5.734-3.311-10.384-.66-10.384,5.919v1c0-6.582,4.65-9.232,10.384-5.921l36.21,20.991A22.88,22.88,0,0,1,421.944,154.1v-1A22.881,22.881,0,0,0,411.562,135.185Z" transform="translate(-364.965 -112.77)" fill="url(#dv)"/></g><g transform="translate(295.312 195.434)"><g transform="translate(0 0)" opacity="0.3"><path d="M497.97,242.535c-6.846-3.952-12.4-.789-12.4,7.069v39.867a27.315,27.315,0,0,0,12.4,21.382l77.88,45.747c6.846,3.952,15.14.354,15.14-7.493V309.233c0-7.858-8.293-17-15.14-20.949Z" transform="translate(-485.575 -240.833)" opacity="0" fill="url(#dw)"/><path d="M498.017,243.08c-6.79-3.927-12.311-.782-12.311,7.024v39.448a27.125,27.125,0,0,0,12.311,21.234L575.7,356.379c6.79,3.927,14.8.389,14.8-7.413V309.508c0-7.8-8.005-16.915-14.8-20.839Z" transform="translate(-485.57 -240.811)" opacity="0.091" fill="url(#dx)"/><path d="M498.062,243.623c-6.75-3.9-12.225-.777-12.225,6.97v39.032a26.938,26.938,0,0,0,12.225,21.084l77.5,45.424c6.75,3.9,14.47.421,14.47-7.324V309.778c0-7.748-7.727-16.832-14.47-20.731Z" transform="translate(-485.565 -240.792)" opacity="0.182" fill="url(#dy)"/><path d="M498.106,244.166c-6.706-3.87-12.138-.773-12.138,6.921V289.7a26.746,26.746,0,0,0,12.138,20.937l77.3,45.276c6.7,3.87,14.133.468,14.133-7.235V310.063c0-7.692-7.429-16.751-14.133-20.621Z" transform="translate(-485.56 -240.771)" opacity="0.273" fill="url(#dz)"/><path d="M498.153,244.709c-6.657-3.842-12.054-.768-12.054,6.87v38.2a26.557,26.557,0,0,0,12.054,20.79l77.105,45.119c6.657,3.842,13.8.489,13.8-7.148V310.342c0-7.638-7.141-16.669-13.8-20.511Z" transform="translate(-485.556 -240.75)" opacity="0.364" fill="url(#ea)"/><path d="M498.2,245.254c-6.61-3.817-11.967-.761-11.967,6.823v37.779A26.366,26.366,0,0,0,498.2,310.5l76.913,44.955c6.607,3.817,13.463.525,13.463-7.059V310.619c0-7.584-6.853-16.589-13.463-20.4Z" transform="translate(-485.551 -240.728)" opacity="0.455" fill="url(#eb)"/><path d="M498.241,245.8c-6.556-3.788-11.88-.754-11.88,6.774v37.362a26.179,26.179,0,0,0,11.88,20.492l76.717,44.805c6.556,3.788,13.128.56,13.128-6.97V310.9c0-7.53-6.556-16.5-13.128-20.293Z" transform="translate(-485.544 -240.706)" opacity="0.545" fill="url(#ec)"/><path d="M498.286,246.34c-6.514-3.76-11.794-.749-11.794,6.725V290.01a25.99,25.99,0,0,0,11.794,20.342L574.811,355c6.514,3.76,12.791.592,12.791-6.881v-36.95c0-7.476-6.277-16.425-12.791-20.185Z" transform="translate(-485.539 -240.685)" opacity="0.636" fill="url(#ed)"/><path d="M498.33,246.883c-6.467-3.732-11.707-.745-11.707,6.675v36.526a25.8,25.8,0,0,0,11.707,20.195l76.331,44.487c6.467,3.732,12.456.625,12.456-6.79V311.45c0-7.42-5.989-16.343-12.456-20.075Z" transform="translate(-485.534 -240.664)" opacity="0.727" fill="url(#ee)"/><path d="M498.376,247.427c-6.42-3.706-11.623-.74-11.623,6.626v36.109a25.608,25.608,0,0,0,11.623,20.045l76.138,44.335c6.42,3.707,12.122.66,12.122-6.706V311.729c0-7.366-5.7-16.261-12.122-19.968Z" transform="translate(-485.531 -240.643)" opacity="0.818" fill="url(#ef)"/><path d="M498.42,247.971c-6.371-3.678-11.536-.733-11.536,6.577V290.24a25.418,25.418,0,0,0,11.536,19.9l75.944,44.178c6.371,3.678,11.784.7,11.784-6.617V312a25.617,25.617,0,0,0-11.784-19.858Z" transform="translate(-485.526 -240.621)" opacity="0.909" fill="url(#eg)"/><path d="M498.465,248.514c-6.322-3.65-11.45-.728-11.45,6.528v35.276a25.228,25.228,0,0,0,11.45,19.75l75.75,44.019c6.322,3.65,11.45.728,11.45-6.528V312.282a25.229,25.229,0,0,0-11.45-19.75Z" transform="translate(-485.519 -240.6)" fill="url(#eh)"/></g><path d="M497.316,246.558c-6.448-3.723-11.677-.742-11.677,6.657v42.462a25.73,25.73,0,0,0,11.677,20.136L574.569,360.7c6.448,3.723,11.677.745,11.677-6.657V311.588a25.725,25.725,0,0,0-11.677-20.136Z" transform="translate(-486.573 -240.676)" opacity="0.8" fill="url(#ei)"/><path d="M574.569,291.45l-77.253-44.892c-6.448-3.723-11.677-.742-11.677,6.657v1.129c0-7.4,5.228-10.38,11.677-6.657l77.253,44.892a25.726,25.726,0,0,1,11.677,20.136v-1.129A25.725,25.725,0,0,0,574.569,291.45Z" transform="translate(-486.573 -240.676)" fill="url(#ej)"/></g><g transform="translate(177.252 80.706)"><g transform="translate(10.599 49.317)"><path d="M390.436,192.313a3.348,3.348,0,0,1-.389-1.707V184.4q0-1.044.389-1.257t1.3.309l.372.215V184.8l-.295-.171q-.3-.171-.426-.077c-.087.063-.131.234-.131.546V191.3a1.51,1.51,0,0,0,.131.7,1.074,1.074,0,0,0,.426.414l.295.171v1.131l-.372-.215a3.431,3.431,0,0,1-1.3-1.192Z" transform="translate(-390.045 -183.08)" fill="#fff"/><path d="M392.83,184.712l1.2.7v3.706l1.534-2.821,1.206.7-1.435,2.4,1.456,6.408-1.257-.726-1.018-4.51-.482.841v2.81l-1.2-.7Z" transform="translate(-389.938 -183.021)" fill="#fff"/><path d="M397.2,187.232l1.719.993.768,6.739h.021l.766-5.854,1.719.993v8.8l-1.138-.658v-6.659l-.021-.012-.876,6.153-1.009-.581-.876-7.165-.021-.014v6.659l-1.051-.606Z" transform="translate(-389.766 -182.923)" fill="#fff"/><path d="M402.807,198.788l.3.171q.3.171.426.077c.089-.063.131-.234.131-.546v-6.2a1.5,1.5,0,0,0-.131-.7,1.06,1.06,0,0,0-.426-.414l-.3-.171v-1.131l.372.215a3.44,3.44,0,0,1,1.3,1.189,3.354,3.354,0,0,1,.389,1.707v6.207q0,1.044-.389,1.257t-1.3-.309l-.372-.215Z" transform="translate(-389.556 -182.823)" fill="#fff"/></g><path d="M407.47,185.883a2,2,0,0,1-.66-.67c-.414-.658-.452-1.4-.087-1.669,3.091-2.231,4.793-6.408,4.793-11.763,0-12.112-8.588-26.926-19.144-33.014s-19.143-1.2-19.143,10.916a38,38,0,0,0,4.793,17.3c.365.686.325,1.386-.089,1.569s-1.044-.234-1.4-.916a41.97,41.97,0,0,1-5.292-19.1c0-13.377,9.485-18.783,21.141-12.054s21.141,23.089,21.141,36.463c0,5.914-1.873,10.536-5.294,12.993a.684.684,0,0,1-.754-.049Z" transform="translate(-371.231 -133.577)" fill="#fefe05"/><path d="M377.275,168.451a2.085,2.085,0,0,1-.749-.82,41.969,41.969,0,0,1-5.292-19.1c0-13.377,9.485-18.783,21.141-12.054a39.845,39.845,0,0,1,11.5,10.536c.468.611.595,1.4.293,1.754s-.92.15-1.381-.468a36.1,36.1,0,0,0-10.415-9.544c-10.555-6.088-19.144-1.2-19.144,10.916a38,38,0,0,0,4.793,17.3c.365.686.325,1.386-.089,1.569a.747.747,0,0,1-.66-.084Z" transform="translate(-371.234 -133.58)" fill="url(#ek)"/><g transform="translate(10.601 13.99)"><path d="M383.79,164.376a9.185,9.185,0,0,1-1.084-4.5v-1.709l2.718,1.569V161.6a3.1,3.1,0,0,0,1.489,2.929c.487.281.859.321,1.11.117s.379-.747.379-1.625v-1.709a5.111,5.111,0,0,0-.445-2.311,3.537,3.537,0,0,0-1.44-1.445l-.965-.56v-3l1.047.6q.862.5,1.293.234t.431-1.461v-1.531a3.82,3.82,0,0,0-.391-1.815,2.73,2.73,0,0,0-1.047-1.115q-1.386-.8-1.386,1.15v1.379l-2.718-1.569v-1.11q0-2.519,1.084-3.243t3.126.454a8.1,8.1,0,0,1,3.138,3.147,9.145,9.145,0,0,1,1.07,4.475v.749a4.608,4.608,0,0,1-.494,2.459,1.442,1.442,0,0,1-1.543.595v.061a6.82,6.82,0,0,1,1.62,2.5,8.867,8.867,0,0,1,.5,3.044v1.859q0,2.519-1.084,3.229t-3.2-.515a8.254,8.254,0,0,1-3.2-3.2Z" transform="translate(-372.053 -137.782)" fill="#fff"/><path d="M394,170.285a9.27,9.27,0,0,1-1.1-4.549V164.1l2.718,1.569v1.89a3.08,3.08,0,0,0,1.492,2.9q1.492.859,1.489-1.171v-4.709a3.1,3.1,0,0,0-1.489-2.929q-1.489-.862-1.491,1.211v.18l-2.718-1.569.524-11.426,7.582,4.376v3l-5.02-2.9-.234,4.872.054.03q.808-1.063,2.482-.1a5.83,5.83,0,0,1,2.379,2.6,9.312,9.312,0,0,1,.81,4.037v4.741q0,2.55-1.1,3.278t-3.189-.468A8.246,8.246,0,0,1,394,170.285Z" transform="translate(-392.901 -150.043)" fill="#fff"/></g></g><g transform="translate(301.842 214.102)"><ellipse cx="2.421" cy="4.193" rx="2.421" ry="4.193" transform="matrix(0.863, -0.505, 0.505, 0.863, 0.864, 4.034)" fill="#fff"/><ellipse cx="2.421" cy="4.193" rx="2.421" ry="4.193" transform="matrix(0.863, -0.505, 0.505, 0.863, 0.864, 40.242)" fill="#fefe05"/><path d="M499.645,278.682c0,.852-.6,1.194-1.344.768a2.961,2.961,0,0,1-1.344-2.32c0-.852.6-1.2,1.344-.768a2.964,2.964,0,0,1,1.344,2.32Z" transform="translate(-493.23 -257.82)" fill="#fff"/><path d="M499.645,291.313c0,.852-.6,1.194-1.344.766a2.959,2.959,0,0,1-1.344-2.318c0-.852.6-1.2,1.344-.768a2.964,2.964,0,0,1,1.344,2.32Z" transform="translate(-493.23 -257.337)" fill="#fff"/><path d="M499.645,284.813c0,.852-.6,1.194-1.344.766a2.959,2.959,0,0,1-1.344-2.318c0-.852.6-1.2,1.344-.768a2.965,2.965,0,0,1,1.344,2.32Z" transform="translate(-493.23 -257.585)" fill="#fff"/><path d="M500.576,271.358a4.629,4.629,0,0,1-2.292-.7,10.846,10.846,0,0,1-4.917-8.478c0-2.234,1.152-3.679,2.934-3.679a4.631,4.631,0,0,1,2.292.7,10.846,10.846,0,0,1,4.917,8.478C503.512,269.916,502.356,271.358,500.576,271.358ZM496.3,259.129c-1.426,0-2.311,1.171-2.311,3.044a10.155,10.155,0,0,0,4.606,7.94,4.065,4.065,0,0,0,1.981.613c1.426,0,2.311-1.171,2.311-3.044a10.159,10.159,0,0,0-4.6-7.94,4.081,4.081,0,0,0-1.983-.613Z" transform="translate(-493.367 -258.499)" fill="#fff"/></g><g transform="matrix(0.951, 0.309, -0.309, 0.951, 338.944, 240.315)"><path d="M9.285,21.628l-1,7.5-1.758-.349L2.786,20.384l1.67.32,2.413,5.815q.194.471.278.818l.029.006q-.031-.364.006-.784l.466-5.244Zm6.4,8.967-4.18-.831L10.12,21.788l4.033.772.252,1.473-2.46-.474.307,1.78,2.287.445.25,1.462L12.5,26.8l.314,1.823,2.616.516ZM21,31.652l-4.193-.833-1.363-8.011,1.587.3,1.111,6.561,2.612.516Zm3.723.875q-1.526-.3-2.673-1.614T20.6,27.8q-.32-1.908.458-2.9t2.4-.687q1.532.293,2.666,1.612T27.559,29q.311,1.9-.479,2.874T24.721,32.527ZM23.67,25.771q-.846-.163-1.223.459t-.18,1.8q.2,1.2.81,1.987t1.415.951q.83.164,1.206-.416t.179-1.785q-.207-1.257-.8-2.048T23.67,25.771Zm10.874,8.294q-.724.271-2,.017-1.659-.33-2.784-1.609t-1.422-3.1q-.317-1.943.553-2.948t2.584-.681q1.063.2,1.841.645l.283,1.769q-.808-.629-1.739-.809-1.02-.2-1.529.4t-.309,1.825q.19,1.174.891,1.986t1.7,1.009q.954.188,1.664-.175Zm2.95.865L35.855,34.6,34.56,26.468l1.645.315Zm1.659.33L37.87,27.1l2.605.5q1.968.377,3.109,1.569t1.448,3.193q.293,1.914-.607,2.842t-2.677.571Zm.608-6.337.809,5.178.819.162q1.077.213,1.58-.383t.313-1.836q-.181-1.172-.9-1.962t-1.814-1ZM53.3,38.072l-1.838-.365-.806-1.93L48,35.253l-.247,1.717-1.809-.36L47.4,28.928l2,.383Zm-3.243-3.793-1.22-2.924q-.135-.328-.237-.766l-.042-.008q.029.357-.022.694l-.389,2.63Zm4.18,3.979L53.013,30l2.678.513q2.023.387,3.185,1.6t1.454,3.235q.28,1.937-.659,2.873t-2.765.569Zm.7-6.408.772,5.241.842.166q1.107.219,1.632-.383t.344-1.856q-.172-1.186-.9-1.988t-1.858-1.02Z" transform="translate(-23.678 -21.916)" fill="#fff"/></g><g transform="translate(317.43 211.424)"><g transform="translate(0.599 41.317)"><path d="M390.436,192.313a3.348,3.348,0,0,1-.389-1.707V184.4q0-1.044.389-1.257t1.3.309l.372.215V184.8l-.295-.171q-.3-.171-.426-.077c-.087.063-.131.234-.131.546V191.3a1.51,1.51,0,0,0,.131.7,1.074,1.074,0,0,0,.426.414l.295.171v1.131l-.372-.215a3.431,3.431,0,0,1-1.3-1.192Z" transform="translate(-390.045 -183.08)" fill="#fff"/><path d="M392.83,184.712l1.2.7v3.706l1.534-2.821,1.206.7-1.435,2.4,1.456,6.408-1.257-.726-1.018-4.51-.482.841v2.81l-1.2-.7Z" transform="translate(-389.938 -183.021)" fill="#fff"/><path d="M397.2,187.232l1.719.993.768,6.739h.021l.766-5.854,1.719.993v8.8l-1.138-.658v-6.659l-.021-.012-.876,6.153-1.009-.581-.876-7.165-.021-.014v6.659l-1.051-.606Z" transform="translate(-389.766 -182.923)" fill="#fff"/><path d="M402.807,198.788l.3.171q.3.171.426.077c.089-.063.131-.234.131-.546v-6.2a1.5,1.5,0,0,0-.131-.7,1.06,1.06,0,0,0-.426-.414l-.3-.171v-1.131l.372.215a3.44,3.44,0,0,1,1.3,1.189,3.354,3.354,0,0,1,.389,1.707v6.207q0,1.044-.389,1.257t-1.3-.309l-.372-.215Z" transform="translate(-389.556 -182.823)" fill="#fff"/></g></g><path d="M476.48,332.013c0,3.842-2.714,5.385-6.062,3.456a13.346,13.346,0,0,1-6.06-10.452c0-3.842,2.714-5.385,6.06-3.456A13.346,13.346,0,0,1,476.48,332.013Z" transform="translate(-295.478 -98.458)" fill="#fefe05"/><g transform="translate(164.73 217.077)"><path d="M474.923,341.685a9.313,9.313,0,0,1-4.612-1.4,21.972,21.972,0,0,1-9.956-17.174c0-4.484,2.3-7.38,5.854-7.38a9.3,9.3,0,0,1,4.612,1.4,21.967,21.967,0,0,1,9.956,17.174C480.786,338.791,478.489,341.685,474.923,341.685Zm-8.705-24.917c-2.976,0-4.826,2.43-4.826,6.343a20.838,20.838,0,0,0,9.438,16.275,8.413,8.413,0,0,0,4.093,1.26c2.976,0,4.826-2.428,4.826-6.341a20.822,20.822,0,0,0-9.438-16.275A8.414,8.414,0,0,0,466.218,316.768Z" transform="translate(-460.355 -315.726)" fill="#fefe05"/></g><g transform="translate(191.316 214.544)"><path d="M6.138,29.881q-.971.165-2.341-.568Q2.282,28.5,1.48,27T.8,23.669q.122-1.843,1.154-2.5t2.63.174q1.007.529,1.753,1.28l-.116,1.663q-.7-.913-1.757-1.471-.885-.466-1.49-.046t-.683,1.609q-.081,1.2.372,2.127t1.3,1.374q.51.271.821.251L4.889,26.6l-1.262-.67.1-1.408,2.69,1.423ZM11.15,33.1,7.333,31.061l.554-7.85,3.691,1.938L11.472,26.6l-2.25-1.186L9.1,27.166l2.091,1.106-.1,1.438L8.993,28.6,8.865,30.4l2.39,1.272Zm3.731,2.135q-1.382-.738-2.168-2.3t-.657-3.326q.137-1.869,1.107-2.561t2.439.077q1.39.73,2.164,2.295T18.4,32.8q-.145,1.863-1.122,2.528T14.88,35.235Zm.564-6.594q-.767-.4-1.27.062t-.588,1.621q-.087,1.17.311,2.089t1.126,1.307q.752.4,1.244-.027t.584-1.606q.094-1.23-.283-2.142T15.445,28.641ZM23.873,39.6q-.753.035-1.908-.582-1.5-.8-2.277-2.328t-.635-3.306q.149-1.9,1.21-2.576t2.619.138q.965.507,1.6,1.15l-.141,1.73q-.623-.827-1.468-1.272-.926-.488-1.549-.082t-.717,1.6q-.091,1.149.388,2.113t1.383,1.446q.864.46,1.625.335Zm5.089,3.011L25,40.5l.655-7.953,3.835,2.014-.125,1.469-2.338-1.232-.148,1.775,2.173,1.149-.123,1.457-2.17-1.151L26.6,39.84l2.483,1.322Zm6.682,3.569L33.9,45.254l-.863-2.607q-.1-.3-.188-.537t-.19-.43q-.1-.189-.212-.322t-.253-.207l-.406-.216-.264,3.05-1.5-.8.684-7.982,2.4,1.259q2.455,1.29,2.261,3.476-.037.42-.177.718t-.362.478q-.223.18-.52.239t-.65-.006l0,.022q.145.135.275.335t.246.437q.117.237.219.493t.185.492ZM32.1,37.348l-.193,2.228.654.346q.487.258.811.079t.374-.685q.092-1.052-.963-1.608Zm8.959,11.43q-.785.026-1.983-.614-1.558-.833-2.351-2.388T36.1,42.419q.172-1.925,1.284-2.6T40.11,40q1,.526,1.661,1.186l-.163,1.752q-.642-.846-1.518-1.307-.96-.506-1.613-.1t-.762,1.617q-.105,1.163.385,2.147t1.428,1.483q.9.477,1.69.36Zm7.2,4.147-1.694-.9-.317-2.051-2.445-1.3L43.161,50.2l-1.667-.89,3.255-6.733,1.845.969Zm-2.233-4.538-.48-3.106q-.053-.348-.046-.789l-.038-.02q-.058.343-.188.642l-1.009,2.339Z" transform="translate(0 0)" fill="#fff"/></g></g></g></g></g></svg>