<svg width="919.976" height="1455.34" viewBox="0 0 919.976 1455.34" xmlns="http://www.w3.org/2000/svg" xmlns:xlink="http://www.w3.org/1999/xlink" overflow="hidden"><g id="OBJECTS" transform="translate(-22.09 -153.11)"><path d="M481.447 153.11C227.809 153.11 22.09 377.328 22.09 653.551 22.056 809.6 142.546 1009.08 245.141 1191.98 370.122 1414.78 481.447 1608.44 481.447 1608.44 481.447 1608.44 593.44 1413.36 718.09 1191.98 821.715 1007.93 942.066 809.945 942.066 653.551 942.066 377.253 735.53 153.11 481.447 153.11Z" id="Trazado_7" fill="#0E9E48"/><path d="M283.494 661.567C153.863 660.979 47.92 552.549 47.92 419.123 47.92 285.697 153.863 176.94 283.494 176.94 414.041 176.94 520.18 285.631 520.18 419.123 520.114 552.549 414.041 661.567 283.494 661.567Z" id="Trazado_8" fill="#FFFFFF" transform="translate(198.028 162.211)"/></g></svg>