<svg width="1293.33" height="1063.98" viewBox="0 0 1293.33 1063.98" xmlns="http://www.w3.org/2000/svg" xmlns:xlink="http://www.w3.org/1999/xlink" overflow="hidden"><defs><linearGradient x1="0.764" y1="1.096" x2="0.191" y2="-0.078" gradientUnits="objectBoundingBox" id="linear-gradient"><stop offset="0" stop-color="#706F6F"/><stop offset="0.67" stop-color="#FFFFFF"/><stop offset="0.87" stop-color="#C6C6C6"/><stop offset="1" stop-color="#C6C6C6"/></linearGradient><linearGradient x1="1.216" y1="0.605" x2="-0.308" y2="0.382" gradientUnits="objectBoundingBox" id="linear-gradient-2"><stop offset="0" stop-color="#DADADA"/><stop offset="0.38" stop-color="#DADADA"/><stop offset="0.46" stop-color="#706F6F"/><stop offset="0.56" stop-color="#FFFFFF"/><stop offset="0.65" stop-color="#9D9D9C"/><stop offset="1" stop-color="#C6C6C6"/></linearGradient><linearGradient x1="0.3" y1="0.981" x2="0.868" y2="-0.082" gradientUnits="objectBoundingBox" id="linear-gradient-3"><stop offset="0" stop-color="#706F6F"/><stop offset="0.27" stop-color="#706F6F"/><stop offset="0.6" stop-color="#FFFFFF"/><stop offset="0.8" stop-color="#C6C6C6"/><stop offset="1" stop-color="#C6C6C6"/></linearGradient><linearGradient x1="-0.066" y1="1.077" x2="0.865" y2="-0.194" xlink:href="#linear-gradient-3" id="linear-gradient-4"></linearGradient><linearGradient x1="1.543" y1="-1.066" x2="-1.258" y2="3.408" gradientUnits="objectBoundingBox" id="linear-gradient-5"><stop offset="0" stop-color="#706F6F"/><stop offset="0.4" stop-color="#FFFFFF"/><stop offset="1" stop-color="#C6C6C6"/></linearGradient><linearGradient x1="1.112" y1="-0.264" x2="0.097" y2="1.274" xlink:href="#linear-gradient-3" id="linear-gradient-6"></linearGradient><linearGradient x1="-0.067" y1="1.077" x2="0.865" y2="-0.194" xlink:href="#linear-gradient-3" id="linear-gradient-7"></linearGradient><linearGradient x1="-0.072" y1="1.069" x2="0.971" y2="-0.309" xlink:href="#linear-gradient-3" id="linear-gradient-8"></linearGradient><linearGradient x1="0.299" y1="0.98" x2="0.867" y2="-0.083" xlink:href="#linear-gradient-3" id="linear-gradient-9"></linearGradient><linearGradient x1="0.299" y1="0.982" x2="0.868" y2="-0.083" xlink:href="#linear-gradient-3" id="linear-gradient-10"></linearGradient><linearGradient x1="-0.067" y1="1.079" x2="0.865" y2="-0.193" xlink:href="#linear-gradient-3" id="linear-gradient-11"></linearGradient><linearGradient x1="1.112" y1="-0.265" x2="0.097" y2="1.274" xlink:href="#linear-gradient-3" id="linear-gradient-13"></linearGradient><linearGradient x1="-0.028" y1="1.064" x2="0.836" y2="-0.158" xlink:href="#linear-gradient-3" id="linear-gradient-15"></linearGradient><linearGradient x1="0.314" y1="1.147" x2="0.694" y2="-0.095" gradientUnits="objectBoundingBox" id="linear-gradient-16"><stop offset="0" stop-color="#706F6F"/><stop offset="0.46" stop-color="#706F6F"/><stop offset="0.56" stop-color="#FFFFFF"/><stop offset="0.65" stop-color="#9D9D9C"/><stop offset="1" stop-color="#C6C6C6"/></linearGradient><linearGradient x1="0.215" y1="1.424" x2="0.647" y2="0.105" xlink:href="#linear-gradient-16" id="linear-gradient-17"></linearGradient><linearGradient x1="-0.015" y1="1.024" x2="0.859" y2="-0.185" xlink:href="#linear-gradient-3" id="linear-gradient-18"></linearGradient><linearGradient x1="1.216" y1="0.605" x2="-0.307" y2="0.382" xlink:href="#linear-gradient-2" id="linear-gradient-19"></linearGradient><linearGradient x1="-0.029" y1="1.022" x2="0.857" y2="-0.186" xlink:href="#linear-gradient-3" id="linear-gradient-20"></linearGradient><linearGradient x1="0.683" y1="0.978" x2="0.33" y2="0.049" xlink:href="#linear-gradient-2" id="linear-gradient-21"></linearGradient><linearGradient x1="0.975" y1="1.071" x2="0.288" y2="-0.073" xlink:href="#linear-gradient" id="linear-gradient-22"></linearGradient><linearGradient x1="0.193" y1="-0.019" x2="0.805" y2="1.02" gradientUnits="objectBoundingBox" id="linear-gradient-23"><stop offset="0" stop-color="#706F6F"/><stop offset="0.76" stop-color="#FFFFFF"/><stop offset="1" stop-color="#C6C6C6"/></linearGradient><linearGradient x1="0.974" y1="1.072" x2="0.286" y2="-0.071" xlink:href="#linear-gradient" id="linear-gradient-24"></linearGradient><linearGradient x1="0.195" y1="-0.02" x2="0.806" y2="1.019" xlink:href="#linear-gradient-23" id="linear-gradient-25"></linearGradient></defs><g id="Grupo_164" transform="translate(-457.854 -1153)"><g id="moto-blue" transform="translate(275.464 935.55)"><path d="M506.039 260.1 657.093 346.153 373.758 512.075 219.99 424.285Z" id="Trazado_7" fill="#575756" fill-rule="evenodd" transform="translate(370.421 420.172)"/><path d="M409.554 262.6C427.242 317.835 335.329 475.292 325.562 514.683 294.743 499.165 285.628 494.825 273.691 483.864 221.929 436.334 266.312 429.389 212.379 402.043 251.012 382.076 371.031 282.458 409.554 262.6Z" id="Trazado_8" fill="#B10A0A" fill-rule="evenodd" transform="translate(295.45 444.801)"/><path d="M286.1 248.235C234.229 279.488 258.971 360.875 323.321 357.728L358.806 355.992C361.018 356.103 363.235 355.994 365.425 355.667L365.425 355.667C366.51 355.45 367.487 355.233 368.572 354.907 390.492 348.07 399.282 313.345 388.105 277.207 376.928 241.069 350.124 217.307 328.095 224.143 325.921 224.814 323.842 225.762 321.91 226.964L321.91 226.964Z" id="Trazado_9" fill="url(#linear-gradient)" fill-rule="evenodd" transform="translate(745.974 54.4)"/><path d="M286.1 244.215C234.229 275.468 258.971 356.855 323.321 353.708L358.806 351.972C360.251 352.08 361.702 352.08 363.147 351.972 373.456 335.695 375.518 308.672 366.947 280.894 357.94 251.92 339.818 230.108 321.262 223.38Z" id="Trazado_10" fill="#D20000" fill-rule="evenodd" transform="translate(745.974 58.42)"/><g id="Grupo_74" transform="translate(244.957 652.322)"><path d="M188.529 521.753C183.971 536.945 222.603 550.835 227.92 534.015L311.369 285.3C315.71 272.278 276.21 260.016 271.977 273.038Z" id="Trazado_11" fill="url(#linear-gradient-2)" fill-rule="evenodd" transform="translate(-188.156 -159.465)"/><path d="M200.04 354.273C184.088 359.482 222.72 379.991 235.525 375.216L380.177 321.716C398.733 314.879 459.828 290.463 449.41 267.132 432.482 228.932 392.01 319.545 397.865 281.132Z" id="Trazado_12" fill="#575756" fill-rule="evenodd" transform="translate(-108.513 -257.524)"/><path d="M195.276 314.323C189.959 330.275 230.435 346.123 236.62 328.43L249.968 290.884C260.277 262.019 213.94 262.884 210.576 271.784Z" id="Trazado_13" fill="#575756" fill-rule="evenodd" transform="translate(-122.74 -171.021)"/></g><g id="Grupo_75" transform="translate(766.914 452.014)"><path d="M246.617 712.135C242.898 712.138 239.462 710.151 237.61 706.926 234.789 702.028 236.473 695.77 241.371 692.949 241.371 692.948 241.372 692.948 241.372 692.948L241.41 692.926 476.456 559.126C529.519 528.852 496.313 428.8 464.192 332 454.86 303.895 446.07 277.417 439.233 252.132 437.785 246.604 441.093 240.95 446.62 239.502 452.076 238.074 457.671 241.278 459.2 246.706 465.928 271.448 474.609 297.706 483.833 325.489 518.558 430.207 554.477 538.398 486.763 577.03L251.717 710.83C250.151 711.679 248.399 712.127 246.617 712.135Z" id="Trazado_14" fill="#706F6F" transform="translate(-236.255 -239.066)"/></g><g id="Grupo_91" transform="translate(812.168 559.986)"><g id="Grupo_76" transform="matrix(1 0 0 1 0 117.414)"><path d="M249.266 304.876 319.042 266.9C331.63 260.064 343.892 258.436 355.395 262.234L433.2 287.3C437.649 288.711 440.145 292.726 439.711 297.935 439.156 303.301 436.044 308.068 431.355 310.735L366.028 349.15C353.006 356.75 340.092 358.699 328.047 354.793L246.985 328.641C242.427 327.23 240.04 323.107 240.474 317.789 241.07 312.288 244.367 307.446 249.266 304.876Z" id="Trazado_15" fill="#3C3C3B" fill-rule="evenodd" transform="translate(-240.425 -255.994)"/><path d="M249.375 304.486 319.151 266.505C331.739 259.669 344.001 258.041 355.504 261.839L433.31 286.906C437.759 288.317 440.255 292.332 439.821 297.541 439.266 302.907 436.154 307.674 431.465 310.341L366.138 348.756C353.116 356.356 340.202 358.305 328.157 354.399L247.1 328.251C242.542 326.84 240.155 322.717 240.589 317.399 241.213 311.911 244.499 307.081 249.375 304.486Z" id="Trazado_16" fill="#9D9D9C" fill-rule="evenodd" transform="translate(-239.342 -259.836)"/></g><g id="Grupo_77" transform="translate(2.496 109.058)"><path d="M249.5 304.106 319.276 266.126C331.864 259.289 344.126 257.662 355.629 261.46L433.435 286.527C437.884 287.938 440.38 291.953 439.946 297.162 439.391 302.528 436.279 307.295 431.59 309.962L366.263 348.377C353.241 355.977 340.328 357.927 328.283 354.02L247.221 327.867C242.663 326.456 240.276 322.333 240.71 317.015 241.321 311.522 244.613 306.688 249.5 304.106Z" id="Trazado_17" fill="#3C3C3B" fill-rule="evenodd" transform="translate(-240.655 -255.223)"/><path d="M249.606 303.716 319.382 265.735C331.97 258.899 344.232 257.271 355.735 261.069L433.541 286.136C437.99 287.547 440.486 291.562 440.052 296.771 439.498 302.137 436.386 306.904 431.697 309.571L366.37 347.986C353.348 355.586 340.435 357.535 328.389 353.629L247.327 327.477C242.769 326.066 240.382 321.943 240.816 316.625 241.485 311.153 244.76 306.344 249.606 303.716Z" id="Trazado_18" fill="#9D9D9C" fill-rule="evenodd" transform="translate(-239.572 -259.066)"/></g><g id="Grupo_78" transform="translate(5.1 100.703)"><path d="M249.736 303.326 319.512 265.345C332.1 258.508 344.362 256.881 355.865 260.679L433.671 285.746C438.12 287.157 440.616 291.172 440.182 296.381 439.627 301.747 436.515 306.514 431.826 309.181L366.5 347.6C353.478 355.2 340.565 357.15 328.52 353.243L247.458 327.091C242.9 325.68 240.513 321.557 240.947 316.239 241.572 310.75 244.859 305.921 249.736 303.326Z" id="Trazado_19" fill="#3C3C3B" fill-rule="evenodd" transform="translate(-240.895 -254.552)"/><path d="M249.845 302.946 319.621 264.966C332.209 258.129 344.471 256.502 355.974 260.3L433.78 285.367C438.229 286.778 440.725 290.793 440.291 296.002 439.736 301.368 436.624 306.135 431.935 308.802L366.608 347.217C353.586 354.817 340.673 356.767 328.628 352.86L247.566 326.708C243.008 325.297 240.621 321.174 241.055 315.856 241.622 310.346 244.927 305.493 249.845 302.946Z" id="Trazado_20" fill="#9D9D9C" fill-rule="evenodd" transform="translate(-239.812 -258.296)"/></g><g id="Grupo_79" transform="translate(7.596 92.239)"><path d="M249.966 302.556 319.742 264.575C332.33 257.738 344.592 256.111 356.095 259.909L433.895 284.976C438.344 286.387 440.84 290.402 440.406 295.611 439.852 300.977 436.74 305.744 432.051 308.411L366.724 346.826C353.702 354.426 340.789 356.376 328.743 352.469L247.681 326.317C243.123 324.906 240.736 320.783 241.17 315.465 241.84 309.992 245.118 305.182 249.966 302.556Z" id="Trazado_21" fill="#3C3C3B" fill-rule="evenodd" transform="translate(-241.126 -253.674)"/><path d="M250.075 302.166 319.851 264.185C332.439 257.348 344.701 255.721 356.204 259.519L434.01 284.586C438.459 285.997 440.955 290.012 440.521 295.221 439.966 300.587 436.854 305.354 432.165 308.021L366.839 346.44C353.817 354.04 340.903 355.99 328.858 352.083L247.8 325.931C243.242 324.52 240.855 320.396 241.289 315.079 241.956 309.607 245.23 304.796 250.075 302.166Z" id="Trazado_22" fill="#9D9D9C" fill-rule="evenodd" transform="translate(-240.042 -257.515)"/></g><g id="Grupo_80" transform="translate(10.201 83.883)"><path d="M250.205 301.786 319.981 263.8C332.569 256.964 344.831 255.336 356.334 259.134L434.14 284.201C438.589 285.612 441.085 289.627 440.651 294.836 440.097 300.202 436.985 304.969 432.296 307.636L366.969 346.051C353.947 353.651 341.034 355.6 328.988 351.694L247.926 325.542C243.368 324.131 240.981 320.008 241.415 314.69 241.984 309.183 245.288 304.332 250.205 301.786Z" id="Trazado_23" fill="#3C3C3B" fill-rule="evenodd" transform="translate(-241.365 -252.903)"/><path d="M250.315 301.4 320.091 263.419C332.679 256.582 344.941 254.955 356.444 258.753L434.25 283.82C438.699 285.231 441.195 289.246 440.761 294.455 440.206 299.821 437.094 304.588 432.405 307.255L367.079 345.67C354.057 353.27 341.144 355.22 329.098 351.313L248.036 325.161C243.478 323.75 241.091 319.626 241.525 314.309 242.151 308.821 245.439 303.994 250.315 301.4Z" id="Trazado_24" fill="#9D9D9C" fill-rule="evenodd" transform="translate(-240.282 -256.745)"/></g><g id="Grupo_81" transform="translate(12.697 75.527)"><path d="M250.436 301.006 320.212 263.025C332.8 256.188 345.062 254.561 356.565 258.359L434.371 283.426C438.82 284.837 441.316 288.852 440.882 294.061 440.327 299.427 437.215 304.194 432.526 306.861L367.2 345.281C354.178 352.881 341.265 354.831 329.219 350.924L248.157 324.771C243.599 323.36 241.212 319.237 241.646 313.919 242.314 308.446 245.589 303.635 250.436 301.006Z" id="Trazado_25" fill="#3C3C3B" fill-rule="evenodd" transform="translate(-241.595 -252.232)"/><path d="M250.546 300.626 320.322 262.645C332.91 255.809 345.172 254.181 356.675 257.979L434.481 283.046C438.93 284.457 441.426 288.472 440.992 293.681 440.437 299.047 437.325 303.814 432.636 306.481L367.309 344.9C354.287 352.5 341.374 354.449 329.329 350.543L248.267 324.391C243.709 322.98 241.322 318.857 241.756 313.539 242.395 308.055 245.678 303.231 250.546 300.626Z" id="Trazado_26" fill="#9D9D9C" fill-rule="evenodd" transform="translate(-240.512 -255.976)"/></g><g id="Grupo_82" transform="translate(15.301 67.063)"><path d="M250.676 300.236 320.452 262.255C333.04 255.419 345.302 253.791 356.805 257.589L434.611 282.656C439.06 284.067 441.556 288.082 441.122 293.291 440.567 298.657 437.455 303.424 432.766 306.091L367.439 344.51C354.417 352.11 341.504 354.059 329.458 350.153L248.4 324C243.842 322.589 241.455 318.466 241.889 313.148 242.514 307.66 245.8 302.831 250.676 300.236Z" id="Trazado_27" fill="#3C3C3B" fill-rule="evenodd" transform="translate(-241.836 -251.353)"/><path d="M250.786 299.846 320.562 261.865C333.15 255.028 345.412 253.401 356.915 257.199L434.721 282.266C439.17 283.677 441.666 287.692 441.232 292.901 440.677 298.267 437.565 303.034 432.876 305.701L367.549 344.12C354.527 351.72 341.613 353.67 329.568 349.763L248.506 323.61C243.948 322.199 241.561 318.076 241.995 312.758 242.62 307.269 245.908 302.44 250.786 299.846Z" id="Trazado_28" fill="#9D9D9C" fill-rule="evenodd" transform="translate(-240.752 -255.195)"/></g><g id="Grupo_83" transform="translate(17.797 58.707)"><path d="M250.9 299.466 320.676 261.485C333.264 254.649 345.526 253.021 357.029 256.819L434.835 281.886C439.284 283.297 441.78 287.312 441.346 292.521 440.791 297.887 437.679 302.654 432.99 305.321L367.669 343.74C354.647 351.34 341.734 353.289 329.689 349.383L248.627 323.231C244.069 321.82 241.682 317.697 242.116 312.379 242.724 306.885 246.014 302.049 250.9 299.466Z" id="Trazado_29" fill="#3C3C3B" fill-rule="evenodd" transform="translate(-242.065 -250.583)"/><path d="M251.016 299.076 320.792 261.1C333.38 254.263 345.642 252.636 357.145 256.434L434.95 281.5C439.399 282.911 441.895 286.926 441.461 292.135 440.907 297.501 437.795 302.268 433.106 304.935L367.779 343.35C354.757 350.95 341.844 352.9 329.798 348.993L248.736 322.841C244.178 321.43 241.791 317.307 242.225 311.989 242.893 306.516 246.169 301.704 251.016 299.076Z" id="Trazado_30" fill="#9D9D9C" fill-rule="evenodd" transform="translate(-240.982 -254.425)"/></g><g id="Grupo_84" transform="translate(20.401 50.351)"><path d="M251.146 298.686 320.922 260.706C333.51 253.869 345.772 252.242 357.275 256.04L435.081 281.107C439.53 282.518 442.026 286.533 441.592 291.742 441.037 297.108 437.925 301.875 433.236 304.542L367.909 342.96C354.887 350.56 341.973 352.51 329.928 348.603L248.866 322.45C244.308 321.039 241.921 316.916 242.355 311.598 242.98 306.109 246.268 301.28 251.146 298.686Z" id="Trazado_31" fill="#3C3C3B" fill-rule="evenodd" transform="translate(-242.305 -249.912)"/><path d="M251.256 298.306 321.032 260.325C333.62 253.488 345.882 251.861 357.385 255.659L435.191 280.726C439.64 282.137 442.136 286.152 441.702 291.361 441.147 296.727 438.035 301.494 433.346 304.161L368.019 342.58C354.997 350.18 342.084 352.13 330.038 348.223L248.976 322.071C244.418 320.66 242.031 316.537 242.465 311.219 243.06 305.719 246.357 300.876 251.256 298.306Z" id="Trazado_32" fill="#9D9D9C" fill-rule="evenodd" transform="translate(-241.222 -253.655)"/></g><g id="Grupo_85" transform="translate(22.897 41.996)"><path d="M251.375 297.916 321.151 259.935C333.739 253.098 346.001 251.471 357.504 255.269L435.31 280.336C439.759 281.747 442.255 285.762 441.821 290.971 441.267 296.337 438.155 301.104 433.466 303.771L368.139 342.19C355.117 349.79 342.204 351.74 330.158 347.833L249.1 321.681C244.542 320.27 242.155 316.146 242.589 310.829 243.256 305.357 246.53 300.545 251.375 297.916Z" id="Trazado_33" fill="#3C3C3B" fill-rule="evenodd" transform="translate(-242.536 -249.142)"/><path d="M251.486 297.536 321.262 259.555C333.85 252.719 346.112 251.091 357.615 254.889L435.421 279.956C439.87 281.367 442.366 285.382 441.932 290.591 441.377 295.957 438.265 300.724 433.576 303.391L368.249 341.806C355.227 349.406 342.314 351.355 330.268 347.449L249.207 321.3C244.649 319.889 242.262 315.766 242.696 310.448 243.306 304.954 246.598 300.118 251.486 297.536Z" id="Trazado_34" fill="#9D9D9C" fill-rule="evenodd" transform="translate(-241.452 -252.885)"/></g><g id="Grupo_86" transform="translate(25.501 33.531)"><path d="M251.615 297.146 321.391 259.165C333.979 252.328 346.241 250.701 357.744 254.499L435.55 279.566C439.999 280.977 442.495 284.992 442.061 290.201 441.505 295.567 438.391 300.335 433.7 303L368.379 341.42C355.357 349.02 342.444 350.97 330.399 347.063L249.337 320.911C244.779 319.5 242.392 315.376 242.826 310.059 243.392 304.548 246.696 299.694 251.615 297.146Z" id="Trazado_35" fill="#3C3C3B" fill-rule="evenodd" transform="translate(-242.776 -248.263)"/><path d="M251.726 296.756 321.5 258.775C334.088 251.938 346.35 250.311 357.853 254.109L435.659 279.176C440.108 280.587 442.604 284.602 442.17 289.811 441.616 295.177 438.504 299.944 433.815 302.611L368.488 341.026C355.466 348.626 342.553 350.576 330.507 346.669L249.445 320.516C244.887 319.105 242.5 314.982 242.934 309.664 243.561 304.176 246.849 299.349 251.726 296.756Z" id="Trazado_36" fill="#9D9D9C" fill-rule="evenodd" transform="translate(-241.692 -252.105)"/></g><g id="Grupo_87" transform="translate(27.997 25.176)"><path d="M251.845 296.366 321.621 258.385C334.209 251.548 346.471 249.921 357.974 253.719L435.78 278.786C440.229 280.197 442.725 284.212 442.291 289.421 441.737 294.787 438.625 299.554 433.936 302.221L368.609 340.64C355.587 348.24 342.674 350.189 330.628 346.283L249.566 320.131C245.008 318.72 242.621 314.597 243.055 309.279 243.723 303.806 246.998 298.995 251.845 296.366Z" id="Trazado_37" fill="#3C3C3B" fill-rule="evenodd" transform="translate(-243.006 -247.592)"/><path d="M251.955 295.986 321.731 258.006C334.319 251.169 346.581 249.542 358.084 253.34L435.89 278.407C440.339 279.818 442.835 283.833 442.401 289.042 441.846 294.408 438.734 299.175 434.045 301.842L368.719 340.26C355.697 347.86 342.783 349.81 330.738 345.903L249.677 319.75C245.119 318.339 242.732 314.216 243.166 308.898 243.834 303.426 247.109 298.615 251.955 295.986Z" id="Trazado_38" fill="#9D9D9C" fill-rule="evenodd" transform="translate(-241.922 -251.335)"/></g><g id="Grupo_88" transform="translate(30.602 16.82)"><path d="M252.085 295.6 321.861 257.619C334.449 250.782 346.711 249.155 358.214 252.953L436.02 278.02C440.469 279.431 442.965 283.446 442.531 288.655 441.977 294.021 438.865 298.788 434.176 301.455L368.849 339.87C355.827 347.47 342.914 349.419 330.868 345.513L249.807 319.36C245.249 317.949 242.862 313.826 243.296 308.508 243.922 303.021 247.209 298.193 252.085 295.6Z" id="Trazado_39" fill="#3C3C3B" fill-rule="evenodd" transform="translate(-243.246 -246.822)"/><path d="M252.2 295.216 321.976 257.235C334.564 250.399 346.826 248.771 358.329 252.569L436.135 277.636C440.584 279.047 443.08 283.062 442.646 288.271 442.091 293.637 438.979 298.404 434.29 301.071L368.959 339.49C355.937 347.09 343.023 349.04 330.978 345.133L249.917 318.98C245.359 317.569 242.972 313.446 243.406 308.128 243.973 302.617 247.279 297.762 252.2 295.216Z" id="Trazado_40" fill="#9D9D9C" fill-rule="evenodd" transform="translate(-242.162 -250.565)"/></g><g id="Grupo_89" transform="translate(33.097 8.356)"><path d="M252.316 294.826 322.092 256.845C334.68 250.009 346.942 248.381 358.445 252.179L436.251 277.246C440.7 278.657 443.196 282.672 442.762 287.881 442.207 293.247 439.095 298.014 434.406 300.681L369.079 339.1C356.057 346.7 343.144 348.65 331.098 344.743L250.036 318.59C245.478 317.179 243.091 313.056 243.525 307.738 244.165 302.254 247.448 297.431 252.316 294.826Z" id="Trazado_41" fill="#3C3C3B" fill-rule="evenodd" transform="translate(-243.475 -245.943)"/><path d="M252.425 294.436 322.201 256.456C334.789 249.619 347.051 247.992 358.554 251.79L436.36 276.857C440.809 278.268 443.305 282.283 442.871 287.492 442.316 292.858 439.204 297.625 434.515 300.292L369.189 338.71C356.167 346.31 343.254 348.259 331.209 344.353L250.147 318.2C245.589 316.789 243.202 312.666 243.636 307.348 244.304 301.876 247.579 297.065 252.425 294.436Z" id="Trazado_42" fill="#9D9D9C" fill-rule="evenodd" transform="translate(-242.392 -249.785)"/></g><g id="Grupo_90" transform="translate(35.702 0)"><path d="M252.555 294.046 322.331 256.065C334.919 249.228 347.181 247.601 358.684 251.399L436.49 276.466C440.939 277.877 443.435 281.892 443.001 287.101 442.446 292.467 439.334 297.234 434.645 299.901L369.319 338.32C356.297 345.92 343.384 347.869 331.338 343.963L250.276 317.811C245.718 316.4 243.331 312.277 243.765 306.959 244.39 301.47 247.677 296.64 252.555 294.046Z" id="Trazado_43" fill="#3C3C3B" fill-rule="evenodd" transform="translate(-243.715 -245.272)"/><path d="M252.666 293.666 322.442 255.685C335.03 248.848 347.292 247.221 358.795 251.019L436.595 276.086C441.044 277.497 443.54 281.512 443.106 286.721 442.551 292.087 439.439 296.854 434.75 299.521L369.429 337.94C356.407 345.54 343.494 347.49 331.449 343.583L250.387 317.43C245.829 316.019 243.442 311.896 243.876 306.578 244.501 301.089 247.789 296.26 252.666 293.666Z" id="Trazado_44" fill="#706F6F" fill-rule="evenodd" transform="translate(-242.632 -249.015)"/></g></g><g id="Grupo_115" transform="translate(1071.68 282.2)"><g id="Grupo_92" transform="translate(186.531 203.985)"><path d="M290.979 244.05 321.038 261.521 321.038 280.621C308.238 273.242 295.538 265.754 282.732 258.375 279.259 253.708 283.708 244.593 290.979 244.05Z" id="Trazado_45" fill="url(#linear-gradient-3)" fill-rule="evenodd" transform="translate(-281.529 -224.132)"/><path d="M281.86 312.05 281.86 310.531C281.969 301.741 284.247 291.758 288.805 281.666 300.742 255.188 323.856 237.934 340.459 243.143 341.207 243.366 341.933 243.657 342.629 244.011L342.629 244.011C343.677 244.459 344.662 245.043 345.559 245.747L358.359 253.126C357.373 252.663 356.358 252.264 355.32 251.932 338.72 246.723 315.603 263.977 303.666 290.455 292.923 314.329 294.985 337.443 307.681 345.581L293.357 337.334 293.357 337.334C286.092 332.885 282.077 323.661 281.86 312.05Z" id="Trazado_46" fill="url(#linear-gradient-4)" fill-rule="evenodd" transform="translate(-278.271 -242.215)"/><path d="M298.739 339.762C315.339 344.971 338.456 327.717 350.393 301.239 362.33 274.761 358.423 249.151 341.82 243.939 325.217 238.727 302.103 255.984 290.166 282.462 278.229 308.835 282.136 334.553 298.739 339.762Z" id="Trazado_47" fill="#706F6F" fill-rule="evenodd" transform="translate(-264.656 -234.333)"/></g><path d="M403.75 623.841C458.333 603.441 515.413 545.709 549.704 469.423 598.645 360.581 582.91 254.995 514.545 233.723 481.122 223.305 441.405 234.917 403.75 262.154L403.75 325.2C424.911 306.1 447.808 293.839 469.185 291.234 484.485 320.425 482.641 367.634 460.938 415.919 446.614 447.819 425.996 474.735 403.75 493.182ZM337.121 628.073C357.631 634.473 380.421 632.522 403.75 623.841L403.75 493.188C379.985 512.83 354.375 523.03 332.129 519.666 323.99 488.522 328.765 446.309 348.081 403.445 362.297 371.867 382.047 344.955 403.75 325.313L403.75 262.265C364.25 290.805 327.029 336.707 301.962 392.376 253.021 501.218 268.756 606.8 337.121 628.073Z" id="Trazado_48" fill="#3C3C3B" fill-rule="evenodd" transform="translate(-174.13 -159.141)"/><path d="M395.338 492.72C423.118 472.97 449.271 440.849 466.85 401.783 500.816 326.256 489.964 252.899 442.434 238.141 433.852 235.594 424.829 234.891 415.956 236.079 431.256 265.27 429.412 312.479 407.709 360.764 404.043 368.916 399.913 376.85 395.338 384.529ZM415.956 236.079 395.338 238.679C362.241 242.806 369.113 241.939 415.956 236.079ZM319.268 511.819C342.168 518.981 369.402 511.168 395.338 492.719L395.338 384.529C364.194 437.051 316.664 470.148 278.9 464.4 285.086 488.162 298.759 505.416 319.268 511.819Z" id="Trazado_49" fill="url(#linear-gradient-5)" fill-rule="evenodd" transform="translate(-120.901 -103.872)"/><path d="M309.719 495.486C353.668 509.159 414.871 463.474 446.341 393.586 477.811 323.593 468.041 249.26 415.957 235.586 435.164 273.786 424.204 323.486 407.71 360.271 378.085 426.14 322.09 470.523 278.9 464.012 279.812 467.597 280.973 471.114 282.373 474.538 289.1 484.635 298.216 491.9 309.719 495.486Z" id="Trazado_50" fill="url(#linear-gradient-6)" fill-rule="evenodd" transform="translate(-120.901 -103.492)"/><path d="M588.949 275.016 588.949 275.016 588.515 274.799ZM267.85 522.65 267.85 498.776C269.586 464.919 278.81 427.155 295.956 389.066 344.9 280.224 440.174 209.146 508.539 230.416 511.643 231.394 514.686 232.554 517.654 233.889L517.763 233.889C522.038 235.832 526.109 238.195 529.917 240.942L582.548 271.218C578.578 269.166 574.439 267.46 570.177 266.118 501.812 244.849 406.535 315.818 357.594 424.769 313.428 522.869 321.894 618.253 373.98 651.785L315.164 617.819 315.164 617.819C286.515 601.107 270.238 566.273 267.85 522.65Z" id="Trazado_51" fill="#616160" fill-rule="evenodd" transform="translate(-229.761 -191.533)"/><g id="Grupo_103" transform="translate(153.15 135.721)"><g id="Grupo_93" transform="translate(46.462 0)"><path d="M283.877 495.562 283.552 495.562C282.956 495.378 282.618 494.75 282.792 494.151L359.079 236.751C359.21 236.178 359.78 235.82 360.353 235.951 360.4 235.961 360.445 235.975 360.49 235.992 361.086 236.176 361.424 236.804 361.25 237.403L284.962 494.8C284.818 495.273 284.371 495.587 283.877 495.562Z" id="Trazado_52" fill="#575756" transform="translate(-282.735 -235.924)"/></g><g id="Grupo_94" transform="translate(77.216 16.453)"><path d="M286.668 475.85 286.668 475.85C286.086 475.871 285.596 475.417 285.574 474.835 285.572 474.775 285.575 474.715 285.583 474.656L299.8 238.525C299.8 237.874 300.451 237.548 300.993 237.44 301.609 237.455 302.096 237.966 302.081 238.581 302.081 238.582 302.081 238.582 302.081 238.582L302.081 238.634 287.861 474.765C287.645 475.307 287.21 475.85 286.668 475.85Z" id="Trazado_53" fill="#575756" transform="translate(-285.569 -237.44)"/></g><g id="Grupo_95" transform="translate(65.272 39.221)"><path d="M327.787 438.252C327.259 438.274 326.796 437.904 326.702 437.384L284.489 240.861C284.345 240.299 284.684 239.727 285.245 239.583 285.246 239.583 285.246 239.583 285.246 239.583 285.283 239.574 285.32 239.566 285.357 239.561 285.952 239.438 286.534 239.821 286.656 240.416 286.657 240.417 286.657 240.418 286.657 240.419 286.657 240.419 286.657 240.426 286.657 240.429L328.872 436.95C329.017 437.51 328.681 438.081 328.122 438.227 328.083 438.237 328.044 438.244 328.004 438.25Z" id="Trazado_54" fill="#575756" transform="translate(-284.468 -239.538)"/></g><g id="Grupo_96" transform="translate(44.274 64.586)"><path d="M374.3 389.615C373.909 389.59 373.55 389.391 373.323 389.072L282.712 243.552C282.378 243.066 282.5 242.402 282.985 242.067L283.037 242.033C283.553 241.74 284.207 241.88 284.557 242.359L375.168 387.879C375.503 388.364 375.381 389.028 374.897 389.363L374.843 389.398C374.694 389.534 374.501 389.611 374.3 389.615Z" id="Trazado_55" fill="#575756" transform="translate(-282.533 -241.876)"/></g><g id="Grupo_97" transform="translate(27.455 91.471)"><path d="M413.014 332.868C412.783 332.846 412.561 332.771 412.363 332.651L281.492 246.381C280.966 246.077 280.785 245.405 281.089 244.878 281.393 244.352 282.065 244.172 282.592 244.476 282.595 244.477 282.598 244.479 282.601 244.481 282.63 244.498 282.658 244.516 282.686 244.536L413.557 330.806C414.065 331.126 414.217 331.796 413.898 332.304 413.897 332.304 413.897 332.305 413.896 332.306L413.882 332.327C413.756 332.689 413.395 332.915 413.014 332.868Z" id="Trazado_56" fill="#575756" transform="translate(-280.983 -244.353)"/></g><g id="Grupo_98" transform="translate(14.274 120.503)"><path d="M443.21 269.074 443.1 269.074 280.76 249.324C280.145 249.253 279.704 248.697 279.775 248.082 279.775 248.063 279.78 248.043 279.783 248.024 279.79 247.457 280.256 247.003 280.823 247.01 280.823 247.01 280.823 247.01 280.823 247.01 280.911 247.011 280.998 247.024 281.083 247.047L443.423 266.797C444.038 266.868 444.479 267.424 444.408 268.039 444.408 268.058 444.408 268.078 444.4 268.097 444.239 268.634 443.768 269.02 443.21 269.074Z" id="Trazado_57" fill="#575756" transform="translate(-279.768 -247.029)"/></g><g id="Grupo_99" transform="translate(4.575 99.302)"><path d="M280.017 300.258C279.534 300.251 279.104 299.95 278.932 299.498 278.785 298.902 279.113 298.292 279.692 298.087L462.65 245.132C463.244 244.935 463.885 245.256 464.082 245.85 464.28 246.444 463.958 247.085 463.365 247.282 463.358 247.285 463.351 247.287 463.344 247.289L463.301 247.302 280.343 300.258Z" id="Trazado_58" fill="#575756" transform="translate(-278.875 -245.075)"/></g><g id="Grupo_100" transform="matrix(1 0 0 1 0 58.374)"><path d="M279.613 371.814C279.222 371.79 278.863 371.591 278.636 371.272 278.301 370.787 278.423 370.123 278.908 369.788L278.961 369.753 467.346 241.486C467.871 241.18 468.544 241.357 468.85 241.882 469.137 242.373 469.002 243.001 468.54 243.331L280.156 371.6C280.047 371.814 279.83 371.814 279.613 371.814Z" id="Trazado_59" fill="#575756" transform="translate(-278.453 -241.303)"/></g><g id="Grupo_101" transform="translate(3.271 23.881)"><path d="M279.9 438.288C279.238 438.252 278.731 437.687 278.767 437.025 278.78 436.773 278.873 436.531 279.032 436.335L452.548 238.509C452.983 238.043 453.714 238.019 454.179 238.454 454.623 238.869 454.669 239.558 454.284 240.028L280.767 437.854C280.545 438.105 280.234 438.261 279.9 438.288Z" id="Trazado_60" fill="#575756" transform="translate(-278.755 -238.125)"/></g><g id="Grupo_102" transform="translate(19.78 3.495)"><path d="M281.406 482.623C281.219 482.64 281.03 482.602 280.864 482.514 280.328 482.227 280.126 481.561 280.413 481.025 280.413 481.025 280.413 481.025 280.413 481.025L280.43 480.995 413.9 236.833C414.2 236.294 414.88 236.099 415.419 236.399 415.958 236.699 416.153 237.379 415.853 237.918L282.383 482.08C282.191 482.435 281.81 482.647 281.406 482.623Z" id="Trazado_61" fill="#575756" transform="translate(-280.276 -236.246)"/></g></g><g id="Grupo_114" transform="translate(153.491 135.286)"><g id="Grupo_104" transform="translate(62.761 8.295)"><path d="M285.374 487.558 285.157 487.558C284.582 487.474 284.184 486.94 284.268 486.365 284.273 486.329 284.28 486.293 284.289 486.258L326.289 237.539C326.405 236.943 326.982 236.553 327.579 236.669 327.579 236.669 327.579 236.669 327.579 236.669L327.589 236.669C328.164 236.753 328.562 237.287 328.478 237.862 328.473 237.898 328.466 237.934 328.457 237.969L286.457 486.688C286.326 487.184 285.887 487.538 285.374 487.558Z" id="Trazado_62" fill="#575756" transform="translate(-284.268 -236.648)"/></g><g id="Grupo_105" transform="translate(77.974 27.197)"><path d="M300.211 459.763C299.612 459.761 299.128 459.277 299.126 458.678L285.67 239.584C285.628 238.955 286.103 238.411 286.732 238.369 287.361 238.327 287.905 238.802 287.947 239.431 287.947 239.446 287.947 239.461 287.947 239.476L301.4 458.569C301.285 459.174 300.811 459.648 300.206 459.763Z" id="Trazado_63" fill="#575756" transform="translate(-285.67 -238.39)"/></g><g id="Grupo_106" transform="translate(56.419 48.941)"><path d="M346.366 420.925C345.893 420.887 345.478 420.596 345.281 420.165L283.752 241.873C283.559 241.304 283.845 240.684 284.403 240.462 284.963 240.249 285.589 240.53 285.803 241.089L285.812 241.113 347.343 419.3C347.536 419.869 347.25 420.489 346.692 420.711 346.583 420.925 346.474 420.925 346.366 420.925Z" id="Trazado_64" fill="#575756" transform="translate(-283.684 -240.394)"/></g><g id="Grupo_107" transform="translate(38.531 72.723)"><path d="M386.7 373.507C386.355 373.524 386.025 373.36 385.832 373.073L282.3 244.481C281.905 244.014 281.963 243.315 282.43 242.919 282.458 242.896 282.487 242.874 282.517 242.853 282.913 242.481 283.536 242.501 283.908 242.898 283.957 242.95 284 243.008 284.037 243.07L387.564 371.662C387.935 372.059 387.915 372.681 387.518 373.053 387.466 373.102 387.408 373.145 387.347 373.181 387.239 373.507 387.021 373.507 386.7 373.507Z" id="Trazado_65" fill="#575756" transform="translate(-282.036 -242.585)"/></g><g id="Grupo_108" transform="translate(23.416 99.277)"><path d="M421.688 316.953C421.501 316.97 421.313 316.932 421.146 316.845L281.268 247.177C280.703 246.899 280.47 246.215 280.748 245.649 281.021 245.096 281.684 244.859 282.245 245.115L422.123 314.782C422.65 315.088 422.88 315.73 422.665 316.301 422.504 316.698 422.117 316.957 421.688 316.953Z" id="Trazado_66" fill="#575756" transform="translate(-280.642 -245.033)"/></g><g id="Grupo_109" transform="translate(10.802 129.636)"><path d="M449.851 250 280.565 250C279.966 249.998 279.482 249.514 279.48 248.915 279.52 248.333 279.983 247.87 280.565 247.83L449.851 247.83C450.451 247.812 450.951 248.283 450.969 248.883 450.988 249.482 450.516 249.983 449.917 250.001 449.895 250.002 449.873 250.002 449.851 250.001Z" id="Trazado_67" fill="#575756" transform="translate(-279.48 -247.83)"/></g><g id="Grupo_110" transform="translate(2.038 84.953)"><path d="M279.732 325.617C279.295 325.652 278.891 325.383 278.755 324.966 278.54 324.395 278.77 323.753 279.297 323.447L466.163 243.8C466.702 243.565 467.331 243.806 467.574 244.342 467.789 244.913 467.56 245.555 467.032 245.861L280.166 325.508C280.034 325.584 279.884 325.622 279.732 325.617Z" id="Trazado_68" fill="#575756" transform="translate(-278.672 -243.712)"/></g><g id="Grupo_111" transform="matrix(1 0 0 1 0 41.788)"><path d="M279.629 403.436C279.284 403.453 278.954 403.289 278.761 403.002 278.359 402.517 278.407 401.802 278.87 401.374L463.238 240.011C463.717 239.592 464.446 239.64 464.866 240.12 465.285 240.599 465.236 241.328 464.757 241.747L280.388 403.111C280.183 403.308 279.913 403.423 279.629 403.436Z" id="Trazado_69" fill="#575756" transform="translate(-278.484 -239.735)"/></g><g id="Grupo_112" transform="translate(9.643 11.388)"><path d="M280.533 466.52C280.303 466.497 280.08 466.423 279.882 466.303 279.374 465.983 279.222 465.313 279.541 464.805 279.542 464.805 279.542 464.804 279.543 464.803L279.557 464.782 434.843 237.442C435.196 236.948 435.883 236.834 436.378 237.187 436.84 237.517 436.974 238.145 436.688 238.636L281.4 465.977C281.262 466.329 280.91 466.549 280.533 466.52Z" id="Trazado_70" fill="#575756" transform="translate(-279.373 -236.933)"/></g><g id="Grupo_113" transform="translate(33.957 0)"><path d="M282.767 493.678C282.614 493.694 282.46 493.655 282.333 493.569 281.775 493.347 281.489 492.727 281.682 492.158L383.579 236.6C383.762 236.02 384.381 235.699 384.961 235.882 385.541 236.065 385.862 236.684 385.679 237.264 385.668 237.296 385.656 237.329 385.643 237.364L283.743 492.92C283.657 493.384 283.238 493.71 282.767 493.678Z" id="Trazado_71" fill="#575756" transform="translate(-281.614 -235.884)"/></g></g><path d="M573.394 227.466C391.955 191.656 274.215 401.092 264.34 551.066L330.969 589.7C381.863 357.577 568.728 249.6 643.5 267.4Z" id="Trazado_72" fill="#EB1F1F" fill-rule="evenodd" transform="translate(-264.34 -223.417)"/><path d="M270.624 556.867C281.476 558.278 296.234 564.355 318.045 548.945 330.745 429.686 395.96 258.122 545.82 281.018 561.338 284.818 572.62 259.418 583.15 234.573 346.151 174.022 266.392 482.425 270.624 556.867Z" id="Trazado_73" fill="#D20000" fill-rule="evenodd" transform="translate(-203.995 -190.591)"/><path d="M283.58 312.89 283.58 311.371C283.689 302.581 285.967 292.598 290.525 282.506 302.462 256.028 325.576 238.774 342.179 243.983 342.927 244.206 343.653 244.497 344.349 244.851L344.349 244.851C345.397 245.299 346.382 245.883 347.279 246.587L360.079 253.966C359.093 253.503 358.078 253.104 357.04 252.772 340.44 247.563 317.323 264.817 305.386 291.295 294.643 315.169 296.705 338.283 309.401 346.421L295.077 338.174 295.077 338.174C287.7 333.725 283.8 324.5 283.58 312.89Z" id="Trazado_74" fill="url(#linear-gradient-7)" fill-rule="evenodd" transform="translate(-74.795 -29.954)"/><path d="M300.406 340.6C317.006 345.809 340.123 328.555 352.06 302.077 363.997 275.599 360.09 249.989 343.487 244.777 326.884 239.565 303.77 256.822 291.833 283.3 280 309.675 283.8 335.393 300.406 340.6Z" id="Trazado_75" fill="#E9E9E9" fill-rule="evenodd" transform="translate(-61.236 -22.073)"/><path d="M326.543 252.694 326.543 250.415C327.628 251.5 327.52 252.152 326.543 252.694ZM325.892 249.655 326.543 249.981ZM326.543 250.415 326.543 252.694C322.743 254.864 306.359 255.841 298.763 272.769 292.686 286.225 289.863 296.969 297.027 301.526L293.012 299.247 293.012 299.247C285.524 294.906 284.222 281.559 290.412 267.994 297.14 253.127 310.162 243.361 319.494 246.294 319.928 246.402 320.362 246.619 320.687 246.728L320.687 246.728C321.287 246.947 321.84 247.279 322.315 247.705 323.83 248.431 325.251 249.341 326.543 250.415Z" id="Trazado_76" fill="url(#linear-gradient-8)" fill-rule="evenodd" transform="translate(-46.246 -3.181)"/><path d="M295.547 300.414C304.879 303.344 317.901 293.577 324.629 278.714 331.357 263.851 329.187 249.414 319.854 246.485 310.521 243.556 297.5 253.321 290.772 268.185 284.044 283.049 286.106 297.484 295.547 300.414Z" id="Trazado_77" fill="#E9E9E9" fill-rule="evenodd" transform="translate(-42.812 -1.31)"/><path d="M292.42 276.265C297.412 277.784 304.357 272.576 307.938 264.654 311.519 256.732 310.325 248.919 305.338 247.4 300.351 245.881 293.401 251.089 289.82 259.011 286.235 267.041 287.32 274.745 292.42 276.265Z" id="Trazado_78" fill="#9D9D9C" fill-rule="evenodd" transform="translate(-34.043 10.252)"/><path d="M297.739 247.8 327.8 265.271 327.8 284.371C315 276.992 302.3 269.504 289.494 262.125 286.019 257.458 290.468 248.343 297.739 247.8Z" id="Trazado_79" fill="url(#linear-gradient-9)" fill-rule="evenodd" transform="translate(-28.402 16.796)"/></g><g id="Grupo_116" transform="translate(946.605 646.86)"><path d="M259.933 318.1C250.058 311.7 250.492 293.359 261.018 277.081 271.544 260.803 288.039 252.881 297.918 259.181 307.793 265.581 307.359 283.923 296.833 300.2 286.411 316.476 269.916 324.506 259.933 318.1Z" id="Trazado_80" fill="#959393" fill-rule="evenodd" transform="translate(-252.814 -257.021)"/><path d="M260.26 312.464C251.36 306.713 251.796 290.327 261.237 275.786 270.678 261.245 285.437 254.086 294.226 259.834 303.126 265.585 302.69 281.971 293.249 296.512 283.916 311.054 269.049 318.216 260.26 312.464Z" id="Trazado_81" fill="#707070" fill-rule="evenodd" transform="translate(-242.507 -248.885)"/></g><path d="M206.141 289.88 252.8 316.9 252.8 346.633C232.941 335.133 213.192 323.628 193.333 312.125 188.019 304.964 194.855 290.748 206.141 289.88Z" id="Trazado_82" fill="url(#linear-gradient-10)" fill-rule="evenodd" transform="translate(89.757 713.553)"/><path d="M313.341 305.261 313.341 305.261 313.233 305.152ZM192.02 397.5 192.02 391.1C192.563 377.97 196.035 363.211 202.655 348.344 221.103 307.216 257.13 280.413 282.955 288.444 284.152 288.763 285.315 289.199 286.428 289.744L286.428 289.744C288.018 290.481 289.543 291.35 290.986 292.344L310.844 303.738C309.337 302.976 307.778 302.324 306.178 301.785 280.351 293.755 244.432 320.558 225.878 361.685 209.167 398.685 212.422 434.716 232.064 447.413L209.818 434.613 209.818 434.613C198.856 428.209 192.671 414.536 192.02 397.5Z" id="Trazado_83" fill="url(#linear-gradient-11)" fill-rule="evenodd" transform="translate(94.871 685.367)"/><path d="M218.192 438.565C244.019 446.595 279.938 419.792 298.492 378.665 316.94 337.537 311.08 297.712 285.253 289.682 259.426 281.652 223.507 308.455 204.953 349.582 186.399 390.709 192.365 430.535 218.192 438.565Z" id="Trazado_84" fill="#706F6F" fill-rule="evenodd" transform="translate(115.904 697.583)"/><path d="M318.783 672.362C373.366 651.962 430.446 594.339 464.737 517.943 513.678 409.101 497.943 303.515 429.578 282.243 396.155 271.826 356.438 283.437 318.778 310.674L318.778 373.722C339.939 354.622 362.836 342.361 384.213 339.756 399.513 368.947 397.669 416.156 375.966 464.441 361.642 496.341 341.024 523.257 318.778 541.704L318.778 672.362ZM252.154 676.594C272.664 682.994 295.454 681.043 318.783 672.362L318.783 541.708C295.127 561.349 269.408 571.55 247.162 568.186 239.023 537.042 243.798 494.829 263.114 451.965 277.33 420.387 297.08 393.475 318.783 373.833L318.783 310.785C279.283 339.325 242.062 385.227 216.995 440.896 167.946 549.847 183.789 655.324 252.154 676.594Z" id="Trazado_85" fill="#3C3C3B" fill-rule="evenodd" transform="translate(60.021 601.06)"/><path d="M310.328 541.24C338.108 521.49 364.26 489.369 381.84 450.303 415.806 374.776 404.954 301.419 357.424 286.661 348.842 284.114 339.819 283.411 330.946 284.599 346.246 313.79 344.402 360.999 322.699 409.284 319.033 417.436 314.903 425.37 310.328 433.049ZM330.838 284.6C284.067 290.46 277.194 291.327 310.22 287.2ZM234.259 560.34C257.159 567.502 284.393 559.689 310.329 541.24L310.329 433.049C279.185 485.571 231.655 518.668 193.891 513.025 200.076 536.682 213.748 553.937 234.258 560.339Z" id="Trazado_86" fill="url(#linear-gradient-5)" fill-rule="evenodd" transform="translate(113.294 656.328)"/><path d="M224.709 543.918C268.658 557.591 329.861 511.906 361.331 442.018 392.801 372.025 383.031 297.692 330.946 284.127 350.153 322.327 339.193 372.027 322.699 408.812 293.074 474.681 237.08 519.064 193.89 512.553 194.802 516.138 195.962 519.655 197.363 523.079 203.756 533.014 213.434 540.389 224.709 543.918Z" id="Trazado_87" fill="url(#linear-gradient-13)" fill-rule="evenodd" transform="translate(113.294 656.906)"/><path d="M504.038 323.535 504.038 323.535 503.604 323.318ZM182.83 571.169 182.83 547.3C184.566 513.443 193.79 475.788 210.936 437.59 259.877 328.748 355.154 257.67 423.519 278.939 426.623 279.918 429.666 281.077 432.634 282.412L432.742 282.412C437.017 284.355 441.088 286.718 444.896 289.465L497.526 319.741C493.556 317.69 489.417 315.983 485.155 314.641 416.79 293.372 321.621 364.341 272.572 473.292 228.406 571.392 236.872 666.776 288.958 700.308L230.142 666.342 230.142 666.342C201.6 649.626 185.326 614.9 182.83 571.169Z" id="Trazado_88" fill="#616160" fill-rule="evenodd" transform="translate(4.335 568.668)"/><g id="Grupo_127" transform="translate(302.335 944.56)"><g id="Grupo_117" transform="translate(46.462 0)"><path d="M198.867 544.083 198.542 544.083C197.946 543.899 197.608 543.271 197.782 542.672L274.069 285.272C274.237 284.669 274.862 284.317 275.465 284.484 276.067 284.652 276.42 285.277 276.252 285.88 276.252 285.894 276.244 285.909 276.239 285.923L199.952 543.323C199.78 543.775 199.35 544.076 198.867 544.083Z" id="Trazado_89" fill="#575756" transform="translate(-197.725 -284.455)"/></g><g id="Grupo_118" transform="translate(77.107 16.334)"><path d="M201.648 524.37 201.648 524.37C201.066 524.392 200.577 523.938 200.555 523.356 200.555 523.356 200.555 523.355 200.555 523.355 200.552 523.296 200.555 523.236 200.563 523.177L214.779 287.046C214.779 286.395 215.43 286.069 215.973 285.961 216.588 285.976 217.075 286.486 217.06 287.101 217.06 287.102 217.06 287.102 217.06 287.103 217.06 287.12 217.06 287.137 217.06 287.154L202.842 523.285C202.791 523.904 202.269 524.378 201.648 524.37Z" id="Trazado_90" fill="#575756" transform="translate(-200.549 -285.96)"/></g><g id="Grupo_119" transform="translate(65.164 39.102)"><path d="M242.767 486.772C242.239 486.794 241.776 486.424 241.682 485.904L199.469 289.381C199.324 288.821 199.66 288.25 200.219 288.104 200.258 288.094 200.297 288.087 200.337 288.081 200.932 287.958 201.514 288.341 201.636 288.936 201.637 288.937 201.637 288.938 201.637 288.939 201.637 288.939 201.637 288.946 201.637 288.949L243.852 485.47C243.997 486.03 243.661 486.601 243.102 486.747 243.063 486.757 243.024 486.764 242.984 486.77Z" id="Trazado_91" fill="#575756" transform="translate(-199.448 -288.058)"/></g><g id="Grupo_120" transform="translate(44.274 64.441)"><path d="M289.294 438.158C288.903 438.134 288.544 437.935 288.317 437.616L197.706 292.1C197.351 291.607 197.463 290.92 197.956 290.565 198.449 290.21 199.137 290.322 199.492 290.815 199.493 290.817 199.495 290.819 199.496 290.821 199.515 290.848 199.534 290.877 199.551 290.906L290.162 436.426C290.497 436.912 290.375 437.577 289.89 437.912 289.873 437.924 289.855 437.935 289.837 437.946 289.688 438.08 289.495 438.155 289.294 438.158Z" id="Trazado_92" fill="#575756" transform="translate(-197.523 -290.393)"/></g><g id="Grupo_121" transform="translate(27.455 91.353)"><path d="M328 381.389C327.77 381.366 327.547 381.292 327.349 381.172L196.482 294.9C195.978 294.595 195.817 293.939 196.122 293.435 196.133 293.416 196.145 293.398 196.157 293.381 196.477 292.873 197.147 292.721 197.655 293.04 197.655 293.041 197.656 293.042 197.657 293.042L197.678 293.056 328.549 379.327C329.053 379.632 329.214 380.288 328.909 380.792 328.898 380.811 328.886 380.829 328.874 380.846 328.727 381.194 328.377 381.411 328 381.389Z" id="Trazado_93" fill="#575756" transform="translate(-195.973 -292.873)"/></g><g id="Grupo_122" transform="translate(14.165 120.401)"><path d="M358.191 317.579 358.083 317.579 195.743 297.829C195.128 297.758 194.687 297.202 194.758 296.587 194.758 296.568 194.763 296.548 194.766 296.529 194.849 295.987 195.303 295.578 195.851 295.552L195.959 295.552 358.3 315.3C358.915 315.371 359.356 315.927 359.285 316.542 359.285 316.561 359.28 316.581 359.277 316.6 359.229 317.161 358.754 317.589 358.191 317.579Z" id="Trazado_94" fill="#575756" transform="translate(-194.749 -295.55)"/></g><g id="Grupo_123" transform="translate(4.575 99.105)"><path d="M195.007 348.849C194.491 348.838 194.046 348.482 193.922 347.981 193.775 347.385 194.103 346.775 194.682 346.57L377.64 293.615C378.243 293.447 378.868 293.8 379.035 294.403 379.198 294.989 378.87 295.599 378.291 295.785L195.333 348.849Z" id="Trazado_95" fill="#575756" transform="translate(-193.865 -293.588)"/></g><g id="Grupo_124" transform="matrix(1 0 0 1 0 58.364)"><path d="M194.6 420.236C194.235 420.206 193.89 420.053 193.623 419.802 193.288 419.316 193.41 418.651 193.895 418.316 193.912 418.304 193.93 418.293 193.948 418.282L382.336 290.016C382.861 289.71 383.534 289.887 383.84 290.412 384.127 290.903 383.992 291.531 383.53 291.861L195.146 420.127C194.983 420.227 194.789 420.265 194.6 420.236Z" id="Trazado_96" fill="#575756" transform="translate(-193.443 -289.833)"/></g><g id="Grupo_125" transform="translate(3.162 23.807)"><path d="M194.879 486.768C194.217 486.732 193.71 486.167 193.746 485.505 193.759 485.253 193.852 485.011 194.011 484.815L367.528 286.99C367.977 286.575 368.655 286.53 369.156 286.881 369.622 287.307 369.67 288.025 369.264 288.509L195.747 486.333C195.554 486.62 195.225 486.785 194.879 486.768Z" id="Trazado_97" fill="#575756" transform="translate(-193.735 -286.649)"/></g><g id="Grupo_126" transform="translate(19.672 3.485)"><path d="M196.386 531.153C196.199 531.17 196.01 531.132 195.844 531.044 195.308 530.757 195.106 530.091 195.393 529.555 195.393 529.555 195.393 529.555 195.393 529.555L195.41 529.524 328.884 285.363C329.184 284.824 329.864 284.629 330.403 284.929 330.942 285.229 331.137 285.909 330.837 286.448L197.362 530.61C197.154 530.949 196.784 531.155 196.386 531.153Z" id="Trazado_98" fill="#575756" transform="translate(-195.256 -284.776)"/></g></g><g id="Grupo_138" transform="translate(302.567 944.007)"><g id="Grupo_128" transform="translate(62.761 8.295)"><path d="M200.354 536.078 200.137 536.078C199.562 535.994 199.164 535.46 199.248 534.885 199.253 534.849 199.26 534.813 199.269 534.778L241.269 286.059C241.385 285.463 241.962 285.073 242.559 285.189 242.559 285.189 242.559 285.189 242.559 285.189L242.569 285.189C243.144 285.273 243.542 285.807 243.458 286.382 243.453 286.418 243.446 286.454 243.437 286.489L201.437 535.208C201.338 535.724 200.879 536.093 200.354 536.078Z" id="Trazado_99" fill="#575756" transform="translate(-199.248 -285.168)"/></g><g id="Grupo_129" transform="translate(77.974 27.197)"><path d="M215.191 508.283C214.592 508.281 214.108 507.797 214.106 507.198L200.65 288.1C200.606 287.486 201.068 286.953 201.681 286.909 201.682 286.909 201.682 286.909 201.683 286.909 201.7 286.908 201.718 286.908 201.735 286.909L201.843 286.909C202.443 286.91 202.93 287.397 202.929 287.997L202.929 288 216.385 507.09C216.385 507.741 215.951 508.175 215.191 508.284Z" id="Trazado_100" fill="#575756" transform="translate(-200.65 -286.91)"/></g><g id="Grupo_130" transform="translate(56.528 49.049)"><path d="M261.356 469.346C260.883 469.308 260.468 469.017 260.271 468.586L198.742 290.4C198.549 289.831 198.835 289.211 199.393 288.989 199.953 288.776 200.579 289.057 200.793 289.616L200.802 289.64 262.331 467.824C262.524 468.393 262.238 469.013 261.68 469.235 261.594 469.319 261.475 469.359 261.356 469.346Z" id="Trazado_101" fill="#575756" transform="translate(-198.674 -288.924)"/></g><g id="Grupo_131" transform="translate(38.64 72.831)"><path d="M301.686 421.929C301.341 421.946 301.011 421.782 300.818 421.495L197.293 292.9C196.918 292.432 196.993 291.749 197.46 291.374 197.928 290.999 198.611 291.074 198.986 291.542 199.001 291.561 199.015 291.58 199.029 291.6L302.554 420.192C302.925 420.589 302.905 421.211 302.508 421.583 302.456 421.632 302.398 421.675 302.337 421.711 302.228 421.929 301.9 421.929 301.686 421.929Z" id="Trazado_102" fill="#575756" transform="translate(-197.025 -291.115)"/></g><g id="Grupo_132" transform="translate(23.416 99.277)"><path d="M336.668 365.474C336.481 365.491 336.292 365.453 336.126 365.365L196.248 295.7C195.683 295.422 195.45 294.738 195.728 294.172 196.001 293.619 196.664 293.382 197.225 293.638L337.1 363.3C337.628 363.606 337.858 364.249 337.643 364.82 337.508 365.237 337.105 365.507 336.668 365.474Z" id="Trazado_103" fill="#575756" transform="translate(-195.622 -293.552)"/></g><g id="Grupo_133" transform="translate(10.911 129.636)"><path d="M364.841 298.521 195.555 298.521C194.956 298.521 194.47 298.035 194.47 297.436 194.47 296.837 194.956 296.351 195.555 296.351L364.841 296.351C365.44 296.351 365.926 296.837 365.926 297.436 365.926 298.035 365.44 298.521 364.841 298.521Z" id="Trazado_104" fill="#575756" transform="translate(-194.47 -296.35)"/></g><g id="Grupo_134" transform="translate(1.929 85.061)"><path d="M194.811 374.038C194.355 374.045 193.935 373.793 193.726 373.387 193.491 372.847 193.733 372.219 194.269 371.976L381.134 292.325C381.672 292.081 382.305 292.319 382.549 292.857 382.786 293.38 382.568 293.997 382.055 294.254 382.038 294.263 382.02 294.271 382.002 294.278L195.136 373.93C195.136 374.038 195.028 374.038 194.811 374.038Z" id="Trazado_105" fill="#575756" transform="translate(-193.642 -292.242)"/></g><g id="Grupo_135" transform="matrix(1 0 0 1 0 41.787)"><path d="M194.609 451.956C194.264 451.973 193.934 451.809 193.741 451.522 193.339 451.037 193.386 450.322 193.849 449.894L378.219 288.531C378.712 288.127 379.439 288.2 379.843 288.693 380.228 289.164 380.182 289.852 379.738 290.267L195.369 451.631C195.175 451.845 194.898 451.964 194.609 451.956Z" id="Trazado_106" fill="#575756" transform="translate(-193.465 -288.254)"/></g><g id="Grupo_136" transform="translate(9.751 11.387)"><path d="M195.523 515.04C195.293 515.017 195.07 514.943 194.872 514.823 194.364 514.503 194.212 513.833 194.531 513.325 194.532 513.325 194.533 513.324 194.533 513.323L194.547 513.302 349.833 285.962C350.139 285.458 350.795 285.297 351.3 285.602L351.352 285.636C351.86 285.956 352.012 286.626 351.693 287.134 351.692 287.134 351.691 287.135 351.691 287.136L351.677 287.158 196.391 514.5C196.207 514.811 195.883 515.013 195.523 515.04Z" id="Trazado_107" fill="#575756" transform="translate(-194.363 -285.453)"/></g><g id="Grupo_137" transform="translate(34.065 0)"><path d="M197.757 542.2C197.604 542.216 197.45 542.177 197.323 542.091 196.765 541.869 196.479 541.249 196.672 540.68L298.572 285.124C298.808 284.564 299.454 284.302 300.013 284.539 300.536 284.76 300.805 285.343 300.634 285.884L198.734 541.439C198.65 541.904 198.229 542.232 197.757 542.2Z" id="Trazado_108" fill="#575756" transform="translate(-196.604 -284.404)"/></g></g><path d="M316 306.561 316 306.561 315.891 306.452ZM194.68 398.8 194.68 392.4C195.222 379.27 198.695 364.511 205.315 349.645 223.763 308.517 259.79 281.714 285.615 289.745 286.812 290.064 287.975 290.5 289.087 291.045L289.087 291.045C290.677 291.782 292.202 292.652 293.645 293.645L313.5 305.039C311.993 304.277 310.434 303.624 308.834 303.086 283.007 295.056 247.088 321.859 228.534 362.986 211.823 399.986 215.078 436.017 234.72 448.714L212.474 435.914 212.474 435.914C201.517 429.51 195.331 415.945 194.68 398.8Z" id="Trazado_109" fill="url(#linear-gradient-11)" fill-rule="evenodd" transform="translate(121.076 698.174)"/><path d="M220.862 439.875C246.689 447.905 282.608 421.102 301.162 379.975 319.61 338.847 313.75 299.022 287.923 290.992 262.096 282.962 226.177 309.765 207.623 350.892 189.066 391.91 195.035 431.844 220.862 439.875Z" id="Trazado_110" fill="#E9E9E9" fill-rule="evenodd" transform="translate(142.208 710.489)"/><path d="M261.437 303.439 261.437 299.966C263.173 301.594 262.956 302.571 261.437 303.439ZM260.46 298.772 261.437 299.314C269.684 304.089 269.037 303.655 260.46 298.772ZM261.437 299.966C259.421 298.301 257.239 296.846 254.926 295.625 254.113 295.032 253.242 294.523 252.326 294.106L252.326 294.106C251.694 293.806 251.041 293.552 250.373 293.346 235.832 288.788 215.539 303.872 205.23 327.095 195.68 348.364 197.742 368.982 209.354 375.71L209.354 375.71 215.648 379.291C204.579 372.129 209.028 355.526 218.361 334.691 230.189 308.322 255.691 306.802 261.55 303.438L261.55 299.966Z" id="Trazado_111" fill="url(#linear-gradient-15)" fill-rule="evenodd" transform="translate(165.44 739.711)"/><path d="M213.265 377.53C227.806 382.088 247.99 367.004 258.408 343.781 268.825 320.667 265.461 298.204 250.92 293.647 236.379 289.09 216.086 304.173 205.777 327.395 195.359 350.618 198.723 372.972 213.265 377.53Z" id="Trazado_112" fill="#E9E9E9" fill-rule="evenodd" transform="translate(170.749 742.666)"/><path d="M208.318 339.918C216.131 342.305 226.983 334.275 232.518 321.904 238.053 309.533 236.318 297.488 228.503 295.104 220.688 292.72 209.838 300.747 204.303 313.118 198.768 325.489 200.614 337.423 208.318 339.918Z" id="Trazado_113" fill="#9D9D9C" fill-rule="evenodd" transform="translate(184.376 760.853)"/><g id="Grupo_144" transform="translate(673.112 628.033)"><path d="M382.683 261.948C412.959 273.667 471.992 288.969 425.221 318.268 388.868 341.057 409.812 407.794 397.221 442.953 390.493 461.618 308.455 499.49 287.728 510.993 229.021 543.657 268.304 410.616 248.228 376.433 187.9 273.342 324.193 239.376 382.683 261.948Z" id="Trazado_114" fill="#3C3C3B" fill-rule="evenodd" transform="translate(-173.041 -255.286)"/><path d="M233.134 298.642C241.815 293.433 259.178 263.049 272.959 260.336 277.78 259.293 282.76 259.219 287.609 260.119L287.609 260.119 287.826 260.228C290.295 260.733 292.674 261.609 294.88 262.828L351.851 285.728 309.53 499.505 256.466 466.733C254.944 466.304 253.456 465.76 252.017 465.105L252.017 465.105C247.568 463.043 244.204 460.113 242.902 456.315L236.933 351.163C229.336 329.46 222.391 304.936 233.134 298.642Z" id="Trazado_115" fill="#3C3C3B" fill-rule="evenodd" transform="translate(-227.611 -213.848)"/><path d="M356.074 261.4C386.35 273.011 427.586 268.779 415.758 312.619 404.581 354.072 400.349 402.145 387.758 437.304 381.03 455.969 298.992 493.841 278.265 505.344 219.558 538.008 238.765 410.392 238.765 370.784 238.768 302.2 297.584 238.829 356.074 261.4Z" id="Trazado_116" fill="#575756" fill-rule="evenodd" transform="translate(-147.3 -240.848)"/><path d="M367.426 263.309C376.433 264.937 373.069 295.864 371.333 302.266 362.109 336.774 358.533 376.817 348.002 406.116 342.468 421.634 274.102 453.216 256.74 462.762 252.9 465.086 248.609 466.566 244.152 467.103 236.339 439.974 242.852 389.514 242.852 368.571 242.849 284.9 302.316 241.714 367.426 263.309Z" id="Trazado_117" fill="#878787" fill-rule="evenodd" transform="translate(-102.549 -230.604)"/><g id="Grupo_139" transform="translate(137.804 86.553)"><path d="M240.31 315.217 327.557 270.943C332.874 268.23 337.215 270.401 337.215 275.718L337.215 275.718C337.215 281.035 332.874 287.546 327.557 290.259L241.4 334.1C240.744 328.131 240.419 321.728 240.31 315.217Z" id="Trazado_118" fill="#706F6F" fill-rule="evenodd" transform="translate(-240.31 -199.128)"/><path d="M241.09 314.68 333.654 267.693C338.971 264.98 343.312 267.151 343.312 272.468L343.312 272.468C343.312 277.785 338.971 284.296 333.654 287.009L240.33 334.43C240.33 327.594 240.656 320.974 241.09 314.68Z" id="Trazado_119" fill="#706F6F" fill-rule="evenodd" transform="translate(-240.113 -231.146)"/><path d="M241.328 313.808 338.45 264.433C343.767 261.72 348.108 263.891 348.108 269.208L348.108 269.208C348.108 274.525 343.767 281.036 338.45 283.749L240.46 333.558C240.894 326.179 241.22 319.668 241.22 314.893Z" id="Trazado_120" fill="#706F6F" fill-rule="evenodd" transform="translate(-238.833 -263.262)"/></g><g id="Grupo_142" transform="translate(22.234 70.015)"><path d="M241.164 296.266C249.954 291.057 299.329 265.339 313.11 262.626 382.452 248.845 349.029 399.026 325.698 468.807 320.598 483.999 281.749 482.154 276.54 467.071L233.351 342.386C225.863 320.9 230.421 302.669 241.164 296.266Z" id="Trazado_121" fill="#9D9D9C" fill-rule="evenodd" transform="translate(-229.66 -261.738)"/><path d="M241.125 292.16C248.287 287.928 288.872 266.767 300.266 264.488 357.237 253.202 329.782 376.588 310.575 433.882 306.451 446.361 274.439 444.842 270.098 432.362L234.506 330.032C228.537 312.452 232.227 297.477 241.125 292.16Z" id="Trazado_122" fill="#B2B2B2" fill-rule="evenodd" transform="translate(-210.631 -241.788)"/><path d="M240.827 288.911C246.795 285.33 280.761 267.642 290.31 265.797 299.968 263.844 306.805 266.665 311.254 272.634 301.162 274.804 265.46 292.167 259.054 295.748 251.132 300.197 246.354 312.676 249.613 327.435L267.631 409.8C266.551 408.866 265.729 407.67 265.244 406.327L235.51 320.707C230.3 305.732 233.448 293.252 240.827 288.911Z" id="Trazado_123" fill="#DADADA" fill-rule="evenodd" transform="translate(-197.42 -227.797)"/><g id="Grupo_140" transform="translate(89.074 54.899)"><path d="M241.468 297.863C236.476 294.608 236.693 285.275 242.011 277.028 247.329 268.781 255.792 264.657 260.784 267.913 265.776 271.169 265.559 280.501 260.242 288.748 254.925 296.995 246.569 301.118 241.468 297.863Z" id="Trazado_124" fill="#DADADA" fill-rule="evenodd" transform="translate(-237.868 -266.797)"/><path d="M241.638 295.028C237.08 292.098 237.406 283.742 242.181 276.363 246.956 268.984 254.443 265.294 259.001 268.224 263.559 271.154 263.342 279.51 258.458 286.889 253.683 294.268 246.2 297.958 241.638 295.028Z" id="Trazado_125" fill="#9D9D9C" fill-rule="evenodd" transform="translate(-232.612 -262.66)"/></g><g id="Grupo_141" transform="translate(74.332 171.853)"><path d="M238.792 297.164C235.645 295.102 235.754 289.242 239.117 284.034 242.48 278.826 247.798 276.221 250.945 278.283 254.092 280.345 253.983 286.205 250.62 291.413 247.257 296.621 241.938 299.226 238.792 297.164Z" id="Trazado_126" fill="#706F6F" fill-rule="evenodd" transform="translate(-236.51 -277.575)"/><path d="M238.88 295.3C236.059 293.455 236.167 288.247 239.205 283.58 242.243 278.913 246.905 276.635 249.84 278.48 252.662 280.325 252.553 285.533 249.515 290.2 246.477 294.867 241.7 297.146 238.88 295.3Z" id="Trazado_127" fill="#9D9D9C" fill-rule="evenodd" transform="translate(-233.234 -274.952)"/></g></g><g id="Grupo_143" transform="translate(245.775 62.057)"><path d="M252.541 280.594C249.394 278.532 249.503 272.672 252.867 267.464 256.231 262.256 261.548 259.651 264.695 261.713 267.842 263.775 267.734 269.635 264.37 274.843 261.006 280.051 255.688 282.656 252.541 280.594Z" id="Trazado_128" fill="#706F6F" fill-rule="evenodd" transform="translate(-250.26 -261.005)"/><path d="M252.63 278.731C249.809 276.886 249.917 271.678 252.956 267.012 255.995 262.346 260.656 260.067 263.591 261.912 266.412 263.757 266.304 268.965 263.265 273.631 260.226 278.297 255.56 280.576 252.63 278.731Z" id="Trazado_129" fill="#9D9D9C" fill-rule="evenodd" transform="translate(-246.984 -258.382)"/></g></g><g id="Grupo_146" transform="translate(1005.04 744.172)"><path d="M269.818 311.69C279.802 314.19 291.518 306.047 296.079 293.568 298.579 286.732 307.256 282.391 304.869 277.291 302.916 273.059 290.762 267.525 286.204 266.439 276.22 263.939 264.392 272.082 259.943 284.561 255.494 297.04 259.835 309.194 269.818 311.69Z" id="Trazado_130" fill="#706F6F" fill-rule="evenodd" transform="translate(-258.199 -265.989)"/><path d="M270.938 312.36C280.922 314.86 292.75 306.717 297.199 294.238 301.757 281.759 297.308 269.605 287.324 267.109 277.34 264.613 265.512 272.752 261.063 285.231 256.614 297.71 260.955 309.865 270.938 312.36Z" id="Trazado_131" fill="#C6C6C6" fill-rule="evenodd" transform="translate(-247.166 -259.388)"/><g id="Grupo_145" transform="translate(25.082 20.425)"><path d="M360.121 346.1C357.568 346.095 355.062 345.421 352.85 344.147L267.882 295.315C260.84 291.27 258.411 282.282 262.457 275.24 266.502 268.198 275.49 265.77 282.532 269.815L367.5 318.649C374.544 322.685 376.984 331.667 372.948 338.711 370.316 343.306 365.416 346.13 360.121 346.104Z" id="Trazado_132" fill="#706F6F" transform="translate(-260.511 -267.871)"/></g><path d="M275.876 299.751C281.736 301.271 288.676 296.496 291.394 289.116 294.112 281.736 291.503 274.575 285.643 273.055 279.783 271.535 272.843 276.31 270.125 283.69 267.3 291.07 269.908 298.232 275.876 299.751Z" id="Trazado_133" fill="#3C3C3B" fill-rule="evenodd" transform="translate(-151.943 -199.14)"/></g><g id="Grupo_147" transform="translate(988.557 361.668)"><path d="M269.49 262.94 282.62 238.09 537.634 368.852C545.447 378.185 536.006 396.09 524.504 393.702Z" id="Trazado_134" fill="url(#linear-gradient-16)" fill-rule="evenodd" transform="translate(-130.481 -158.331)"/><path d="M277.87 288.145 302.395 241.7 361.645 286.843C366.854 296.175 358.715 310.282 348.515 311.693Z" id="Trazado_135" fill="#706F6F" fill-rule="evenodd" transform="translate(-47.924 -122.767)"/><path d="M256.68 277.511 281.2 230.74 509.849 348.806C525.475 356.836 500.949 403.606 485.216 395.577Z" id="Trazado_136" fill="url(#linear-gradient-17)" fill-rule="evenodd" transform="translate(-256.68 -230.74)"/></g><g id="Grupo_148" transform="translate(1379.94 572.693)"><path d="M306.348 252.071 304.069 250.771C303.852 250.663 303.744 250.554 303.527 250.446L303.527 250.446C303.418 250.338 303.31 250.338 303.093 250.338 300.163 249.47 296.148 252.508 293.978 257.174 292.025 261.406 292.458 265.638 294.846 266.941L294.846 266.941 297.346 268.352C295.067 266.941 294.746 262.818 296.695 258.694 298.757 254.028 302.881 250.994 305.81 251.858 306.009 251.862 306.2 251.938 306.348 252.071Z" id="Trazado_137" fill="url(#linear-gradient-18)" fill-rule="evenodd" transform="translate(-292.747 -250.186)"/><path d="M295.772 267.393C298.702 268.261 302.717 265.223 304.887 260.556 306.949 255.89 306.298 251.332 303.368 250.464 300.438 249.596 296.423 252.634 294.253 257.3 292.083 261.966 292.842 266.525 295.772 267.393Z" id="Trazado_138" fill="#E9E9E9" fill-rule="evenodd" transform="translate(-290.201 -248.906)"/></g><path d="M224.082 217.47C240.468 238.197 267.597 244.382 291.687 254.582 310.352 262.504 329.342 279.541 317.948 297.446L307.1 309.926C312.309 276.826 280.731 259.791 247.308 250.242 241.665 248.614 218.334 233.856 218.334 228.213 218.438 226.26 218.764 217.687 224.082 217.47Z" id="Trazado_139" fill="#706F6F" fill-rule="evenodd" transform="translate(354.067 0.197)"/><path d="M226.155 217.45C241.781 238.828 263.702 239.696 287.355 250.765 305.803 259.446 333.149 280.824 319.476 297.865L307.539 291.354C313.182 258.039 272.271 251.203 241.887 240.677 234.511 238.177 204.56 217.45 226.155 217.45Z" id="Trazado_140" fill="#C6C6C6" fill-rule="evenodd" transform="translate(355.358 0)"/><g id="Grupo_149" transform="translate(537.972 229.769)"><path d="M312.848 300.241C310.08 300.241 307.369 299.45 305.035 297.962L222.02 245.762C215.127 241.447 213.037 232.361 217.352 225.468 221.667 218.575 230.753 216.485 237.646 220.8L320.661 273C327.558 277.335 329.635 286.44 325.3 293.337 322.607 297.621 317.907 300.226 312.848 300.238Z" id="Trazado_141" fill="#706F6F" transform="translate(-215.158 -218.585)"/></g><path d="M232.967 267.363 243.059 274.091C246.423 268.448 273.552 240.451 271.49 235.242 269.754 230.901 257.709 224.933 253.259 223.631 243.384 220.701 231.339 228.297 226.238 240.668 221.248 252.93 221.9 259.984 232.967 267.363Z" id="Trazado_142" fill="#706F6F" fill-rule="evenodd" transform="translate(402.587 54.697)"/><path d="M235.362 268.832C245.237 271.762 257.282 264.166 262.383 251.795 267.375 239.533 263.468 227.162 253.593 224.34 243.718 221.41 231.673 229.006 226.572 241.377 221.58 253.64 225.6 266.011 235.362 268.832Z" id="Trazado_143" fill="#3C3C3B" fill-rule="evenodd" transform="translate(414.082 61.692)"/><path d="M412.6 271.454 349.441 251.27C338.047 247.689 327.195 248.557 317.32 254.092L250.583 291.313C246.802 293.42 244.759 297.681 245.483 301.948 246.137 306.418 249.237 310.147 253.513 311.606L312.871 332.984C324.699 337.216 336.093 336.457 346.511 330.705L415.961 291.965C419.812 289.815 421.863 285.45 421.061 281.113 420.252 276.573 416.994 272.854 412.6 271.454Z" id="Trazado_144" fill="#4D4D4C" fill-rule="evenodd" transform="translate(620.343 312.021)"/><path d="M381.892 296.427C355.631 292.954 344.345 274.181 323.185 258.772 306.799 246.835 282.491 239.239 272.942 258.23L266.431 267.13C289.545 250.744 324.379 268.866 349.771 294.585 353.895 298.817 378.636 310.971 383.519 308.15 385.038 307.171 384.5 301.2 381.892 296.427Z" id="Trazado_145" fill="#706F6F" fill-rule="evenodd" transform="translate(827.93 288.241)"/><path d="M381.822 299.264C355.561 295.792 344.275 277.018 323.115 261.609 306.729 249.672 274.608 235.999 266.361 256.183L277.861 263.562C304.23 242.51 330.061 275.173 353.822 296.662 359.684 301.868 392.239 318.146 381.822 299.264Z" id="Trazado_146" fill="#C6C6C6" fill-rule="evenodd" transform="translate(827.24 280.088)"/><path d="M279.513 226.663C269.53 220.912 252.927 226.772 249.563 251.188 245.763 278.643 240.122 296.874 264.647 311.957 288.2 326.5 401.7 351.348 422.1 349.938 443.261 348.419 447.058 321.838 429.588 312.717Z" id="Trazado_147" fill="#D20000" fill-rule="evenodd" transform="translate(628.308 70.655)"/><path d="M278.263 225.914C268.28 220.054 251.677 226.022 248.313 250.438 244.513 277.893 238.872 296.124 263.397 311.207 286.945 325.748 400.453 350.598 420.854 349.188 442.015 347.669 445.812 321.082 428.342 311.967Z" id="Trazado_148" fill="#EB1F1F" fill-rule="evenodd" transform="translate(615.993 62.831)"/><g id="Grupo_150" transform="translate(648.854 265.144)"><path d="M478.049 302.309C476.268 302.303 474.516 301.856 472.949 301.009L380.385 248.27C359.55 236.442 342.513 243.604 311.585 258.47 299.974 264.004 286.843 270.298 272.085 275.616 261.993 279.197 248.103 278.98 233.019 275.073 227.546 273.566 224.33 267.908 225.837 262.435 227.328 257.015 232.896 253.799 238.336 255.215 249.079 258.036 259.171 258.47 265.136 256.3 278.917 251.417 290.963 245.557 302.683 240.023 333.176 225.373 359.546 212.785 390.583 230.582L483.147 283.321C488.047 286.092 489.776 292.307 487.011 297.21L486.947 297.321C485.066 300.434 481.686 302.329 478.049 302.309Z" id="Trazado_149" fill="#DADADA" transform="translate(-225.376 -221.845)"/></g><path d="M390.108 227.51C432.755 221.433 562.974 310.091 590.208 350.242 630.901 410.252 430.581 537.65 318.808 585.505 263.573 609.161 218.214 554.578 227.329 511.063 250.99 399.291 332.486 235.757 390.108 227.51Z" id="Trazado_150" fill="#EB1F1F" fill-rule="evenodd" transform="translate(431.225 96.177)"/><path d="M514.616 239.22C411.092 270.364 299.645 369.331 234.21 469.275 327.317 439.65 565.293 360 514.616 239.22Z" id="Trazado_151" fill="#D20000" fill-rule="evenodd" transform="translate(510.511 214.47)"/><g id="Grupo_151" transform="translate(787.667 414.93)"><path d="M284.667 242.505C290.31 250.644 284.884 263.666 272.73 271.37 260.576 279.183 246.144 278.858 240.609 270.719 234.966 262.58 240.392 249.558 252.546 241.854 264.7 233.932 279.133 234.258 284.667 242.505Z" id="Trazado_152" fill="#B10A0A" fill-rule="evenodd" transform="translate(-236.134 -231.091)"/><path d="M279.539 241.311C284.531 248.582 279.756 260.193 268.904 267.138 258.052 274.083 245.139 273.866 240.147 266.487 235.155 259.216 239.93 247.605 250.782 240.66 261.742 233.715 274.547 234.04 279.539 241.311Z" id="Trazado_153" fill="#D20000" fill-rule="evenodd" transform="translate(-238.168 -235.648)"/></g><g id="Grupo_152" transform="translate(848.515 281.909)"><path d="M425.539 260.965 424.454 292.765 366.94 323.465C326.029 299.7 285.082 275.971 244.1 252.278 236.069 194.119 406.765 250.222 425.539 260.965Z" id="Trazado_154" fill="#3C3C3B" fill-rule="evenodd" transform="translate(-243.284 -194.77)"/><path d="M309.917 223.39C351.587 247.155 384.359 265.82 426.03 289.59 384.03 306.736 360.486 318.998 367.43 352.095 326.52 328.327 285.573 304.594 244.59 280.895 241.443 258.007 244.373 249.868 309.917 223.39Z" id="Trazado_155" fill="#575756" fill-rule="evenodd" transform="translate(-243.775 -223.39)"/></g><g id="Grupo_153" transform="translate(983.699 379.225)"><path d="M414.207 447.026C412.426 447.02 410.674 446.573 409.107 445.726 403.139 442.362 396.953 439.215 390.768 436.068 366.894 423.914 342.261 411.326 324.899 383.768 312.962 364.778 324.139 344.16 333.038 327.557 345.738 304.009 346.168 298.366 335.317 292.398L261.524 251.698C256.493 249.042 254.569 242.811 257.224 237.781 259.88 232.75 266.112 230.825 271.142 233.481 271.265 233.546 271.387 233.614 271.508 233.681L345.3 274.377C376.01 291.305 361.035 318.977 351.16 337.316 342.479 353.485 337.16 364.662 342.26 372.801 356.584 395.589 377.745 406.332 400.099 417.835 406.499 421.09 413.013 424.454 419.199 428.035 424.099 430.806 425.828 437.021 423.063 441.924L422.999 442.035C421.184 445.163 417.824 447.071 414.207 447.026Z" id="Trazado_156" fill="#DADADA" transform="translate(-256.232 -232.358)"/></g><g id="Grupo_154" transform="translate(801.44 321.151)"><path d="M325.967 251.718C347.567 281.126 289.067 328.547 253.261 302.503L240.13 292.954 247.83 277.87C251.085 269.189 257.271 260.291 265.73 252.803 271.823 247.28 278.938 243.004 286.674 240.215L299.913 227.415 310.01 236.1C310.557 236.525 325.641 251.175 325.967 251.718Z" id="Trazado_157" fill="#706F6F" fill-rule="evenodd" transform="translate(-232.608 -223.029)"/><path d="M309.248 234.318C318.148 246.472 310.548 269.477 292.32 285.755 274.092 302.033 252.06 305.288 243.162 293.134 234.264 280.98 241.862 257.975 260.09 241.697 278.429 225.528 300.458 222.164 309.248 234.318Z" id="Trazado_158" fill="#B0B0B0" fill-rule="evenodd" transform="translate(-239.437 -227.006)"/><path d="M297.04 233.573C304.311 243.448 298.125 262.221 283.259 275.46 268.393 288.699 250.379 291.412 243.108 281.537 235.837 271.662 242.023 252.889 256.89 239.65 271.864 226.411 289.769 223.7 297.04 233.573Z" id="Trazado_159" fill="#CACECD" fill-rule="evenodd" transform="translate(-233.306 -220.836)"/><path d="M241.588 278.217C238.115 267.799 244.518 251.956 257.54 240.345 270.019 229.276 284.669 225.587 293.35 230.47 296.823 240.888 290.529 256.731 277.398 268.342 264.919 279.519 250.27 283.209 241.588 278.217Z" id="Trazado_160" fill="#EDEDED" fill-rule="evenodd" transform="translate(-227.446 -213.718)"/></g><g id="Grupo_155" transform="translate(854.939 353.923)"><path d="M330.9 254.738C352.5 284.146 294 331.567 258.194 305.523L245.063 295.973 252.763 280.889C256.018 272.208 262.204 263.309 270.663 255.822 276.756 250.299 283.871 246.023 291.607 243.234L304.846 230.434 314.938 239.115C315.379 239.545 330.462 254.2 330.9 254.738Z" id="Trazado_161" fill="#706F6F" fill-rule="evenodd" transform="translate(-237.538 -226.049)"/><path d="M314.177 237.338C323.077 249.492 315.477 272.497 297.249 288.775 279.021 305.053 256.989 308.308 248.091 296.154 239.193 284 246.791 260.995 265.019 244.717 283.25 228.548 305.279 225.184 314.177 237.338Z" id="Trazado_162" fill="#B0B0B0" fill-rule="evenodd" transform="translate(-244.367 -230.026)"/><path d="M301.97 236.665C309.241 246.54 303.055 265.313 288.189 278.552 273.323 291.791 255.309 294.504 248.038 284.629 240.767 274.754 246.953 255.981 261.819 242.742 276.794 229.394 294.7 226.681 301.97 236.665Z" id="Trazado_163" fill="#CACECD" fill-rule="evenodd" transform="translate(-238.236 -223.928)"/><path d="M246.508 281.237C243.036 270.819 249.438 254.976 262.46 243.365 274.939 232.296 289.589 228.607 298.271 233.49 301.743 243.908 295.449 259.751 282.319 271.362 269.839 282.539 255.19 286.229 246.508 281.237Z" id="Trazado_164" fill="#EDEDED" fill-rule="evenodd" transform="translate(-232.475 -216.738)"/></g><path d="M274 290.822C283.875 293.752 295.92 286.156 301.02 273.785 303.733 267.057 312.631 263.042 310.461 257.941 308.725 253.6 296.68 247.632 292.23 246.33 282.355 243.4 270.31 250.996 265.21 263.367 260.218 275.63 264.125 287.892 274 290.822Z" id="Trazado_165" fill="#706F6F" fill-rule="evenodd" transform="translate(794.533 278.329)"/><path d="M275.1 291.532C284.975 294.462 297.02 286.866 302.121 274.495 307.113 262.233 303.206 249.862 293.331 247.04 283.456 244.11 271.411 251.706 266.31 264.077 261.318 276.34 265.225 288.6 275.1 291.532Z" id="Trazado_166" fill="#3C3C3B" fill-rule="evenodd" transform="translate(805.37 285.324)"/><g id="Grupo_156" transform="translate(1082.29 545.009)"><path d="M363.008 329.291C360.24 329.291 357.529 328.5 355.195 327.012L272.18 274.812C265.288 270.497 263.199 261.412 267.514 254.52 271.829 247.628 280.914 245.539 287.806 249.854L370.821 302.054C377.656 306.41 379.733 315.443 375.487 322.346 372.81 326.665 368.089 329.292 363.008 329.291Z" id="Trazado_167" fill="#706F6F" transform="translate(-265.318 -247.635)"/></g><path d="M279.223 275.69C284.215 277.101 290.292 273.303 292.788 267.117 295.284 260.931 293.33 254.746 288.339 253.227 283.347 251.816 277.27 255.614 274.774 261.8 272.278 268.094 274.231 274.279 279.223 275.69Z" id="Trazado_168" fill="#3C3C3B" fill-rule="evenodd" transform="translate(899.455 349.564)"/><path d="M462.253 275.645C398.988 258.716 253.576 302.445 182.39 490.832L241.64 525.557C290.689 361.59 506.094 303.968 540.06 314.6 517.271 296.155 469.416 277.49 462.253 275.645Z" id="Trazado_169" fill="#EB1F1F" fill-rule="evenodd" transform="matrix(1 0 0 1 0 540.38)"/><path d="M187.85 495.02C204.45 504.569 223.55 502.942 241.783 497.19 297.777 366.211 398.7 333.873 457.838 351.019 483.014 358.29 491.478 382.819 494.625 407.447L544.217 379.124C543.349 345.376 533.04 304.682 486.269 283.956 395.008 243.587 222.467 351.452 187.85 495.02Z" id="Trazado_170" fill="#D20000" fill-rule="evenodd" transform="translate(53.79 570.919)"/><path d="M201.319 529.123C196.761 544.315 235.393 558.205 240.71 541.385L324.159 292.666C328.5 279.644 289 267.382 284.768 280.4Z" id="Trazado_171" fill="url(#linear-gradient-19)" fill-rule="evenodd" transform="translate(182.803 565.464)"/><path d="M213.291 438.873C194.843 448.205 239.991 460.467 251.814 453.523L374.437 369.857C390.715 358.68 390.823 341.857 392.776 316.467 403.628 175.721 360.438 329.489 344.269 338.93Z" id="Trazado_172" fill="#575756" fill-rule="evenodd" transform="translate(261.334 393.646)"/><g id="Grupo_157" transform="translate(411.17 1079.36)"><path d="M224.388 299.733 220.915 297.78C220.687 297.595 220.43 297.449 220.155 297.346L220.155 297.346C219.957 297.226 219.735 297.151 219.504 297.129 214.946 295.718 208.652 300.384 205.397 307.655 202.359 314.274 203.01 320.785 206.697 322.847L206.697 322.847 210.603 325.126C207.13 322.847 206.588 316.553 209.518 310.042 212.773 302.771 219.068 298.105 223.625 299.516 223.888 299.551 224.145 299.624 224.388 299.733Z" id="Trazado_173" fill="url(#linear-gradient-20)" fill-rule="evenodd" transform="translate(-203.473 -296.877)"/><path d="M208.114 323.5C212.672 324.911 218.966 320.245 222.221 312.974 225.476 305.703 224.391 298.758 219.834 297.348 215.277 295.938 208.982 300.603 205.727 307.874 202.471 315.037 203.556 322.09 208.114 323.5Z" id="Trazado_174" fill="#E9E9E9" fill-rule="evenodd" transform="translate(-199.786 -294.71)"/></g><path d="M208.066 320.664C202.749 336.616 243.225 352.464 249.411 334.771L262.758 297.224C273.067 268.359 226.297 269.335 221.413 283.117Z" id="Trazado_175" fill="#575756" fill-rule="evenodd" transform="translate(248.219 555.046)"/><path d="M282.02 297.52C313.49 321.285 220.166 399.2 198.028 390.193 177.628 381.945 181.208 307.069 203.562 283.522 218.537 280.809 239.806 279.616 245.124 280.049 256.41 283.413 271.168 292.2 282.02 297.52Z" id="Trazado_176" fill="#D20000" fill-rule="evenodd" transform="translate(21.583 615.844)"/><path d="M252.334 298.576C289.121 322.992 224.228 396.566 200.463 387.342 172.249 376.49 184.186 272.857 211.963 280.671 223.794 284.035 240.4 293.151 252.334 298.576Z" id="Trazado_177" fill="#B61F21" fill-rule="evenodd" transform="translate(19.04 618.695)"/><path d="M244.959 297.189C277.839 319.001 219.892 384.762 198.623 376.514 173.447 366.856 184.082 274.292 208.823 281.237 219.458 284.168 234.325 292.306 244.959 297.189Z" id="Trazado_178" fill="#E30613" fill-rule="evenodd" transform="translate(17.95 624.748)"/><path d="M350.246 267.08C367.934 322.315 389.746 384.28 407.434 439.512 382.909 460.239 288.609 483.027 286.981 467.943 280.687 406.957 254.752 381.672 216.12 357.691 253.124 369.194 279.494 334.686 350.246 267.08Z" id="Trazado_179" fill="#D20000" fill-rule="evenodd" transform="translate(332.295 488.936)"/><g id="Grupo_158" transform="translate(391.303 629.819)"><path d="M465.9 266.461C462.211 267.438 458.521 268.414 454.723 269.283L408.923 269.283 408.923 278.183C385.484 281.872 360.85 284.802 336.109 287.298L336.109 257.78 201.66 268.306 204.373 328.206C204.264 329.143 204.264 330.09 204.373 331.028L204.373 332.222 204.59 332.222C211.861 377.039 367.907 457.45 400.57 430.863 433.993 403.734 494.111 355.987 519.612 320.719 525.472 312.58 526.883 304.55 525.255 297.388L525.255 269.388 496.607 269.388C486.19 265.268 475.012 263.966 465.9 266.461Z" id="Trazado_180" fill="#3C3C3B" fill-rule="evenodd" transform="translate(-201.462 -232.503)"/><path d="M466.077 255.986C393.697 269.008 311.984 275.627 236.131 277.58 111.446 280.727 362.01 423.535 400.641 402.48 436.885 382.622 490.818 356.795 519.683 315.016 541.821 283.115 494.617 250.886 466.077 255.986Z" id="Trazado_181" fill="#575756" fill-rule="evenodd" transform="translate(-201.642 -255.451)"/></g><g id="Grupo_159" transform="translate(835.801 671.775)"><path d="M257.327 501.883C249.181 501.865 242.592 495.248 242.61 487.102 242.621 481.815 245.462 476.938 250.056 474.32L337.3 424.837C372.242 404.979 401.65 359.727 402.844 324.025 403.386 307.096 397.418 294.4 385.264 286.37 378.485 281.869 376.638 272.726 381.139 265.947 385.606 259.218 394.658 257.341 401.433 261.737 422.268 275.41 433.12 297.873 432.252 324.893 430.733 370.47 395.465 425.593 351.842 450.338L264.6 499.821C262.433 501.212 259.902 501.929 257.327 501.883Z" id="Trazado_182" fill="#C6C6C6" transform="translate(-242.603 -259.317)"/></g><g id="Grupo_161" transform="translate(369.042 889.788)"><g id="Grupo_160"><path d="M245.075 294.412C222.075 309.712 251.261 363.971 277.413 349.43L317.021 309.5C326.136 300.276 310.185 275.751 295.969 279.875Z" id="Trazado_183" fill="#707070" fill-rule="evenodd" transform="translate(166.414 -279.408)"/><path d="M576.207 282.423C597.807 270.486 631.659 324.853 607.785 338.523L240.132 551.323C221.576 562.066 189.997 505.963 208.554 495.223Z" id="Trazado_184" fill="url(#linear-gradient-21)" fill-rule="evenodd" transform="translate(-166.888 -266.443)"/><path d="M239.846 302.682C263.828 288.792 295.732 341.531 271.099 358.568L219.445 372.024C206.857 375.279 192.745 349.024 203.276 338.601Z" id="Trazado_185" fill="#707070" fill-rule="evenodd" transform="translate(-199.591 -72.816)"/></g><path d="M220.047 331.624C224.496 328.802 224.279 320.447 219.613 313.176 214.947 305.905 207.459 302.216 203.013 305.146 198.564 307.968 198.781 316.323 203.447 323.594 208.113 330.865 215.6 334.445 220.047 331.624Z" id="Trazado_186" fill="#3C3C3B" fill-rule="evenodd" transform="translate(-197.48 -35.78)"/></g><g id="Grupo_162" transform="translate(427.964 830.807)"><path d="M225.239 274.383C253.019 269.717 268.754 305.961 245.097 324.3L229.58 336.237 206.141 277.637Z" id="Trazado_187" fill="url(#linear-gradient-22)" fill-rule="evenodd" transform="translate(-193.988 -273.972)"/><path d="M214.242 275.294C224.008 271.062 237.681 280.72 244.627 296.78 251.572 312.949 249.293 329.335 239.418 333.567 229.652 337.799 215.979 328.141 209.033 312.081 202.087 296.021 204.367 279.526 214.242 275.294Z" id="Trazado_188" fill="#706F6F" fill-rule="evenodd" transform="translate(-205.02 -270.76)"/><path d="M212.541 275.787C220.354 272.423 231.097 280.128 236.632 292.933 242.167 305.738 240.322 318.869 232.508 322.233 224.694 325.597 213.952 317.892 208.417 305.087 202.882 292.282 204.728 279.151 212.541 275.787Z" id="Trazado_189" fill="url(#linear-gradient-23)" fill-rule="evenodd" transform="translate(-202.994 -263.873)"/><path d="M211.956 275.891C212.91 275.458 213.947 275.236 214.995 275.24 219.77 278.278 224.219 283.595 227.149 290.54 230.296 297.919 231.056 305.407 229.649 311.158 229.111 311.716 228.438 312.127 227.696 312.352 221.619 314.952 213.046 308.988 208.706 298.896 204.366 288.804 205.771 278.5 211.956 275.891Z" id="Trazado_190" fill="#EF7D00" fill-rule="evenodd" transform="translate(-193.51 -261.482)"/><path d="M211.507 275.938C218.56 272.899 228.218 279.844 233.207 291.347 236.679 299.377 236.896 307.624 234.292 312.833 235.592 307.733 234.943 301.113 232.013 294.494 227.021 282.994 217.363 276.046 210.313 279.085 208.165 280.092 206.437 281.82 205.43 283.968 206.515 280.062 208.469 277.24 211.507 275.938Z" id="Trazado_191" fill="#FFFFFF" fill-rule="evenodd" transform="translate(-200.983 -261.638)"/></g><g id="Grupo_163" transform="translate(282.557 748.226)"><path d="M211.849 266.773C239.629 262.107 255.364 298.351 231.707 316.691L216.19 328.627 192.75 270.027Z" id="Trazado_192" fill="url(#linear-gradient-24)" fill-rule="evenodd" transform="translate(-180.494 -266.362)"/><path d="M200.838 267.694C210.604 263.462 224.277 273.12 231.114 289.18 238.059 305.241 235.78 321.735 225.905 325.967 216.139 330.199 202.466 320.541 195.52 304.481 188.684 288.312 191.072 271.817 200.838 267.694Z" id="Trazado_193" fill="#706F6F" fill-rule="evenodd" transform="translate(-191.621 -263.051)"/><path d="M199.141 268.187C206.954 264.823 217.697 272.528 223.232 285.333 228.767 298.138 226.921 311.269 219.108 314.633 211.295 317.997 200.552 310.292 195.017 297.487 189.482 284.682 191.328 271.551 199.141 268.187Z" id="Trazado_194" fill="url(#linear-gradient-25)" fill-rule="evenodd" transform="translate(-189.599 -256.165)"/><path d="M198.529 268.291C199.483 267.858 200.519 267.636 201.567 267.64 206.342 270.679 210.791 275.996 213.721 282.94 216.868 290.319 217.628 297.807 216.221 303.558 215.683 304.116 215.01 304.527 214.268 304.751 208.191 307.351 199.618 301.387 195.278 291.295 190.938 281.203 192.452 270.9 198.529 268.291Z" id="Trazado_195" fill="#EF7D00" fill-rule="evenodd" transform="translate(-180.088 -253.773)"/><path d="M198.107 268.328C205.16 265.29 214.818 272.234 219.807 283.737 223.28 291.767 223.496 300.014 220.892 305.223 222.192 300.123 221.543 293.395 218.613 286.884 213.621 275.384 203.963 268.436 196.913 271.474 194.765 272.481 193.037 274.209 192.03 276.358 193.115 272.561 195.177 269.631 198.107 268.328Z" id="Trazado_196" fill="#FFFFFF" fill-rule="evenodd" transform="translate(-187.588 -254.028)"/></g><path d="M259.45 256.793C257.171 289.456 282.35 323.856 324.45 321.686L359.935 319.95 360.369 319.95C360.949 306.723 359.186 293.497 355.16 280.884 346.153 251.91 328.031 230.099 309.475 223.37L274.316 244.205C268.741 247.609 263.726 251.855 259.45 256.793Z" id="Trazado_197" fill="#EB1F1F" fill-rule="evenodd" transform="translate(757.755 58.321)"/></g></g></svg>