<svg width="1883.39" height="769.434" viewBox="0 0 1883.39 769.434" xmlns="http://www.w3.org/2000/svg" xmlns:xlink="http://www.w3.org/1999/xlink" overflow="hidden"><g id="OBJECTS" transform="translate(-50.13 -132.413)"><path d="M573.311 138.468 335.711 138.468 256.772 175.081C256.772 175.081 165.629 178.352 125.794 231.222 85.914 284.091 50.13 356.537 50.13 494.008 50.13 631.528 85.914 703.925 125.798 756.795 165.682 809.665 256.776 812.936 256.776 812.936L335.715 849.549 573.315 849.549 600.165 834.074 1353.57 834.074 1425.97 849.549 1641.6 849.549 1685.15 823.92C1685.15 823.92 1718.93 823.529 1784.83 812.106 1951.64 779.544 1932.9 493.96 1932.9 493.96 1932.9 493.96 1951.6 208.375 1784.83 175.814 1718.93 164.439 1685.15 164 1685.15 164L1641.6 138.371 1425.96 138.371 1353.56 153.846 600.161 153.846Z" id="Trazado_7" fill="#EB1F1F" transform="matrix(1 0 0 1 0 23.122)"/><path d="M50.14 493.969 1932.85 493.969C1932.85 493.969 1951.55 208.384 1784.79 175.823 1718.89 164.448 1685.1 164.009 1685.1 164.009L1641.55 138.38 1425.93 138.38 1353.53 153.855 600.122 153.855 573.272 138.38 335.672 138.38 256.733 174.993C256.733 174.993 165.59 178.264 125.755 231.134 85.924 284.053 50.14 356.449 50.14 493.969Z" id="Trazado_8" fill="#EB1F1F" transform="translate(0.039 23.161)"/><path d="M57.01 211.22 82.981 365 559.781 428.951 521.366 211.22Z" id="Trazado_9" fill="#DE0E0E" transform="translate(26.707 305.91)"/><path d="M57.01 384.348 82.981 230.571 559.781 166.62 521.361 384.348Z" id="Trazado_10" fill="#EB1F1F" transform="translate(26.707 132.783)"/><path d="M172.8 335.618C172.8 335.618 442.519 237.982 692.71 259.95 942.901 281.918 1021.4 292.512 1109.27 322.583 977.514 329.076 244.416 348.6 172.8 335.618Z" id="Trazado_11" fill="#1C191A" transform="translate(476.179 482.572)"/><path d="M434.4 211.22C434.4 412.154 383.971 447.987 383.971 447.987L542.434 445.156C542.434 445.156 591.834 456.775 608.334 376.811 624.834 296.847 622.98 211.221 622.98 211.221L434.4 211.221Z" id="Trazado_12" fill="#DE0E0E" transform="translate(1295.9 305.91)"/><path d="M474.5 269.466C474.5 269.466 458.976 325.411 401.469 344.743L435.593 350.064C435.593 350.064 507.793 315.94 513.848 256.48L513.848 256.48C494.859 274.2 474.5 269.466 474.5 269.466Z" id="Trazado_13" fill="#FFFFFF" transform="translate(1363.83 481.6)"/><path d="M72.607 351.962 109.22 365C109.22 365 90.083 313.738 90.083 211.22L53.47 211.22C53.47 260.038 67.725 339.757 72.607 351.962Z" id="Trazado_14" fill="#414042" transform="translate(12.965 305.91)"/><path d="M60.55 243.97 85.15 251.878C91.1077 253.792 95.8817 258.296 98.14 264.132 108.88 291.616 143.785 372.361 188.697 386.958L156.135 386.958C156.184 386.958 93.209 352.394 60.55 243.97Z" id="Trazado_15" fill="#A7A9AC" transform="translate(40.448 433.039)"/><path d="M72.855 259.187 97.455 267.095C99.8828 267.9 102.136 269.159 104.094 270.805L104.194 270.805 520.464 313.423 517.779 306.686 93.991 253.086 57.38 240.05Z" id="Trazado_16" fill="#B10A0A" transform="translate(28.143 417.822)"/><g id="Grupo_74" transform="translate(1041.96 739.296)"><path d="M253.3 337.381C266.383 337.137 279.548 336.893 292.794 336.649L313.835 256.783C305.435 256.683 297.09 256.734 288.694 256.832Z" id="Trazado_17" fill="#2B2A2B" transform="translate(-253.3 -256.729)"/><path d="M412.319 311.757 334.162 262.89C328.162 262.207 322.006 261.523 315.662 260.84L395.235 312.294C400.994 312.1 406.705 311.952 412.319 311.757Z" id="Trazado_18" fill="#2B2A2B" transform="translate(-11.232 -240.772)"/></g><path d="M222.454 325.973 460.054 325.973 486.9 310.5 1240.31 310.5 1312.71 325.975 1528.33 325.975 1571.88 300.346C1571.88 300.346 1605.66 299.955 1671.57 288.532 1676.47 287.575 1681.33 286.369 1686.11 284.919L1652.04 279.598C1652.04 279.598 1204.72 308.059 989.24 301.957 773.758 295.855 257.509 304.398 115.94 273.257L83.372 273.257 79.32 276.967C100.129 283.845 121.738 288.013 143.613 289.367Z" id="Trazado_19" fill="#D20000" transform="translate(113.309 546.697)"/><path d="M183.012 286.988 201.319 332.926C204.509 340.938 209.91 347.879 216.892 352.941L224.215 358.262C227.56 360.677 232.229 359.923 234.644 356.577 235.972 354.737 236.392 352.394 235.785 350.207L220.896 297.386C219.401 292.013 215.03 287.925 209.57 286.792L205.03 285.816 203.321 279.909C202.559 277.222 200.771 274.942 198.342 273.563 198.242 273.514 198.196 273.463 198.098 273.417 189.309 268.584 179.3 277.664 183.012 286.988Z" id="Trazado_20" fill="#878FB3" transform="translate(512.735 542.137)"/><path d="M172.8 153.018C172.8 153.018 442.519 250.654 692.71 228.686 942.901 206.718 1021.4 196.124 1109.27 166.053 977.514 159.559 244.416 140.032 172.8 153.018Z" id="Trazado_21" fill="#1C191A" transform="translate(476.179 63.053)"/><path d="M434.4 399.487C434.4 198.553 383.971 162.72 383.971 162.72L542.434 165.551C542.434 165.551 591.834 153.932 608.334 233.896 624.834 313.86 622.98 399.486 622.98 399.486Z" id="Trazado_22" fill="#EB1F1F" transform="translate(1295.9 117.644)"/><path d="M474.5 227.388C474.5 227.388 458.976 171.443 401.469 152.111L435.593 146.79C435.593 146.79 507.793 180.914 513.848 240.374L513.848 240.374C494.859 222.653 474.5 227.388 474.5 227.388Z" id="Trazado_23" fill="#FFFFFF" transform="translate(1363.83 55.807)"/><path d="M72.607 192.754 109.22 179.72C109.22 179.72 90.083 230.979 90.083 333.5L53.47 333.5C53.47 284.678 67.725 204.959 72.607 192.754Z" id="Trazado_24" fill="#1C191A" transform="translate(12.965 183.634)"/><path d="M60.55 292.167 85.15 284.259C91.1075 282.345 95.8815 277.842 98.14 272.006 108.88 244.522 143.785 163.777 188.697 149.18L156.135 149.18C156.184 149.18 93.209 183.743 60.55 292.167Z" id="Trazado_25" fill="#A7A9AC" transform="translate(40.448 65.084)"/><path d="M72.855 221.6 97.455 213.692C99.8828 212.887 102.136 211.628 104.094 209.982L104.194 209.982 137.26 206.597 520.46 167.364 517.775 174.101 93.993 227.65 57.38 240.684Z" id="Trazado_26" fill="#B10A0A" transform="translate(28.143 135.655)"/><path d="M253.3 149.19C266.383 149.434 279.548 149.678 292.794 149.922L313.835 229.788C305.435 229.888 297.09 229.837 288.694 229.739Z" id="Trazado_27" fill="#2B2A2B" transform="translate(788.663 65.123)"/><path d="M412.319 151.6 334.162 200.467C328.162 201.15 322.006 201.834 315.662 202.517L395.235 151.063C400.994 151.255 406.705 151.4 412.319 151.6Z" id="Trazado_28" fill="#2B2A2B" transform="translate(1030.73 72.382)"/><path d="M222.454 138.39 460.054 138.39 486.904 153.865 1240.31 153.865 1312.71 138.39 1528.34 138.39 1571.89 164.019C1571.89 164.019 1605.67 164.41 1671.57 175.833 1676.48 176.79 1681.33 177.996 1686.12 179.446L1652.04 184.767C1652.04 184.767 1204.73 156.306 989.244 162.408 773.762 168.51 257.513 159.967 115.944 191.108L83.372 191.108 79.32 187.4C100.129 180.522 121.738 176.354 143.613 175Z" id="Trazado_29" fill="#D20000" transform="translate(113.309 23.2)"/><path d="M183.012 205.135 201.318 159.2C204.508 151.188 209.909 144.247 216.891 139.185L224.214 133.864C227.559 131.449 232.228 132.203 234.643 135.549 235.971 137.389 236.391 139.732 235.784 141.919L220.895 194.74C219.399 200.112 215.029 204.2 209.569 205.333L205.029 206.309 203.32 212.216C202.558 214.903 200.77 217.183 198.341 218.562 198.241 218.611 198.195 218.662 198.097 218.708 189.309 223.54 179.3 214.46 183.012 205.135Z" id="Trazado_30" fill="#434B6B" transform="translate(512.735 0)"/><g id="Grupo_76" transform="translate(813.739 713.839)"><g id="Grupo_75"><path d="M837.228 262.868 836.886 267.75C390.3 234.31 209.674 285.276 207.917 285.813L206.55 281.126C208.307 280.589 389.568 229.379 837.228 262.868Z" id="Trazado_31" fill="#B10A0A" transform="translate(-206.55 -251.514)"/></g></g><g id="Grupo_78" transform="translate(813.739 286.124)"><g id="Grupo_77"><path d="M837.228 186.844 836.886 181.962C390.3 215.4 209.674 164.437 207.917 163.9L206.55 168.587C208.307 169.123 389.568 220.333 837.228 186.844Z" id="Trazado_32" fill="#B10A0A" transform="translate(-206.55 -163.9)"/></g></g><path d="M486.357 433.537C486.357 433.537 465.61 353.817 465.61 211.22L145.267 211.22C145.267 211.22 139.8 382.278 206.289 473.811 223.961 497 238.021 500.661 249.639 497 261.257 493.339 486.357 433.537 486.357 433.537Z" id="Trazado_33" fill="#414042" transform="translate(368.877 305.91)"/><path d="M331.14 422.748 589.04 447.987C589.04 447.987 639.474 412.2 639.474 211.22L347.4 211.22C347.4 211.22 345.785 356.063 331.14 422.748Z" id="Trazado_34" fill="#414042" transform="translate(1090.82 305.91)"/><path d="M486.357 217.117C486.357 217.117 465.609 296.837 465.609 439.434L145.267 439.434C145.267 439.434 139.8 268.376 206.289 176.843 223.961 153.655 238.021 149.993 249.639 153.655 261.257 157.317 486.357 217.117 486.357 217.117Z" id="Trazado_35" fill="#1C191A" transform="translate(368.877 77.696)"/><path d="M331.14 187.959 589.04 162.72C589.04 162.72 639.469 198.504 639.469 399.487L347.4 399.487C347.4 399.487 345.785 254.644 331.14 187.959Z" id="Trazado_36" fill="#1C191A" transform="translate(1090.82 117.644)"/><g id="Grupo_79" transform="translate(523.322 632.145)"><path d="M455.135 273.448C453.719 264.856 452.206 254.8 450.741 243.23L151.39 290.193C158.273 308.744 166.719 326.416 177.068 342.135Z" id="Trazado_37" fill="#58595B" transform="translate(-130.252 -201.979)"/><path d="M147.06 240.98C150.094 259.248 154.12 277.337 159.118 295.168L465.743 261.24C464.815 252.99 463.937 244.203 463.107 234.781Z" id="Trazado_38" fill="#58595B" transform="translate(-147.06 -234.78)"/></g><path d="M604.311 301.264C609.486 290.036 615.051 274.756 619.982 254.301L335.959 241.56C334.885 253.13 333.616 264.309 332.2 274.805Z" id="Trazado_39" fill="#58595B" transform="translate(1094.94 423.684)"/><path d="M604.311 168.65C609.486 179.878 615.051 195.158 619.982 215.613L335.959 228.354C334.885 216.784 333.616 205.605 332.2 195.109Z" id="Trazado_40" fill="#2B2A2B" transform="translate(1094.94 140.663)"/><path d="M336.31 225.9C335.578 241.424 334.65 258.266 333.43 275.157L621.114 286.092C624.043 268.859 626.484 248.892 628.144 225.9Z" id="Trazado_41" fill="#58595B" transform="translate(1099.71 362.895)"/><g id="Grupo_80" transform="translate(836.147 741.107)"><path d="M327.96 261.054C318.489 260.224 308.872 259.345 298.86 258.467 292.807 257.93 286.753 257.491 280.651 257.1L274.251 333.939C296.756 333.451 319.212 332.963 341.424 332.426Z" id="Trazado_42" fill="#2B2A2B" transform="translate(33.878 -257.1)"/><path d="M315.561 335.1 366.917 257.724C334.404 260.751 302.77 264.949 272.698 269.88L211.139 336.08C243.506 335.878 278.655 335.585 315.561 335.1Z" id="Trazado_43" fill="#2B2A2B" transform="translate(-211.14 -254.693)"/></g><g id="Grupo_81" transform="translate(132.046 695.364)"><path d="M72.524 247.73C68.8261 252.354 66.8425 258.115 66.91 264.035 66.91 276.825 75.551 287.223 86.242 287.223 87.4917 287.224 88.7371 287.077 89.952 286.784 82.434 271.65 76.771 258.03 73.452 249.536 73.2216 248.897 72.9097 248.29 72.524 247.73Z" id="Trazado_44" fill="#FFFFFF" transform="translate(-66.91 -247.73)"/><path d="M73.25 268.928C73.25 277.081 78.327 283.671 84.625 283.671 86.4755 283.637 88.2751 283.06 89.8 282.011 84.772 274.835 80.085 267.268 75.789 259.75 74.1129 262.517 73.2342 265.693 73.25 268.928Z" id="Trazado_45" fill="#FFFFFF" transform="translate(-42.299 -201.071)"/></g><g id="Grupo_82" transform="translate(132.046 256.248)"><path d="M72.524 206.114C68.8261 201.49 66.8425 195.729 66.91 189.809 66.91 177.019 75.551 166.621 86.242 166.621 87.4917 166.62 88.7371 166.767 89.952 167.06 82.434 182.194 76.771 195.814 73.452 204.308 73.2115 204.943 72.9002 205.549 72.524 206.114Z" id="Trazado_46" fill="#FFFFFF" transform="translate(-66.91 -123.465)"/><path d="M73.25 172.523C73.25 164.37 78.327 157.78 84.625 157.78 86.4755 157.814 88.2751 158.391 89.8 159.44 84.772 166.616 80.085 174.183 75.789 181.701 74.1003 178.94 73.2206 175.76 73.25 172.523Z" id="Trazado_47" fill="#FFFFFF" transform="translate(-42.299 -157.78)"/></g><path d="M455.135 227.637C453.719 236.229 452.206 246.285 450.741 257.855L151.39 210.892C158.273 192.341 166.719 174.669 177.068 158.95Z" id="Trazado_48" fill="#2B2A2B" transform="translate(393.07 103.009)"/></g></svg>